G04 Layer: TopPasteMaskLayer*
G04 EasyEDA v6.5.20, 2023-08-22 18:50:07*
G04 a67cddfb3fce44daa9051d46cbbcc19f,10*
G04 Gerber Generator version 0.2*
G04 Scale: 100 percent, Rotated: No, Reflected: No *
G04 Dimensions in millimeters *
G04 leading zeros omitted , absolute positions ,4 integer and 5 decimal *
%FSLAX45Y45*%
%MOMM*%

%ADD10C,0.0001*%

%LPD*%
G36*
X778764Y-282448D02*
G01*
X772363Y-282854D01*
X766064Y-284073D01*
X760018Y-286105D01*
X754227Y-288899D01*
X748842Y-292404D01*
X743966Y-296519D01*
X739698Y-301294D01*
X735990Y-306527D01*
X733044Y-312216D01*
X730808Y-318211D01*
X729386Y-324459D01*
X728776Y-330860D01*
X728980Y-337261D01*
X729996Y-343611D01*
X731824Y-349707D01*
X734415Y-355600D01*
X737768Y-361086D01*
X741730Y-366064D01*
X746353Y-370535D01*
X751484Y-374345D01*
X757072Y-377494D01*
X763016Y-379933D01*
X769213Y-381558D01*
X775563Y-382371D01*
X828751Y-382473D01*
X835152Y-382066D01*
X841451Y-380847D01*
X847547Y-378815D01*
X853287Y-376021D01*
X858672Y-372516D01*
X863549Y-368401D01*
X867867Y-363626D01*
X871524Y-358394D01*
X874471Y-352704D01*
X876706Y-346710D01*
X878128Y-340461D01*
X878738Y-334060D01*
X878535Y-327660D01*
X877519Y-321310D01*
X875690Y-315214D01*
X873099Y-309321D01*
X869746Y-303834D01*
X865784Y-298856D01*
X861161Y-294386D01*
X856030Y-290576D01*
X850442Y-287426D01*
X844499Y-284988D01*
X838301Y-283362D01*
X831951Y-282549D01*
G37*
G36*
X778764Y382524D02*
G01*
X772363Y382117D01*
X766064Y380898D01*
X760018Y378866D01*
X757072Y377596D01*
X751484Y374446D01*
X746353Y370586D01*
X741730Y366166D01*
X737768Y361137D01*
X734415Y355650D01*
X731824Y349808D01*
X729996Y343662D01*
X728980Y337312D01*
X728776Y330911D01*
X729386Y324561D01*
X730808Y318312D01*
X733044Y312267D01*
X735990Y306628D01*
X739698Y301345D01*
X743966Y296621D01*
X748842Y292455D01*
X754227Y288950D01*
X760018Y286207D01*
X766064Y284175D01*
X772363Y282956D01*
X778764Y282549D01*
X831951Y282651D01*
X838301Y283464D01*
X844499Y285089D01*
X850442Y287477D01*
X856030Y290626D01*
X861161Y294436D01*
X865784Y298907D01*
X869746Y303936D01*
X873099Y309422D01*
X875690Y315264D01*
X877519Y321411D01*
X878535Y327710D01*
X878738Y334111D01*
X878128Y340512D01*
X876706Y346760D01*
X874471Y352755D01*
X871524Y358444D01*
X867867Y363728D01*
X863549Y368452D01*
X858672Y372618D01*
X853287Y376072D01*
X847547Y378866D01*
X841451Y380898D01*
X835152Y382117D01*
X828751Y382524D01*
G37*
G36*
X593750Y-204978D02*
G01*
X593750Y-274980D01*
X718769Y-274980D01*
X718769Y-204978D01*
G37*
G36*
X593750Y-84937D02*
G01*
X593750Y-154940D01*
X718769Y-154940D01*
X718769Y-84937D01*
G37*
G36*
X593750Y35052D02*
G01*
X593750Y-34950D01*
X718769Y-34950D01*
X718769Y35052D01*
G37*
G36*
X593750Y155041D02*
G01*
X593750Y85039D01*
X718769Y85039D01*
X718769Y155041D01*
G37*
G36*
X593750Y275031D02*
G01*
X593750Y205028D01*
X718769Y205028D01*
X718769Y275031D01*
G37*
M02*
