G04 Layer: BottomLayer*
G04 EasyEDA v6.5.20, 2023-08-22 18:50:07*
G04 a67cddfb3fce44daa9051d46cbbcc19f,10*
G04 Gerber Generator version 0.2*
G04 Scale: 100 percent, Rotated: No, Reflected: No *
G04 Dimensions in millimeters *
G04 leading zeros omitted , absolute positions ,4 integer and 5 decimal *
%FSLAX45Y45*%
%MOMM*%

%ADD10C,1.5748*%
%ADD11R,1.5748X1.5748*%
%ADD12O,1.499997X0.9999979999999999*%

%LPD*%
G36*
X-898753Y-974090D02*
G01*
X-911250Y-973124D01*
X-921512Y-970787D01*
X-931367Y-966978D01*
X-940612Y-961847D01*
X-948994Y-955446D01*
X-956360Y-947877D01*
X-962609Y-939393D01*
X-967587Y-930046D01*
X-971194Y-920140D01*
X-973328Y-909828D01*
X-974090Y-898753D01*
X-974090Y898753D01*
X-973124Y911250D01*
X-970787Y921512D01*
X-966978Y931367D01*
X-961847Y940612D01*
X-955446Y948994D01*
X-947877Y956360D01*
X-939393Y962609D01*
X-930046Y967587D01*
X-920140Y971194D01*
X-909828Y973328D01*
X-898753Y974090D01*
X898753Y974090D01*
X911250Y973124D01*
X921512Y970787D01*
X931367Y966978D01*
X940612Y961847D01*
X948994Y955446D01*
X956360Y947877D01*
X962609Y939393D01*
X967587Y930046D01*
X971194Y920140D01*
X973328Y909828D01*
X974090Y898753D01*
X974090Y-898753D01*
X973124Y-911250D01*
X970787Y-921512D01*
X966978Y-931367D01*
X961847Y-940612D01*
X955446Y-948994D01*
X947877Y-956360D01*
X939393Y-962609D01*
X930046Y-967587D01*
X920140Y-971194D01*
X909828Y-973328D01*
X898753Y-974090D01*
G37*

%LPC*%
G36*
X-354279Y620725D02*
G01*
X-306120Y620725D01*
X-309372Y627329D01*
X-316992Y638708D01*
X-326034Y648970D01*
X-336296Y658012D01*
X-347675Y665632D01*
X-354279Y668883D01*
G37*
G36*
X-78181Y-545642D02*
G01*
X78181Y-545642D01*
X84480Y-544931D01*
X89966Y-543001D01*
X94843Y-539953D01*
X98958Y-535838D01*
X102006Y-530961D01*
X103936Y-525475D01*
X104648Y-519176D01*
X104648Y-362813D01*
X103936Y-356514D01*
X102006Y-351028D01*
X98958Y-346151D01*
X94843Y-342036D01*
X89966Y-338988D01*
X84480Y-337058D01*
X78181Y-336346D01*
X-78181Y-336346D01*
X-84480Y-337058D01*
X-89966Y-338988D01*
X-94843Y-342036D01*
X-98958Y-346151D01*
X-102006Y-351028D01*
X-103936Y-356514D01*
X-104648Y-362813D01*
X-104648Y-519176D01*
X-103936Y-525475D01*
X-102006Y-530961D01*
X-98958Y-535838D01*
X-94843Y-539953D01*
X-89966Y-543001D01*
X-84480Y-544931D01*
G37*
G36*
X779119Y-408381D02*
G01*
X828395Y-408381D01*
X840079Y-407517D01*
X851103Y-404977D01*
X861669Y-400862D01*
X871524Y-395173D01*
X880364Y-388112D01*
X888085Y-379780D01*
X894486Y-370433D01*
X899414Y-360222D01*
X902716Y-349402D01*
X904443Y-338175D01*
X904443Y-326847D01*
X902716Y-315620D01*
X899414Y-304749D01*
X894486Y-294538D01*
X888085Y-285191D01*
X880364Y-276860D01*
X871524Y-269798D01*
X861669Y-264160D01*
X850239Y-259689D01*
X846531Y-257149D01*
X844245Y-253288D01*
X843838Y-248869D01*
X845413Y-244652D01*
X848614Y-241554D01*
X855421Y-237337D01*
X863904Y-230124D01*
X871118Y-221691D01*
X876909Y-212191D01*
X881176Y-201930D01*
X883767Y-191109D01*
X884631Y-180035D01*
X883767Y-168910D01*
X881176Y-158089D01*
X876909Y-147828D01*
X871118Y-138328D01*
X863904Y-129895D01*
X855421Y-122682D01*
X845921Y-116839D01*
X835660Y-112623D01*
X824839Y-109982D01*
X813765Y-109118D01*
X802690Y-109982D01*
X791870Y-112623D01*
X781608Y-116839D01*
X772109Y-122682D01*
X763625Y-129895D01*
X756412Y-138328D01*
X750620Y-147828D01*
X746353Y-158089D01*
X743762Y-168910D01*
X742899Y-180035D01*
X743762Y-191109D01*
X746353Y-201930D01*
X750620Y-212191D01*
X756412Y-221691D01*
X763625Y-230124D01*
X772109Y-237337D01*
X773988Y-238506D01*
X777087Y-241452D01*
X778713Y-245364D01*
X778560Y-249580D01*
X776732Y-253390D01*
X773531Y-256133D01*
X769467Y-257302D01*
X767435Y-257454D01*
X756412Y-259994D01*
X745845Y-264109D01*
X735990Y-269798D01*
X727151Y-276860D01*
X719429Y-285191D01*
X713028Y-294538D01*
X708101Y-304749D01*
X704799Y-315620D01*
X703072Y-326847D01*
X703072Y-338175D01*
X704799Y-349402D01*
X708101Y-360222D01*
X713028Y-370433D01*
X719429Y-379780D01*
X727151Y-388112D01*
X735990Y-395173D01*
X745845Y-400862D01*
X756412Y-404977D01*
X767435Y-407517D01*
G37*
G36*
X-399999Y-291642D02*
G01*
X-386334Y-290728D01*
X-372922Y-288036D01*
X-359968Y-283667D01*
X-347675Y-277622D01*
X-336296Y-270002D01*
X-326034Y-260959D01*
X-316992Y-250698D01*
X-309372Y-239318D01*
X-303326Y-227025D01*
X-298958Y-214071D01*
X-296265Y-200660D01*
X-295351Y-186994D01*
X-296265Y-173329D01*
X-298958Y-159918D01*
X-303326Y-146964D01*
X-309372Y-134670D01*
X-316992Y-123291D01*
X-326034Y-113030D01*
X-336296Y-103987D01*
X-347675Y-96367D01*
X-359968Y-90322D01*
X-372922Y-85953D01*
X-386334Y-83261D01*
X-399999Y-82397D01*
X-413664Y-83261D01*
X-427075Y-85953D01*
X-440029Y-90322D01*
X-452323Y-96367D01*
X-463702Y-103987D01*
X-473964Y-113030D01*
X-483006Y-123291D01*
X-490626Y-134670D01*
X-496671Y-146964D01*
X-501040Y-159918D01*
X-503732Y-173329D01*
X-504647Y-186994D01*
X-503732Y-200660D01*
X-501040Y-214071D01*
X-496671Y-227025D01*
X-490626Y-239318D01*
X-483006Y-250698D01*
X-473964Y-260959D01*
X-463702Y-270002D01*
X-452323Y-277622D01*
X-440029Y-283667D01*
X-427075Y-288036D01*
X-413664Y-290728D01*
G37*
G36*
X0Y-291642D02*
G01*
X13665Y-290728D01*
X27076Y-288036D01*
X40030Y-283667D01*
X52324Y-277622D01*
X63703Y-270002D01*
X73964Y-260959D01*
X83007Y-250698D01*
X90627Y-239318D01*
X96672Y-227025D01*
X101041Y-214071D01*
X103733Y-200660D01*
X104648Y-186994D01*
X103733Y-173329D01*
X101041Y-159918D01*
X96672Y-146964D01*
X90627Y-134670D01*
X83007Y-123291D01*
X73964Y-113030D01*
X63703Y-103987D01*
X52324Y-96367D01*
X40030Y-90322D01*
X27076Y-85953D01*
X13665Y-83261D01*
X0Y-82397D01*
X-13665Y-83261D01*
X-27076Y-85953D01*
X-40030Y-90322D01*
X-52324Y-96367D01*
X-63703Y-103987D01*
X-73964Y-113030D01*
X-83007Y-123291D01*
X-90627Y-134670D01*
X-96672Y-146964D01*
X-101041Y-159918D01*
X-103733Y-173329D01*
X-104648Y-186994D01*
X-103733Y-200660D01*
X-101041Y-214071D01*
X-96672Y-227025D01*
X-90627Y-239318D01*
X-83007Y-250698D01*
X-73964Y-260959D01*
X-63703Y-270002D01*
X-52324Y-277622D01*
X-40030Y-283667D01*
X-27076Y-288036D01*
X-13665Y-290728D01*
G37*
G36*
X0Y-37642D02*
G01*
X13665Y-36728D01*
X27076Y-34036D01*
X40030Y-29667D01*
X52324Y-23622D01*
X63703Y-16002D01*
X73964Y-6959D01*
X83007Y3302D01*
X90627Y14681D01*
X96672Y26974D01*
X101041Y39928D01*
X103733Y53340D01*
X104648Y67005D01*
X103733Y80670D01*
X101041Y94081D01*
X96672Y107035D01*
X90627Y119329D01*
X83007Y130708D01*
X73964Y140970D01*
X63703Y150012D01*
X52324Y157632D01*
X40030Y163677D01*
X27076Y168046D01*
X13665Y170738D01*
X0Y171602D01*
X-13665Y170738D01*
X-27076Y168046D01*
X-40030Y163677D01*
X-52324Y157632D01*
X-63703Y150012D01*
X-73964Y140970D01*
X-83007Y130708D01*
X-90627Y119329D01*
X-96672Y107035D01*
X-101041Y94081D01*
X-103733Y80670D01*
X-104648Y67005D01*
X-103733Y53340D01*
X-101041Y39928D01*
X-96672Y26974D01*
X-90627Y14681D01*
X-83007Y3302D01*
X-73964Y-6959D01*
X-63703Y-16002D01*
X-52324Y-23622D01*
X-40030Y-29667D01*
X-27076Y-34036D01*
X-13665Y-36728D01*
G37*
G36*
X-399999Y-37642D02*
G01*
X-386334Y-36728D01*
X-372922Y-34036D01*
X-359968Y-29667D01*
X-347675Y-23622D01*
X-336296Y-16002D01*
X-326034Y-6959D01*
X-316992Y3302D01*
X-309372Y14681D01*
X-303326Y26974D01*
X-298958Y39928D01*
X-296265Y53340D01*
X-295351Y67005D01*
X-296265Y80670D01*
X-298958Y94081D01*
X-303326Y107035D01*
X-309372Y119329D01*
X-316992Y130708D01*
X-326034Y140970D01*
X-336296Y150012D01*
X-347675Y157632D01*
X-359968Y163677D01*
X-372922Y168046D01*
X-386334Y170738D01*
X-399999Y171602D01*
X-413664Y170738D01*
X-427075Y168046D01*
X-440029Y163677D01*
X-452323Y157632D01*
X-463702Y150012D01*
X-473964Y140970D01*
X-483006Y130708D01*
X-490626Y119329D01*
X-496671Y107035D01*
X-501040Y94081D01*
X-503732Y80670D01*
X-504647Y67005D01*
X-503732Y53340D01*
X-501040Y39928D01*
X-496671Y26974D01*
X-490626Y14681D01*
X-483006Y3302D01*
X-473964Y-6959D01*
X-463702Y-16002D01*
X-452323Y-23622D01*
X-440029Y-29667D01*
X-427075Y-34036D01*
X-413664Y-36728D01*
G37*
G36*
X813765Y109118D02*
G01*
X824839Y109982D01*
X835660Y112572D01*
X845921Y116839D01*
X855421Y122631D01*
X863904Y129844D01*
X871118Y138328D01*
X876909Y147828D01*
X881176Y158089D01*
X883767Y168910D01*
X884631Y179984D01*
X883767Y191058D01*
X881176Y201879D01*
X876909Y212140D01*
X871118Y221640D01*
X863904Y230124D01*
X855421Y237337D01*
X848563Y241554D01*
X845362Y244652D01*
X843787Y248869D01*
X844194Y253339D01*
X846480Y257149D01*
X850188Y259689D01*
X861669Y264160D01*
X871524Y269798D01*
X880364Y276860D01*
X888085Y285191D01*
X894486Y294589D01*
X899414Y304800D01*
X902716Y315620D01*
X904443Y326847D01*
X904443Y338175D01*
X902716Y349402D01*
X899414Y360222D01*
X894486Y370433D01*
X888085Y379831D01*
X880364Y388112D01*
X871524Y395224D01*
X861669Y400862D01*
X851103Y405028D01*
X840079Y407517D01*
X828395Y408432D01*
X779119Y408432D01*
X767435Y407517D01*
X756412Y405028D01*
X745845Y400862D01*
X735990Y395224D01*
X727151Y388112D01*
X719429Y379831D01*
X713028Y370433D01*
X708101Y360222D01*
X704799Y349402D01*
X703072Y338175D01*
X703072Y326847D01*
X704799Y315620D01*
X708101Y304800D01*
X713028Y294589D01*
X719429Y285191D01*
X727151Y276860D01*
X735990Y269798D01*
X745845Y264160D01*
X756412Y259994D01*
X767435Y257454D01*
X769518Y257302D01*
X773582Y256133D01*
X776782Y253390D01*
X778611Y249580D01*
X778764Y245364D01*
X777138Y241452D01*
X774090Y238506D01*
X772109Y237337D01*
X763625Y230124D01*
X756412Y221640D01*
X750620Y212140D01*
X746353Y201879D01*
X743762Y191058D01*
X742899Y179984D01*
X743762Y168910D01*
X746353Y158089D01*
X750620Y147828D01*
X756412Y138328D01*
X763625Y129844D01*
X772109Y122631D01*
X781608Y116839D01*
X791870Y112572D01*
X802690Y109982D01*
G37*
G36*
X-45720Y227126D02*
G01*
X-45720Y275285D01*
X-93878Y275285D01*
X-90627Y268681D01*
X-83007Y257302D01*
X-73964Y247040D01*
X-63703Y237998D01*
X-52324Y230378D01*
G37*
G36*
X-445719Y227126D02*
G01*
X-445719Y275285D01*
X-493877Y275285D01*
X-490626Y268681D01*
X-483006Y257302D01*
X-473964Y247040D01*
X-463702Y237998D01*
X-452323Y230378D01*
G37*
G36*
X-478180Y-545642D02*
G01*
X-321818Y-545642D01*
X-315518Y-544931D01*
X-310032Y-543001D01*
X-305155Y-539953D01*
X-301040Y-535838D01*
X-297992Y-530961D01*
X-296062Y-525475D01*
X-295351Y-519176D01*
X-295351Y-362813D01*
X-296062Y-356514D01*
X-297992Y-351028D01*
X-301040Y-346151D01*
X-305155Y-342036D01*
X-310032Y-338988D01*
X-315518Y-337058D01*
X-321818Y-336346D01*
X-478180Y-336346D01*
X-484479Y-337058D01*
X-489966Y-338988D01*
X-494842Y-342036D01*
X-498957Y-346151D01*
X-502005Y-351028D01*
X-503935Y-356514D01*
X-504647Y-362813D01*
X-504647Y-519176D01*
X-503935Y-525475D01*
X-502005Y-530961D01*
X-498957Y-535838D01*
X-494842Y-539953D01*
X-489966Y-543001D01*
X-484479Y-544931D01*
G37*
G36*
X-354279Y227126D02*
G01*
X-347675Y230378D01*
X-336296Y237998D01*
X-326034Y247040D01*
X-316992Y257302D01*
X-309372Y268681D01*
X-306120Y275285D01*
X-354279Y275285D01*
G37*
G36*
X-493877Y366725D02*
G01*
X-445719Y366725D01*
X-445719Y414883D01*
X-452323Y411632D01*
X-463702Y404012D01*
X-473964Y394970D01*
X-483006Y384708D01*
X-490626Y373329D01*
G37*
G36*
X-93878Y366725D02*
G01*
X-45720Y366725D01*
X-45720Y414883D01*
X-52324Y411632D01*
X-63703Y404012D01*
X-73964Y394970D01*
X-83007Y384708D01*
X-90627Y373329D01*
G37*
G36*
X-354279Y366725D02*
G01*
X-306120Y366725D01*
X-309372Y373329D01*
X-316992Y384708D01*
X-326034Y394970D01*
X-336296Y404012D01*
X-347675Y411632D01*
X-354279Y414883D01*
G37*
G36*
X45720Y366725D02*
G01*
X93878Y366725D01*
X90627Y373329D01*
X83007Y384708D01*
X73964Y394970D01*
X63703Y404012D01*
X52324Y411632D01*
X45720Y414883D01*
G37*
G36*
X0Y470357D02*
G01*
X13665Y471271D01*
X27076Y473964D01*
X40030Y478332D01*
X52324Y484378D01*
X63703Y491998D01*
X73964Y501040D01*
X83007Y511301D01*
X90627Y522681D01*
X96672Y534974D01*
X101041Y547928D01*
X103733Y561340D01*
X104648Y575005D01*
X103733Y588670D01*
X101041Y602081D01*
X96672Y615035D01*
X90627Y627329D01*
X83007Y638708D01*
X73964Y648970D01*
X63703Y658012D01*
X52324Y665632D01*
X40030Y671677D01*
X27076Y676046D01*
X13665Y678738D01*
X0Y679602D01*
X-13665Y678738D01*
X-27076Y676046D01*
X-40030Y671677D01*
X-52324Y665632D01*
X-63703Y658012D01*
X-73964Y648970D01*
X-83007Y638708D01*
X-90627Y627329D01*
X-96672Y615035D01*
X-101041Y602081D01*
X-103733Y588670D01*
X-104648Y575005D01*
X-103733Y561340D01*
X-101041Y547928D01*
X-96672Y534974D01*
X-90627Y522681D01*
X-83007Y511301D01*
X-73964Y501040D01*
X-63703Y491998D01*
X-52324Y484378D01*
X-40030Y478332D01*
X-27076Y473964D01*
X-13665Y471271D01*
G37*
G36*
X-445719Y481126D02*
G01*
X-445719Y529285D01*
X-493877Y529285D01*
X-490626Y522681D01*
X-483006Y511301D01*
X-473964Y501040D01*
X-463702Y491998D01*
X-452323Y484378D01*
G37*
G36*
X-354279Y481126D02*
G01*
X-347675Y484378D01*
X-336296Y491998D01*
X-326034Y501040D01*
X-316992Y511301D01*
X-309372Y522681D01*
X-306120Y529285D01*
X-354279Y529285D01*
G37*
G36*
X-493877Y620725D02*
G01*
X-445719Y620725D01*
X-445719Y668883D01*
X-452323Y665632D01*
X-463702Y658012D01*
X-473964Y648970D01*
X-483006Y638708D01*
X-490626Y627329D01*
G37*
G36*
X45720Y227126D02*
G01*
X52324Y230378D01*
X63703Y237998D01*
X73964Y247040D01*
X83007Y257302D01*
X90627Y268681D01*
X93878Y275285D01*
X45720Y275285D01*
G37*

%LPD*%
D10*
G01*
X-399999Y575005D03*
G01*
X-399999Y321005D03*
G01*
X-399999Y67005D03*
G01*
X-399999Y-186994D03*
D11*
G01*
X-399999Y-440994D03*
D10*
G01*
X0Y575005D03*
G01*
X0Y321005D03*
G01*
X0Y67005D03*
G01*
X0Y-186994D03*
D11*
G01*
X0Y-440994D03*
D12*
G01*
X803757Y-332511D03*
G01*
X803757Y332486D03*
M02*
