G04 Layer: TopLayer*
G04 EasyEDA v6.5.20, 2023-08-22 18:50:07*
G04 a67cddfb3fce44daa9051d46cbbcc19f,10*
G04 Gerber Generator version 0.2*
G04 Scale: 100 percent, Rotated: No, Reflected: No *
G04 Dimensions in millimeters *
G04 leading zeros omitted , absolute positions ,4 integer and 5 decimal *
%FSLAX45Y45*%
%MOMM*%

%AMMACRO1*21,1,$1,$2,0,0,$3*%
%ADD10C,0.5000*%
%ADD11C,1.0000*%
%ADD12C,1.5748*%
%ADD13MACRO1,1.5748X1.5748X90.0000*%
%ADD14C,0.9000*%
%ADD15O,1.7999964X0.7999984*%
%ADD16C,0.6096*%
%ADD17C,0.0121*%

%LPD*%
G36*
X-304Y-2074062D02*
G01*
X-33680Y-2073097D01*
X-66954Y-2070150D01*
X-99974Y-2065274D01*
X-132689Y-2058517D01*
X-164947Y-2049881D01*
X-196646Y-2039366D01*
X-227634Y-2027021D01*
X-257911Y-2012848D01*
X-287274Y-1996998D01*
X-315722Y-1979472D01*
X-343052Y-1960270D01*
X-369214Y-1939543D01*
X-394157Y-1917344D01*
X-417779Y-1893722D01*
X-439978Y-1868779D01*
X-460654Y-1842566D01*
X-479806Y-1815185D01*
X-497332Y-1786788D01*
X-513130Y-1757375D01*
X-527253Y-1727098D01*
X-539546Y-1696059D01*
X-550062Y-1664360D01*
X-558647Y-1632102D01*
X-565404Y-1599387D01*
X-570230Y-1566367D01*
X-573125Y-1533093D01*
X-574040Y-1499311D01*
X-574040Y-1000607D01*
X-574852Y-994105D01*
X-576935Y-988568D01*
X-580491Y-983437D01*
X-583488Y-980389D01*
X-587095Y-977747D01*
X-592632Y-975258D01*
X-600100Y-974090D01*
X-898753Y-974090D01*
X-911250Y-973124D01*
X-921512Y-970787D01*
X-931367Y-966978D01*
X-940612Y-961847D01*
X-948994Y-955446D01*
X-956360Y-947877D01*
X-962609Y-939393D01*
X-967587Y-930046D01*
X-971194Y-920140D01*
X-973328Y-909828D01*
X-974090Y-898702D01*
X-974090Y898753D01*
X-973124Y911250D01*
X-970787Y921512D01*
X-966978Y931367D01*
X-961847Y940612D01*
X-955446Y948994D01*
X-947877Y956360D01*
X-939393Y962609D01*
X-930046Y967587D01*
X-920140Y971194D01*
X-909828Y973328D01*
X-898753Y974090D01*
X-600608Y974039D01*
X-594106Y974801D01*
X-588568Y976934D01*
X-583438Y980440D01*
X-580390Y983487D01*
X-577748Y987094D01*
X-575259Y992632D01*
X-574090Y1000099D01*
X-574090Y1499514D01*
X-573074Y1533652D01*
X-570179Y1566926D01*
X-565302Y1599996D01*
X-558546Y1632661D01*
X-549859Y1664919D01*
X-539343Y1696618D01*
X-526999Y1727657D01*
X-512876Y1757883D01*
X-497027Y1787296D01*
X-479450Y1815693D01*
X-460298Y1843024D01*
X-439572Y1869236D01*
X-417372Y1894179D01*
X-393750Y1917750D01*
X-368757Y1939950D01*
X-342595Y1960625D01*
X-315214Y1979777D01*
X-286766Y1997303D01*
X-257403Y2013153D01*
X-227126Y2027224D01*
X-196088Y2039569D01*
X-164338Y2050034D01*
X-132080Y2058670D01*
X-99415Y2065375D01*
X-66344Y2070201D01*
X-33070Y2073097D01*
X304Y2074062D01*
X33680Y2073097D01*
X66954Y2070150D01*
X99974Y2065274D01*
X132689Y2058517D01*
X164947Y2049881D01*
X196646Y2039366D01*
X227634Y2027021D01*
X257911Y2012848D01*
X287274Y1996998D01*
X315722Y1979472D01*
X343052Y1960321D01*
X369214Y1939594D01*
X394157Y1917344D01*
X417779Y1893722D01*
X439978Y1868779D01*
X460654Y1842566D01*
X479806Y1815185D01*
X497332Y1786788D01*
X513130Y1757375D01*
X527253Y1727098D01*
X539546Y1696059D01*
X550062Y1664360D01*
X558647Y1632102D01*
X565404Y1599387D01*
X570230Y1566367D01*
X573125Y1533093D01*
X574040Y1499311D01*
X574040Y1000607D01*
X574852Y994105D01*
X576935Y988568D01*
X580491Y983437D01*
X583488Y980389D01*
X587095Y977747D01*
X592632Y975258D01*
X600100Y974090D01*
X898753Y974090D01*
X911250Y973124D01*
X921512Y970787D01*
X931367Y966978D01*
X940612Y961847D01*
X948994Y955446D01*
X956360Y947877D01*
X962609Y939393D01*
X967587Y930046D01*
X971194Y920140D01*
X973328Y909828D01*
X974090Y898753D01*
X974090Y-898702D01*
X973124Y-911250D01*
X970787Y-921512D01*
X966978Y-931367D01*
X961847Y-940612D01*
X955446Y-948994D01*
X947877Y-956360D01*
X939393Y-962609D01*
X930046Y-967587D01*
X920140Y-971194D01*
X909828Y-973328D01*
X898753Y-974090D01*
X600760Y-974090D01*
X594258Y-974902D01*
X588721Y-976985D01*
X583590Y-980541D01*
X580542Y-983538D01*
X577900Y-987145D01*
X575411Y-992682D01*
X574243Y-1000150D01*
X574090Y-1499463D01*
X573074Y-1533652D01*
X570179Y-1566926D01*
X565302Y-1599996D01*
X558546Y-1632661D01*
X549859Y-1664919D01*
X539343Y-1696618D01*
X526999Y-1727657D01*
X512876Y-1757883D01*
X497027Y-1787296D01*
X479450Y-1815693D01*
X460298Y-1843024D01*
X439572Y-1869236D01*
X417372Y-1894179D01*
X393750Y-1917750D01*
X368757Y-1939950D01*
X342595Y-1960625D01*
X315214Y-1979777D01*
X286766Y-1997303D01*
X257403Y-2013153D01*
X227126Y-2027224D01*
X196088Y-2039569D01*
X164338Y-2050034D01*
X132080Y-2058670D01*
X99415Y-2065375D01*
X66344Y-2070201D01*
X33070Y-2073097D01*
G37*

%LPC*%
G36*
X-10566Y994105D02*
G01*
X20574Y994105D01*
X51663Y996035D01*
X82550Y999845D01*
X113182Y1005586D01*
X143408Y1013206D01*
X173075Y1022654D01*
X202082Y1033932D01*
X230378Y1046937D01*
X257810Y1061720D01*
X284276Y1078128D01*
X309676Y1096162D01*
X333959Y1115720D01*
X356920Y1136700D01*
X378612Y1159103D01*
X398830Y1182776D01*
X417576Y1207668D01*
X434746Y1233627D01*
X450291Y1260652D01*
X464108Y1288542D01*
X476199Y1317244D01*
X486511Y1346657D01*
X494995Y1376629D01*
X501599Y1407058D01*
X506272Y1437843D01*
X509117Y1468882D01*
X509981Y1499971D01*
X509117Y1531112D01*
X506272Y1562150D01*
X501599Y1592935D01*
X494995Y1623364D01*
X486511Y1653336D01*
X476199Y1682750D01*
X464108Y1711452D01*
X450291Y1739341D01*
X434746Y1766366D01*
X417576Y1792325D01*
X398830Y1817217D01*
X378612Y1840890D01*
X356920Y1863293D01*
X333959Y1884273D01*
X309676Y1903831D01*
X284276Y1921865D01*
X257810Y1938274D01*
X230378Y1953056D01*
X202082Y1966061D01*
X173075Y1977339D01*
X143408Y1986788D01*
X113182Y1994407D01*
X82550Y2000148D01*
X51663Y2003958D01*
X20574Y2005888D01*
X-10566Y2005888D01*
X-41656Y2003958D01*
X-72593Y2000148D01*
X-103174Y1994407D01*
X-133400Y1986788D01*
X-163068Y1977339D01*
X-192125Y1966061D01*
X-220370Y1953056D01*
X-247802Y1938274D01*
X-274269Y1921865D01*
X-299720Y1903831D01*
X-323951Y1884273D01*
X-346964Y1863293D01*
X-368604Y1840890D01*
X-388823Y1817217D01*
X-407568Y1792325D01*
X-424738Y1766366D01*
X-440283Y1739341D01*
X-454101Y1711452D01*
X-466191Y1682750D01*
X-476504Y1653336D01*
X-484987Y1623364D01*
X-491591Y1592935D01*
X-496316Y1562150D01*
X-499109Y1531112D01*
X-499973Y1500022D01*
X-499109Y1468882D01*
X-496316Y1437843D01*
X-491591Y1407058D01*
X-484987Y1376629D01*
X-476504Y1346657D01*
X-466191Y1317244D01*
X-454101Y1288542D01*
X-440283Y1260652D01*
X-424738Y1233627D01*
X-407568Y1207668D01*
X-388823Y1182776D01*
X-368604Y1159103D01*
X-346964Y1136700D01*
X-323951Y1115720D01*
X-299720Y1096162D01*
X-274269Y1078128D01*
X-247802Y1061720D01*
X-220370Y1046937D01*
X-192125Y1033932D01*
X-163068Y1022654D01*
X-133400Y1013206D01*
X-103174Y1005586D01*
X-72593Y999845D01*
X-41656Y996035D01*
G37*
G36*
X-878179Y-612648D02*
G01*
X-721817Y-612648D01*
X-715518Y-611936D01*
X-710031Y-610006D01*
X-705154Y-606958D01*
X-701040Y-602843D01*
X-698042Y-598017D01*
X-695655Y-590905D01*
X-693521Y-587248D01*
X-690118Y-584758D01*
X-686003Y-583895D01*
X-425297Y-583844D01*
X-416458Y-583031D01*
X-414020Y-582625D01*
X-405384Y-580491D01*
X-403047Y-579729D01*
X-394817Y-576326D01*
X-392633Y-575208D01*
X-385013Y-570585D01*
X-376174Y-563524D01*
X-161086Y-348488D01*
X-157683Y-346252D01*
X-153619Y-345541D01*
X-149656Y-346456D01*
X-146354Y-348894D01*
X-144272Y-352399D01*
X-143103Y-368300D01*
X-140665Y-378358D01*
X-136702Y-387908D01*
X-131318Y-396697D01*
X-124612Y-404571D01*
X-116738Y-411276D01*
X-107950Y-416661D01*
X-98399Y-420624D01*
X-88341Y-423062D01*
X-77622Y-423875D01*
X21590Y-423875D01*
X32308Y-423062D01*
X42316Y-420624D01*
X51866Y-416661D01*
X60706Y-411276D01*
X68580Y-404571D01*
X75285Y-396697D01*
X80670Y-387908D01*
X84632Y-378358D01*
X87071Y-368300D01*
X87833Y-357987D01*
X87071Y-347675D01*
X85801Y-342442D01*
X85598Y-338785D01*
X86664Y-335330D01*
X88950Y-332435D01*
X92100Y-330555D01*
X95656Y-329895D01*
X713943Y-329895D01*
X717804Y-330657D01*
X721106Y-332892D01*
X723341Y-336194D01*
X724103Y-340055D01*
X724103Y-394004D01*
X723239Y-398119D01*
X720750Y-401523D01*
X717092Y-403656D01*
X709980Y-406044D01*
X705154Y-409041D01*
X701040Y-413156D01*
X697992Y-418033D01*
X696061Y-423519D01*
X695350Y-429818D01*
X695350Y-586181D01*
X696061Y-592480D01*
X697992Y-597966D01*
X701040Y-602843D01*
X705154Y-606958D01*
X710031Y-610006D01*
X715518Y-611936D01*
X721817Y-612648D01*
X878179Y-612648D01*
X884478Y-611936D01*
X889965Y-610006D01*
X894842Y-606958D01*
X898956Y-602843D01*
X902004Y-597966D01*
X903935Y-592480D01*
X904646Y-586181D01*
X904646Y-429818D01*
X903935Y-423519D01*
X902004Y-418033D01*
X898956Y-413156D01*
X894842Y-409041D01*
X890016Y-406044D01*
X882903Y-403656D01*
X879246Y-401523D01*
X876757Y-398119D01*
X875893Y-394004D01*
X875893Y-329590D01*
X876553Y-326034D01*
X878433Y-322935D01*
X883005Y-317703D01*
X890625Y-306324D01*
X896670Y-294030D01*
X901039Y-281076D01*
X903732Y-267665D01*
X904646Y-254000D01*
X903732Y-240334D01*
X901039Y-226923D01*
X896670Y-213969D01*
X890625Y-201676D01*
X883005Y-190296D01*
X873963Y-180035D01*
X863701Y-170992D01*
X852322Y-163372D01*
X840028Y-157327D01*
X827074Y-152958D01*
X813663Y-150266D01*
X799998Y-149352D01*
X786333Y-150266D01*
X772922Y-152958D01*
X759968Y-157327D01*
X747674Y-163372D01*
X736295Y-170992D01*
X731062Y-175564D01*
X727964Y-177444D01*
X724408Y-178104D01*
X109626Y-178104D01*
X105714Y-177342D01*
X102412Y-175107D01*
X74066Y-146761D01*
X71831Y-143459D01*
X71069Y-139547D01*
X71831Y-135686D01*
X74066Y-132384D01*
X77368Y-130149D01*
X82143Y-128168D01*
X91643Y-122377D01*
X100126Y-115163D01*
X107340Y-106680D01*
X113131Y-97180D01*
X117398Y-86918D01*
X119989Y-76098D01*
X120853Y-65024D01*
X119989Y-53949D01*
X117398Y-43129D01*
X113131Y-32867D01*
X107340Y-23368D01*
X100126Y-14884D01*
X91694Y-7721D01*
X89052Y-4267D01*
X88138Y0D01*
X89052Y4267D01*
X91694Y7721D01*
X96316Y11684D01*
X99415Y13512D01*
X102920Y14122D01*
X685444Y14122D01*
X689508Y13258D01*
X692861Y10922D01*
X694994Y7366D01*
X695604Y3302D01*
X695350Y0D01*
X696264Y-13665D01*
X698957Y-27076D01*
X703326Y-40030D01*
X709371Y-52324D01*
X716991Y-63703D01*
X726033Y-73964D01*
X736295Y-83007D01*
X747674Y-90627D01*
X759968Y-96672D01*
X772922Y-101041D01*
X786333Y-103733D01*
X799998Y-104648D01*
X813663Y-103733D01*
X827074Y-101041D01*
X840028Y-96672D01*
X852322Y-90627D01*
X863701Y-83007D01*
X873963Y-73964D01*
X883005Y-63703D01*
X890625Y-52324D01*
X896670Y-40030D01*
X901039Y-27076D01*
X903732Y-13665D01*
X904646Y0D01*
X903732Y13665D01*
X901039Y27076D01*
X896670Y40030D01*
X890625Y52324D01*
X883005Y63703D01*
X873963Y73964D01*
X863701Y83007D01*
X852322Y90627D01*
X840028Y96672D01*
X827074Y101041D01*
X813663Y103733D01*
X799998Y104648D01*
X786333Y103733D01*
X776325Y101752D01*
X772007Y101803D01*
X768096Y103682D01*
X764133Y106730D01*
X760425Y109118D01*
X756462Y111150D01*
X752398Y112877D01*
X748131Y114198D01*
X743813Y115163D01*
X739394Y115722D01*
X734771Y115925D01*
X102920Y115925D01*
X99415Y116535D01*
X96316Y118364D01*
X91643Y122377D01*
X82143Y128168D01*
X71882Y132435D01*
X61061Y135026D01*
X49987Y135890D01*
X38912Y135026D01*
X28092Y132435D01*
X17830Y128168D01*
X8331Y122377D01*
X-152Y115163D01*
X-10007Y103479D01*
X-13004Y101803D01*
X-16408Y101193D01*
X-21132Y101193D01*
X-21132Y78638D01*
X-21793Y75031D01*
X-23672Y71932D01*
X-26568Y69646D01*
X-30022Y68529D01*
X-33680Y68732D01*
X-38912Y70002D01*
X-49987Y70866D01*
X-61061Y70002D01*
X-66294Y68732D01*
X-69951Y68529D01*
X-73456Y69646D01*
X-76301Y71932D01*
X-78181Y75031D01*
X-78841Y78638D01*
X-78841Y101193D01*
X-114503Y101193D01*
X-113131Y97891D01*
X-107340Y88392D01*
X-100126Y79908D01*
X-91694Y72745D01*
X-89052Y69291D01*
X-88138Y65024D01*
X-89052Y60756D01*
X-91694Y57302D01*
X-96316Y53340D01*
X-99415Y51511D01*
X-102920Y50901D01*
X-124815Y50901D01*
X-128727Y51663D01*
X-131978Y53898D01*
X-313842Y235762D01*
X-317296Y238912D01*
X-320802Y241604D01*
X-324561Y243992D01*
X-328523Y246024D01*
X-332587Y247751D01*
X-336854Y249072D01*
X-341172Y250037D01*
X-345592Y250596D01*
X-350215Y250799D01*
X-499668Y250799D01*
X-504291Y250596D01*
X-508711Y250037D01*
X-513029Y249072D01*
X-517296Y247700D01*
X-521360Y246024D01*
X-525322Y243992D01*
X-529031Y241604D01*
X-532587Y238861D01*
X-535990Y235762D01*
X-705256Y66700D01*
X-708710Y64465D01*
X-712774Y63754D01*
X-716788Y64719D01*
X-720090Y67208D01*
X-726033Y73964D01*
X-736295Y83007D01*
X-747674Y90627D01*
X-759968Y96672D01*
X-772922Y101041D01*
X-786333Y103733D01*
X-799998Y104648D01*
X-813663Y103733D01*
X-827074Y101041D01*
X-840028Y96672D01*
X-852322Y90627D01*
X-863701Y83007D01*
X-873963Y73964D01*
X-883005Y63703D01*
X-890625Y52324D01*
X-896670Y40030D01*
X-901039Y27076D01*
X-903732Y13665D01*
X-904646Y0D01*
X-903732Y-13665D01*
X-901039Y-27076D01*
X-896670Y-40030D01*
X-890625Y-52324D01*
X-883005Y-63703D01*
X-873963Y-73964D01*
X-863701Y-83007D01*
X-852322Y-90627D01*
X-840028Y-96672D01*
X-827074Y-101041D01*
X-813663Y-103733D01*
X-799998Y-104648D01*
X-786333Y-103733D01*
X-772922Y-101041D01*
X-759968Y-96672D01*
X-747674Y-90627D01*
X-736295Y-83007D01*
X-726033Y-73964D01*
X-716991Y-63703D01*
X-711454Y-55422D01*
X-709269Y-53086D01*
X-706475Y-51511D01*
X-703326Y-50901D01*
X-695553Y-50698D01*
X-691184Y-50139D01*
X-686866Y-49174D01*
X-682599Y-47802D01*
X-678535Y-46126D01*
X-674573Y-44094D01*
X-670864Y-41706D01*
X-667308Y-38963D01*
X-663905Y-35864D01*
X-481787Y145999D01*
X-478485Y148234D01*
X-474624Y148996D01*
X-375310Y148996D01*
X-371398Y148234D01*
X-368147Y145999D01*
X-186283Y-35864D01*
X-182829Y-39014D01*
X-179324Y-41706D01*
X-175564Y-44094D01*
X-171602Y-46126D01*
X-167538Y-47853D01*
X-163271Y-49174D01*
X-158953Y-50139D01*
X-154533Y-50698D01*
X-149910Y-50901D01*
X-102920Y-50901D01*
X-99415Y-51511D01*
X-95605Y-53949D01*
X-92964Y-57505D01*
X-92049Y-61874D01*
X-93116Y-66192D01*
X-95859Y-69646D01*
X-99517Y-72542D01*
X-103784Y-76504D01*
X-456387Y-429107D01*
X-459689Y-431342D01*
X-463600Y-432104D01*
X-686003Y-432104D01*
X-690118Y-431241D01*
X-693521Y-428751D01*
X-695655Y-425094D01*
X-698042Y-417982D01*
X-701040Y-413156D01*
X-705154Y-409041D01*
X-710031Y-405993D01*
X-715518Y-404063D01*
X-721817Y-403352D01*
X-878179Y-403352D01*
X-884478Y-404063D01*
X-889965Y-405993D01*
X-894842Y-409041D01*
X-898956Y-413156D01*
X-902004Y-418033D01*
X-903935Y-423519D01*
X-904646Y-429818D01*
X-904646Y-586181D01*
X-903935Y-592480D01*
X-902004Y-597966D01*
X-898956Y-602843D01*
X-894842Y-606958D01*
X-889965Y-610006D01*
X-884478Y-611936D01*
G37*
G36*
X706120Y553720D02*
G01*
X754278Y553720D01*
X754278Y601878D01*
X747674Y598627D01*
X736295Y591007D01*
X726033Y581964D01*
X716991Y571703D01*
X709371Y560324D01*
G37*
G36*
X845718Y553720D02*
G01*
X893876Y553720D01*
X890625Y560324D01*
X883005Y571703D01*
X873963Y581964D01*
X863701Y591007D01*
X852322Y598627D01*
X845718Y601878D01*
G37*
G36*
X845718Y414121D02*
G01*
X852322Y417372D01*
X863701Y424992D01*
X873963Y434035D01*
X883005Y444296D01*
X890625Y455676D01*
X893876Y462280D01*
X845718Y462280D01*
G37*
G36*
X-799998Y-358648D02*
G01*
X-786333Y-357733D01*
X-772922Y-355041D01*
X-759968Y-350672D01*
X-747674Y-344627D01*
X-736295Y-337007D01*
X-726033Y-327964D01*
X-716991Y-317703D01*
X-709371Y-306324D01*
X-703326Y-294030D01*
X-698957Y-281076D01*
X-696264Y-267665D01*
X-695350Y-254000D01*
X-696264Y-240334D01*
X-698957Y-226923D01*
X-703326Y-213969D01*
X-709371Y-201676D01*
X-716991Y-190296D01*
X-726033Y-180035D01*
X-736295Y-170992D01*
X-747674Y-163372D01*
X-759968Y-157327D01*
X-772922Y-152958D01*
X-786333Y-150266D01*
X-799998Y-149352D01*
X-813663Y-150266D01*
X-827074Y-152958D01*
X-840028Y-157327D01*
X-852322Y-163372D01*
X-863701Y-170992D01*
X-873963Y-180035D01*
X-883005Y-190296D01*
X-890625Y-201676D01*
X-896670Y-213969D01*
X-901039Y-226923D01*
X-903732Y-240334D01*
X-904646Y-254000D01*
X-903732Y-267665D01*
X-901039Y-281076D01*
X-896670Y-294030D01*
X-890625Y-306324D01*
X-883005Y-317703D01*
X-873963Y-327964D01*
X-863701Y-337007D01*
X-852322Y-344627D01*
X-840028Y-350672D01*
X-827074Y-355041D01*
X-813663Y-357733D01*
G37*
G36*
X754278Y414121D02*
G01*
X754278Y462280D01*
X706120Y462280D01*
X709371Y455676D01*
X716991Y444296D01*
X726033Y434035D01*
X736295Y424992D01*
X747674Y417372D01*
G37*
G36*
X845718Y299720D02*
G01*
X893876Y299720D01*
X890625Y306324D01*
X883005Y317703D01*
X873963Y327964D01*
X863701Y337007D01*
X852322Y344627D01*
X845718Y347878D01*
G37*
G36*
X-893876Y299720D02*
G01*
X-845718Y299720D01*
X-845718Y347878D01*
X-852322Y344627D01*
X-863701Y337007D01*
X-873963Y327964D01*
X-883005Y317703D01*
X-890625Y306324D01*
G37*
G36*
X-754278Y299720D02*
G01*
X-706120Y299720D01*
X-709371Y306324D01*
X-716991Y317703D01*
X-726033Y327964D01*
X-736295Y337007D01*
X-747674Y344627D01*
X-754278Y347878D01*
G37*
G36*
X706120Y299720D02*
G01*
X754278Y299720D01*
X754278Y347878D01*
X747674Y344627D01*
X736295Y337007D01*
X726033Y327964D01*
X716991Y317703D01*
X709371Y306324D01*
G37*
G36*
X-77622Y292100D02*
G01*
X21590Y292100D01*
X32308Y292912D01*
X42316Y295351D01*
X51866Y299313D01*
X60706Y304698D01*
X68580Y311404D01*
X75285Y319278D01*
X80670Y328066D01*
X84632Y337616D01*
X87071Y347675D01*
X87833Y357987D01*
X87071Y368300D01*
X84632Y378358D01*
X80670Y387908D01*
X75285Y396697D01*
X68580Y404571D01*
X60706Y411276D01*
X51866Y416661D01*
X42316Y420624D01*
X32308Y423062D01*
X21590Y423875D01*
X-17729Y423875D01*
X-21640Y424688D01*
X-24942Y426872D01*
X-141884Y543864D01*
X-145338Y547014D01*
X-148844Y549706D01*
X-152603Y552094D01*
X-156565Y554126D01*
X-160629Y555853D01*
X-164896Y557174D01*
X-169214Y558139D01*
X-173634Y558698D01*
X-178257Y558901D01*
X-703021Y558901D01*
X-706272Y559460D01*
X-709218Y560984D01*
X-711454Y563422D01*
X-716991Y571703D01*
X-726033Y581964D01*
X-736295Y591007D01*
X-747674Y598627D01*
X-759968Y604672D01*
X-772922Y609041D01*
X-786333Y611733D01*
X-799998Y612648D01*
X-813663Y611733D01*
X-827074Y609041D01*
X-840028Y604672D01*
X-852322Y598627D01*
X-863701Y591007D01*
X-873963Y581964D01*
X-883005Y571703D01*
X-890625Y560324D01*
X-896670Y548030D01*
X-901039Y535076D01*
X-903732Y521665D01*
X-904646Y508000D01*
X-903732Y494334D01*
X-901039Y480923D01*
X-896670Y467969D01*
X-890625Y455676D01*
X-883005Y444296D01*
X-873963Y434035D01*
X-863701Y424992D01*
X-852322Y417372D01*
X-840028Y411327D01*
X-827074Y406958D01*
X-813663Y404266D01*
X-799998Y403352D01*
X-786333Y404266D01*
X-772922Y406958D01*
X-759968Y411327D01*
X-747674Y417372D01*
X-736295Y424992D01*
X-726033Y434035D01*
X-716991Y444296D01*
X-711454Y452577D01*
X-709218Y455015D01*
X-706272Y456539D01*
X-703021Y457098D01*
X-203352Y457098D01*
X-199440Y456336D01*
X-196189Y454101D01*
X-139547Y397459D01*
X-137312Y394208D01*
X-136550Y390296D01*
X-137312Y386435D01*
X-140665Y378358D01*
X-143103Y368300D01*
X-143916Y357987D01*
X-143103Y347675D01*
X-140665Y337616D01*
X-136702Y328066D01*
X-131318Y319278D01*
X-124612Y311404D01*
X-116738Y304698D01*
X-107950Y299313D01*
X-98399Y295351D01*
X-88341Y292912D01*
G37*
G36*
X845718Y160121D02*
G01*
X852322Y163372D01*
X863701Y170992D01*
X873963Y180035D01*
X883005Y190296D01*
X890625Y201676D01*
X893876Y208279D01*
X845718Y208279D01*
G37*
G36*
X-754278Y160121D02*
G01*
X-747674Y163372D01*
X-736295Y170992D01*
X-726033Y180035D01*
X-716991Y190296D01*
X-709371Y201676D01*
X-706120Y208279D01*
X-754278Y208279D01*
G37*
G36*
X-21132Y158902D02*
G01*
X14528Y158902D01*
X13157Y162204D01*
X7366Y171704D01*
X152Y180187D01*
X-8331Y187401D01*
X-17830Y193192D01*
X-21132Y194564D01*
G37*
G36*
X-10566Y-2005888D02*
G01*
X20574Y-2005888D01*
X51663Y-2003958D01*
X82550Y-2000148D01*
X113182Y-1994407D01*
X143408Y-1986788D01*
X173075Y-1977339D01*
X202082Y-1966061D01*
X230378Y-1953056D01*
X257810Y-1938274D01*
X284276Y-1921865D01*
X309676Y-1903831D01*
X333959Y-1884273D01*
X356920Y-1863293D01*
X378612Y-1840890D01*
X398830Y-1817217D01*
X417576Y-1792325D01*
X434746Y-1766366D01*
X450291Y-1739341D01*
X464108Y-1711452D01*
X476199Y-1682750D01*
X486511Y-1653336D01*
X494995Y-1623364D01*
X501599Y-1592935D01*
X506272Y-1562150D01*
X509117Y-1531112D01*
X509981Y-1500022D01*
X509117Y-1468882D01*
X506272Y-1437843D01*
X501599Y-1407058D01*
X494995Y-1376629D01*
X486511Y-1346657D01*
X476199Y-1317244D01*
X464108Y-1288542D01*
X450291Y-1260652D01*
X434746Y-1233627D01*
X417576Y-1207668D01*
X398830Y-1182776D01*
X378612Y-1159103D01*
X356920Y-1136700D01*
X333959Y-1115720D01*
X309676Y-1096162D01*
X284276Y-1078128D01*
X257810Y-1061720D01*
X230378Y-1046937D01*
X202082Y-1033932D01*
X173075Y-1022654D01*
X143408Y-1013206D01*
X113182Y-1005586D01*
X82550Y-999845D01*
X51663Y-996035D01*
X20574Y-994105D01*
X-10566Y-994105D01*
X-41656Y-996035D01*
X-72593Y-999845D01*
X-103174Y-1005586D01*
X-133400Y-1013206D01*
X-163068Y-1022654D01*
X-192125Y-1033932D01*
X-220370Y-1046937D01*
X-247802Y-1061720D01*
X-274269Y-1078128D01*
X-299720Y-1096162D01*
X-323951Y-1115720D01*
X-346964Y-1136700D01*
X-368604Y-1159103D01*
X-388823Y-1182776D01*
X-407568Y-1207668D01*
X-424738Y-1233627D01*
X-440283Y-1260652D01*
X-454101Y-1288542D01*
X-466191Y-1317244D01*
X-476504Y-1346657D01*
X-484987Y-1376629D01*
X-491591Y-1407058D01*
X-496316Y-1437843D01*
X-499109Y-1468882D01*
X-499973Y-1499971D01*
X-499109Y-1531112D01*
X-496316Y-1562150D01*
X-491591Y-1592935D01*
X-484987Y-1623364D01*
X-476504Y-1653336D01*
X-466191Y-1682750D01*
X-454101Y-1711452D01*
X-440283Y-1739341D01*
X-424738Y-1766366D01*
X-407568Y-1792325D01*
X-388823Y-1817217D01*
X-368604Y-1840890D01*
X-346964Y-1863293D01*
X-323951Y-1884273D01*
X-299720Y-1903831D01*
X-274269Y-1921865D01*
X-247802Y-1938274D01*
X-220370Y-1953056D01*
X-192125Y-1966061D01*
X-163068Y-1977339D01*
X-133400Y-1986788D01*
X-103174Y-1994407D01*
X-72593Y-2000148D01*
X-41656Y-2003958D01*
G37*
G36*
X-845718Y160121D02*
G01*
X-845718Y208279D01*
X-893876Y208279D01*
X-890625Y201676D01*
X-883005Y190296D01*
X-873963Y180035D01*
X-863701Y170992D01*
X-852322Y163372D01*
G37*
G36*
X754278Y160121D02*
G01*
X754278Y208279D01*
X706120Y208279D01*
X709371Y201676D01*
X716991Y190296D01*
X726033Y180035D01*
X736295Y170992D01*
X747674Y163372D01*
G37*
G36*
X-114503Y158902D02*
G01*
X-78841Y158902D01*
X-78841Y194564D01*
X-82143Y193192D01*
X-91643Y187401D01*
X-100126Y180187D01*
X-107340Y171704D01*
X-113131Y162204D01*
G37*

%LPD*%
D10*
X49987Y65023D02*
G01*
X734974Y65023D01*
X799998Y0D01*
X-27939Y357886D02*
G01*
X-178054Y508000D01*
X-799998Y508000D01*
D11*
X-799998Y-508000D02*
G01*
X-427939Y-508000D01*
X-49987Y-130047D01*
X799998Y-254000D02*
G01*
X73964Y-254000D01*
X-49987Y-130047D01*
X799998Y-254000D02*
G01*
X799998Y-508000D01*
D10*
X-800100Y0D02*
G01*
X-700023Y0D01*
X-499871Y199897D01*
X-350012Y199897D01*
X-150113Y0D01*
X-50037Y0D01*
D12*
G01*
X-799998Y508000D03*
G01*
X-799998Y254000D03*
G01*
X-799998Y0D03*
G01*
X-799998Y-254000D03*
D13*
G01*
X-799998Y-508000D03*
D12*
G01*
X799998Y508000D03*
G01*
X799998Y254000D03*
G01*
X799998Y0D03*
G01*
X799998Y-254000D03*
D13*
G01*
X799998Y-508000D03*
D14*
G01*
X-49987Y-130047D03*
G01*
X49987Y-65023D03*
G01*
X-49987Y0D03*
G01*
X49987Y65023D03*
G01*
X-49987Y130047D03*
D15*
G01*
X-28016Y-357886D03*
G01*
X-28016Y357886D03*
D16*
G01*
X0Y-799998D03*
G01*
X299999Y-799998D03*
G01*
X-299999Y-799998D03*
G01*
X-499998Y-99999D03*
G01*
X-299999Y-99999D03*
G01*
X399999Y-99999D03*
G01*
X599998Y-99999D03*
G01*
X-599998Y-799998D03*
G01*
X599998Y-799998D03*
G01*
X-599998Y799998D03*
G01*
X-299999Y799998D03*
G01*
X0Y799998D03*
G01*
X299999Y799998D03*
G01*
X599998Y799998D03*
G01*
X0Y-599998D03*
G01*
X299999Y-599998D03*
G01*
X-299999Y-599998D03*
M02*
