G04 Layer: BottomSilkscreenLayer*
G04 EasyEDA v6.5.20, 2023-08-22 18:50:07*
G04 a67cddfb3fce44daa9051d46cbbcc19f,10*
G04 Gerber Generator version 0.2*
G04 Scale: 100 percent, Rotated: No, Reflected: No *
G04 Dimensions in millimeters *
G04 leading zeros omitted , absolute positions ,4 integer and 5 decimal *
%FSLAX45Y45*%
%MOMM*%

%ADD10C,0.2032*%
%ADD11C,0.1524*%
%ADD12C,0.2030*%
%ADD13C,0.5000*%

%LPD*%
D10*
X599998Y-199090D02*
G01*
X563636Y-294546D01*
X527270Y-199090D02*
G01*
X563636Y-294546D01*
X497271Y-199090D02*
G01*
X497271Y-267271D01*
X492726Y-280908D01*
X483636Y-289999D01*
X469999Y-294546D01*
X460908Y-294546D01*
X447271Y-289999D01*
X438180Y-280908D01*
X433636Y-267271D01*
X433636Y-199090D01*
X339999Y-212727D02*
G01*
X349089Y-203636D01*
X362727Y-199090D01*
X380908Y-199090D01*
X394545Y-203636D01*
X403636Y-212727D01*
X403636Y-221818D01*
X399089Y-230908D01*
X394545Y-235452D01*
X385452Y-239999D01*
X358180Y-249090D01*
X349089Y-253636D01*
X344545Y-258180D01*
X339999Y-267271D01*
X339999Y-280908D01*
X349089Y-289999D01*
X362727Y-294546D01*
X380908Y-294546D01*
X394545Y-289999D01*
X403636Y-280908D01*
X309999Y-199090D02*
G01*
X309999Y-294546D01*
X309999Y-199090D02*
G01*
X269090Y-199090D01*
X255452Y-203636D01*
X250908Y-208180D01*
X246362Y-217271D01*
X246362Y-226362D01*
X250908Y-235452D01*
X255452Y-239999D01*
X269090Y-244546D01*
X309999Y-244546D02*
G01*
X269090Y-244546D01*
X255452Y-249090D01*
X250908Y-253636D01*
X246362Y-262727D01*
X246362Y-276362D01*
X250908Y-285452D01*
X255452Y-289999D01*
X269090Y-294546D01*
X309999Y-294546D01*
X599998Y50909D02*
G01*
X599998Y-44546D01*
X569998Y50909D02*
G01*
X569998Y-44546D01*
X569998Y50909D02*
G01*
X538180Y50909D01*
X524545Y46362D01*
X515452Y37271D01*
X510908Y28181D01*
X506361Y14546D01*
X506361Y-8181D01*
X510908Y-21818D01*
X515452Y-30909D01*
X524545Y-39999D01*
X538180Y-44546D01*
X569998Y-44546D01*
X531929Y278279D02*
G01*
X536247Y287169D01*
X545391Y296313D01*
X554535Y300885D01*
X572823Y300885D01*
X581713Y296313D01*
X590857Y287169D01*
X595429Y278279D01*
X600001Y264563D01*
X600001Y241703D01*
X595429Y228241D01*
X590857Y219097D01*
X581713Y209953D01*
X572823Y205381D01*
X554535Y205381D01*
X545391Y209953D01*
X536247Y219097D01*
X531929Y228241D01*
X531929Y241703D01*
X554535Y241703D02*
G01*
X531929Y241703D01*
X501703Y300885D02*
G01*
X501703Y205381D01*
X501703Y300885D02*
G01*
X438203Y205381D01*
X438203Y300885D02*
G01*
X438203Y205381D01*
X408231Y300885D02*
G01*
X408231Y205381D01*
X408231Y300885D02*
G01*
X376481Y300885D01*
X362765Y296313D01*
X353621Y287169D01*
X349049Y278279D01*
X344477Y264563D01*
X344477Y241703D01*
X349049Y228241D01*
X353621Y219097D01*
X362765Y209953D01*
X376481Y205381D01*
X408231Y205381D01*
X531817Y528180D02*
G01*
X536361Y537270D01*
X545452Y546361D01*
X554545Y550908D01*
X572726Y550908D01*
X581817Y546361D01*
X590908Y537270D01*
X595452Y528180D01*
X599998Y514545D01*
X599998Y491817D01*
X595452Y478180D01*
X590908Y469089D01*
X581817Y459999D01*
X572726Y455452D01*
X554545Y455452D01*
X545452Y459999D01*
X536361Y469089D01*
X531817Y478180D01*
X531817Y491817D01*
X554545Y491817D02*
G01*
X531817Y491817D01*
X501817Y550908D02*
G01*
X501817Y455452D01*
X501817Y550908D02*
G01*
X438180Y455452D01*
X438180Y550908D02*
G01*
X438180Y455452D01*
X408180Y550908D02*
G01*
X408180Y455452D01*
X408180Y550908D02*
G01*
X376361Y550908D01*
X362727Y546361D01*
X353636Y537270D01*
X349089Y528180D01*
X344545Y514545D01*
X344545Y491817D01*
X349089Y478180D01*
X353636Y469089D01*
X362727Y459999D01*
X376361Y455452D01*
X408180Y455452D01*
X-300908Y569815D02*
G01*
X-293636Y577090D01*
X-282727Y580725D01*
X-268180Y580725D01*
X-257271Y577090D01*
X-249999Y569815D01*
X-249999Y562543D01*
X-253636Y555271D01*
X-257271Y551634D01*
X-264546Y547999D01*
X-286362Y540725D01*
X-293636Y537090D01*
X-297271Y533453D01*
X-300908Y526181D01*
X-300908Y515272D01*
X-293636Y508000D01*
X-282727Y504362D01*
X-268180Y504362D01*
X-257271Y508000D01*
X-249999Y515272D01*
X-324909Y580725D02*
G01*
X-324909Y504362D01*
X-375818Y580725D02*
G01*
X-375818Y504362D01*
X-324909Y544362D02*
G01*
X-375818Y544362D01*
X-399816Y580725D02*
G01*
X-399816Y504362D01*
X-423816Y580725D02*
G01*
X-423816Y504362D01*
X-423816Y580725D02*
G01*
X-471088Y580725D01*
X-423816Y544362D02*
G01*
X-452907Y544362D01*
X-423816Y504362D02*
G01*
X-471088Y504362D01*
X-495089Y580725D02*
G01*
X-495089Y504362D01*
X-495089Y504362D02*
G01*
X-538726Y504362D01*
X-562726Y580725D02*
G01*
X-562726Y504362D01*
X-562726Y580725D02*
G01*
X-588180Y580725D01*
X-599089Y577090D01*
X-606361Y569815D01*
X-609998Y562543D01*
X-613636Y551634D01*
X-613636Y533453D01*
X-609998Y522544D01*
X-606361Y515272D01*
X-599089Y508000D01*
X-588180Y504362D01*
X-562726Y504362D01*
X-418081Y328282D02*
G01*
X-413763Y337172D01*
X-404619Y346316D01*
X-395475Y350888D01*
X-377187Y350888D01*
X-368297Y346316D01*
X-359153Y337172D01*
X-354581Y328282D01*
X-350009Y314566D01*
X-350009Y291706D01*
X-354581Y278244D01*
X-359153Y269100D01*
X-368297Y259956D01*
X-377187Y255384D01*
X-395475Y255384D01*
X-404619Y259956D01*
X-413763Y269100D01*
X-418081Y278244D01*
X-418081Y291706D01*
X-395475Y291706D02*
G01*
X-418081Y291706D01*
X-448307Y350888D02*
G01*
X-448307Y255384D01*
X-448307Y350888D02*
G01*
X-511807Y255384D01*
X-511807Y350888D02*
G01*
X-511807Y255384D01*
X-541779Y350888D02*
G01*
X-541779Y255384D01*
X-541779Y350888D02*
G01*
X-573529Y350888D01*
X-587245Y346316D01*
X-596389Y337172D01*
X-600961Y328282D01*
X-605533Y314566D01*
X-605533Y291706D01*
X-600961Y278244D01*
X-596389Y269100D01*
X-587245Y259956D01*
X-573529Y255384D01*
X-541779Y255384D01*
X-449999Y100909D02*
G01*
X-449999Y5453D01*
X-449999Y100909D02*
G01*
X-481817Y100909D01*
X-495452Y96362D01*
X-504545Y87271D01*
X-509089Y78181D01*
X-513636Y64546D01*
X-513636Y41818D01*
X-509089Y28181D01*
X-504545Y19090D01*
X-495452Y9999D01*
X-481817Y5453D01*
X-449999Y5453D01*
X-584545Y87271D02*
G01*
X-584545Y5453D01*
X-543636Y46362D02*
G01*
X-625452Y46362D01*
X-449999Y-149090D02*
G01*
X-449999Y-244546D01*
X-449999Y-149090D02*
G01*
X-481817Y-149090D01*
X-495452Y-153636D01*
X-504545Y-162727D01*
X-509089Y-171818D01*
X-513636Y-185453D01*
X-513636Y-208180D01*
X-509089Y-221818D01*
X-504545Y-230908D01*
X-495452Y-239999D01*
X-481817Y-244546D01*
X-449999Y-244546D01*
X-543636Y-203636D02*
G01*
X-625452Y-203636D01*
X-249999Y-399089D02*
G01*
X-286362Y-494545D01*
X-322727Y-399089D02*
G01*
X-286362Y-494545D01*
X-352727Y-399089D02*
G01*
X-352727Y-494545D01*
X-352727Y-399089D02*
G01*
X-393636Y-399089D01*
X-407271Y-403636D01*
X-411817Y-408180D01*
X-416361Y-417271D01*
X-416361Y-426361D01*
X-411817Y-435452D01*
X-407271Y-439999D01*
X-393636Y-444545D01*
X-352727Y-444545D02*
G01*
X-393636Y-444545D01*
X-407271Y-449089D01*
X-411817Y-453636D01*
X-416361Y-462727D01*
X-416361Y-476361D01*
X-411817Y-485452D01*
X-407271Y-489999D01*
X-393636Y-494545D01*
X-352727Y-494545D01*
X-446361Y-399089D02*
G01*
X-446361Y-467271D01*
X-450908Y-480908D01*
X-459999Y-489999D01*
X-473636Y-494545D01*
X-482727Y-494545D01*
X-496361Y-489999D01*
X-505452Y-480908D01*
X-509998Y-467271D01*
X-509998Y-399089D01*
X-603636Y-412727D02*
G01*
X-594545Y-403636D01*
X-580908Y-399089D01*
X-562726Y-399089D01*
X-549089Y-403636D01*
X-539998Y-412727D01*
X-539998Y-421817D01*
X-544545Y-430908D01*
X-549089Y-435452D01*
X-558180Y-439999D01*
X-585452Y-449089D01*
X-594545Y-453636D01*
X-599089Y-458180D01*
X-603636Y-467271D01*
X-603636Y-480908D01*
X-594545Y-489999D01*
X-580908Y-494545D01*
X-562726Y-494545D01*
X-549089Y-489999D01*
X-539998Y-480908D01*
X599998Y-449168D02*
G01*
X563676Y-544672D01*
X527354Y-449168D02*
G01*
X563676Y-544672D01*
X497382Y-449168D02*
G01*
X497382Y-544672D01*
X497382Y-449168D02*
G01*
X456488Y-449168D01*
X442772Y-453740D01*
X438200Y-458312D01*
X433628Y-467202D01*
X433628Y-476346D01*
X438200Y-485490D01*
X442772Y-490062D01*
X456488Y-494634D01*
X497382Y-494634D02*
G01*
X456488Y-494634D01*
X442772Y-499206D01*
X438200Y-503524D01*
X433628Y-512668D01*
X433628Y-526384D01*
X438200Y-535528D01*
X442772Y-540100D01*
X456488Y-544672D01*
X497382Y-544672D01*
X403656Y-449168D02*
G01*
X403656Y-517240D01*
X399084Y-530956D01*
X389940Y-540100D01*
X376478Y-544672D01*
X367334Y-544672D01*
X353618Y-540100D01*
X344474Y-530956D01*
X339902Y-517240D01*
X339902Y-449168D01*
X246430Y-462630D02*
G01*
X255574Y-453740D01*
X269036Y-449168D01*
X287324Y-449168D01*
X300786Y-453740D01*
X309930Y-462630D01*
X309930Y-471774D01*
X305358Y-480918D01*
X300786Y-485490D01*
X291896Y-490062D01*
X264464Y-499206D01*
X255574Y-503524D01*
X251002Y-508096D01*
X246430Y-517240D01*
X246430Y-530956D01*
X255574Y-540100D01*
X269036Y-544672D01*
X287324Y-544672D01*
X300786Y-540100D01*
X309930Y-530956D01*
D11*
X-752068Y-684682D02*
G01*
X-752068Y-767740D01*
X-746734Y-783488D01*
X-741654Y-788568D01*
X-731240Y-793648D01*
X-720826Y-793648D01*
X-710412Y-788568D01*
X-705078Y-783488D01*
X-699998Y-767740D01*
X-699998Y-757326D01*
X-786358Y-705510D02*
G01*
X-796518Y-700176D01*
X-812266Y-684682D01*
X-812266Y-793648D01*
X847928Y-684682D02*
G01*
X847928Y-767740D01*
X853262Y-783488D01*
X858342Y-788568D01*
X868756Y-793648D01*
X879170Y-793648D01*
X889584Y-788568D01*
X894918Y-783488D01*
X899998Y-767740D01*
X899998Y-757326D01*
X808558Y-710590D02*
G01*
X808558Y-705510D01*
X803478Y-695096D01*
X798144Y-689762D01*
X787730Y-684682D01*
X766902Y-684682D01*
X756488Y-689762D01*
X751408Y-695096D01*
X746328Y-705510D01*
X746328Y-715924D01*
X751408Y-726338D01*
X761822Y-741832D01*
X813638Y-793648D01*
X740994Y-793648D01*
D10*
X-672998Y-444500D02*
G01*
X-672998Y-635000D01*
X-926998Y-635000D01*
X-926998Y635000D01*
X-672998Y635000D01*
D12*
X-672998Y635000D02*
G01*
X-672998Y-444500D01*
D10*
X926998Y-444500D02*
G01*
X926998Y-635000D01*
X672998Y-635000D01*
X672998Y635000D01*
X926998Y635000D01*
D12*
X926998Y635000D02*
G01*
X926998Y-444500D01*
D13*
G75*
G01
X499999Y-1499997D02*
G03X499999Y-1499997I-499999J0D01*
G75*
G01
X499999Y1499997D02*
G03X499999Y1499997I-499999J0D01*
M02*
