G04 Layer: BottomLayer*
G04 EasyEDA v6.5.20, 2023-08-22 18:50:07*
G04 a67cddfb3fce44daa9051d46cbbcc19f,10*
G04 Gerber Generator version 0.2*
G04 Scale: 100 percent, Rotated: No, Reflected: No *
G04 Dimensions in millimeters *
G04 leading zeros omitted , absolute positions ,4 integer and 5 decimal *
%FSLAX45Y45*%
%MOMM*%

%AMMACRO1*21,1,$1,$2,0,0,$3*%
%ADD10C,0.5000*%
%ADD11C,1.5748*%
%ADD12MACRO1,1.5748X1.5748X90.0000*%
%ADD13C,0.9000*%
%ADD14O,1.7999964X0.7999984*%
%ADD15C,0.6096*%
%ADD16C,0.0196*%

%LPD*%
G36*
X-304Y-2074062D02*
G01*
X-33680Y-2073097D01*
X-66954Y-2070150D01*
X-99974Y-2065274D01*
X-132689Y-2058517D01*
X-164947Y-2049881D01*
X-196646Y-2039366D01*
X-227634Y-2027021D01*
X-257911Y-2012848D01*
X-287274Y-1996998D01*
X-315722Y-1979472D01*
X-343052Y-1960270D01*
X-369214Y-1939543D01*
X-394157Y-1917344D01*
X-417779Y-1893722D01*
X-439978Y-1868779D01*
X-460654Y-1842566D01*
X-479806Y-1815185D01*
X-497332Y-1786788D01*
X-513130Y-1757375D01*
X-527253Y-1727098D01*
X-539546Y-1696059D01*
X-550062Y-1664360D01*
X-558647Y-1632102D01*
X-565404Y-1599387D01*
X-570230Y-1566367D01*
X-573125Y-1533093D01*
X-574040Y-1499311D01*
X-574040Y-1000607D01*
X-574852Y-994105D01*
X-576935Y-988568D01*
X-580491Y-983437D01*
X-583488Y-980389D01*
X-587095Y-977747D01*
X-592632Y-975258D01*
X-600100Y-974090D01*
X-898753Y-974090D01*
X-911250Y-973124D01*
X-921512Y-970787D01*
X-931367Y-966978D01*
X-940612Y-961847D01*
X-948994Y-955446D01*
X-956360Y-947877D01*
X-962609Y-939393D01*
X-967587Y-930046D01*
X-971194Y-920140D01*
X-973328Y-909828D01*
X-974090Y-898702D01*
X-974090Y898753D01*
X-973124Y911250D01*
X-970787Y921512D01*
X-966978Y931367D01*
X-961847Y940612D01*
X-955446Y948994D01*
X-947877Y956360D01*
X-939393Y962609D01*
X-930046Y967587D01*
X-920140Y971194D01*
X-909828Y973328D01*
X-898753Y974090D01*
X-600608Y974039D01*
X-594106Y974801D01*
X-588568Y976934D01*
X-583438Y980440D01*
X-580390Y983487D01*
X-577748Y987094D01*
X-575259Y992632D01*
X-574090Y1000099D01*
X-574090Y1499514D01*
X-573074Y1533652D01*
X-570179Y1566926D01*
X-565302Y1599996D01*
X-558546Y1632661D01*
X-549859Y1664919D01*
X-539343Y1696618D01*
X-526999Y1727657D01*
X-512876Y1757883D01*
X-497027Y1787296D01*
X-479450Y1815693D01*
X-460298Y1843024D01*
X-439572Y1869236D01*
X-417372Y1894179D01*
X-393750Y1917750D01*
X-368757Y1939950D01*
X-342595Y1960625D01*
X-315214Y1979777D01*
X-286766Y1997303D01*
X-257403Y2013153D01*
X-227126Y2027224D01*
X-196088Y2039569D01*
X-164338Y2050034D01*
X-132080Y2058670D01*
X-99415Y2065375D01*
X-66344Y2070201D01*
X-33070Y2073097D01*
X304Y2074062D01*
X33680Y2073097D01*
X66954Y2070150D01*
X99974Y2065274D01*
X132689Y2058517D01*
X164947Y2049881D01*
X196646Y2039366D01*
X227634Y2027021D01*
X257911Y2012848D01*
X287274Y1996998D01*
X315722Y1979472D01*
X343052Y1960321D01*
X369214Y1939594D01*
X394157Y1917344D01*
X417779Y1893722D01*
X439978Y1868779D01*
X460654Y1842566D01*
X479806Y1815185D01*
X497332Y1786788D01*
X513130Y1757375D01*
X527253Y1727098D01*
X539546Y1696059D01*
X550062Y1664360D01*
X558647Y1632102D01*
X565404Y1599387D01*
X570230Y1566367D01*
X573125Y1533093D01*
X574040Y1499311D01*
X574040Y1000607D01*
X574852Y994105D01*
X576935Y988568D01*
X580491Y983437D01*
X583488Y980389D01*
X587095Y977747D01*
X592632Y975258D01*
X600100Y974090D01*
X898753Y974090D01*
X911250Y973124D01*
X921512Y970787D01*
X931367Y966978D01*
X940612Y961847D01*
X948994Y955446D01*
X956360Y947877D01*
X962609Y939393D01*
X967587Y930046D01*
X971194Y920140D01*
X973328Y909828D01*
X974090Y898753D01*
X974090Y-898702D01*
X973124Y-911250D01*
X970787Y-921512D01*
X966978Y-931367D01*
X961847Y-940612D01*
X955446Y-948994D01*
X947877Y-956360D01*
X939393Y-962609D01*
X930046Y-967587D01*
X920140Y-971194D01*
X909828Y-973328D01*
X898753Y-974090D01*
X600760Y-974090D01*
X594258Y-974902D01*
X588721Y-976985D01*
X583590Y-980541D01*
X580542Y-983538D01*
X577900Y-987145D01*
X575411Y-992682D01*
X574243Y-1000150D01*
X574090Y-1499463D01*
X573074Y-1533652D01*
X570179Y-1566926D01*
X565302Y-1599996D01*
X558546Y-1632661D01*
X549859Y-1664919D01*
X539343Y-1696618D01*
X526999Y-1727657D01*
X512876Y-1757883D01*
X497027Y-1787296D01*
X479450Y-1815693D01*
X460298Y-1843024D01*
X439572Y-1869236D01*
X417372Y-1894179D01*
X393750Y-1917750D01*
X368757Y-1939950D01*
X342595Y-1960625D01*
X315214Y-1979777D01*
X286766Y-1997303D01*
X257403Y-2013153D01*
X227126Y-2027224D01*
X196088Y-2039569D01*
X164338Y-2050034D01*
X132080Y-2058670D01*
X99415Y-2065375D01*
X66344Y-2070201D01*
X33070Y-2073097D01*
G37*

%LPC*%
G36*
X-10566Y994105D02*
G01*
X20574Y994105D01*
X51663Y996035D01*
X82550Y999845D01*
X113182Y1005586D01*
X143408Y1013206D01*
X173075Y1022654D01*
X202082Y1033932D01*
X230378Y1046937D01*
X257810Y1061720D01*
X284276Y1078128D01*
X309676Y1096162D01*
X333959Y1115720D01*
X356920Y1136700D01*
X378612Y1159103D01*
X398830Y1182776D01*
X417576Y1207668D01*
X434746Y1233627D01*
X450291Y1260652D01*
X464108Y1288542D01*
X476199Y1317244D01*
X486511Y1346657D01*
X494995Y1376629D01*
X501599Y1407058D01*
X506272Y1437843D01*
X509117Y1468882D01*
X509981Y1499971D01*
X509117Y1531112D01*
X506272Y1562150D01*
X501599Y1592935D01*
X494995Y1623364D01*
X486511Y1653336D01*
X476199Y1682750D01*
X464108Y1711452D01*
X450291Y1739341D01*
X434746Y1766366D01*
X417576Y1792325D01*
X398830Y1817217D01*
X378612Y1840890D01*
X356920Y1863293D01*
X333959Y1884273D01*
X309676Y1903831D01*
X284276Y1921865D01*
X257810Y1938274D01*
X230378Y1953056D01*
X202082Y1966061D01*
X173075Y1977339D01*
X143408Y1986788D01*
X113182Y1994407D01*
X82550Y2000148D01*
X51663Y2003958D01*
X20574Y2005888D01*
X-10566Y2005888D01*
X-41656Y2003958D01*
X-72593Y2000148D01*
X-103174Y1994407D01*
X-133400Y1986788D01*
X-163068Y1977339D01*
X-192125Y1966061D01*
X-220370Y1953056D01*
X-247802Y1938274D01*
X-274269Y1921865D01*
X-299720Y1903831D01*
X-323951Y1884273D01*
X-346964Y1863293D01*
X-368604Y1840890D01*
X-388823Y1817217D01*
X-407568Y1792325D01*
X-424738Y1766366D01*
X-440283Y1739341D01*
X-454101Y1711452D01*
X-466191Y1682750D01*
X-476504Y1653336D01*
X-484987Y1623364D01*
X-491591Y1592935D01*
X-496316Y1562150D01*
X-499109Y1531112D01*
X-499973Y1500022D01*
X-499109Y1468882D01*
X-496316Y1437843D01*
X-491591Y1407058D01*
X-484987Y1376629D01*
X-476504Y1346657D01*
X-466191Y1317244D01*
X-454101Y1288542D01*
X-440283Y1260652D01*
X-424738Y1233627D01*
X-407568Y1207668D01*
X-388823Y1182776D01*
X-368604Y1159103D01*
X-346964Y1136700D01*
X-323951Y1115720D01*
X-299720Y1096162D01*
X-274269Y1078128D01*
X-247802Y1061720D01*
X-220370Y1046937D01*
X-192125Y1033932D01*
X-163068Y1022654D01*
X-133400Y1013206D01*
X-103174Y1005586D01*
X-72593Y999845D01*
X-41656Y996035D01*
G37*
G36*
X-878179Y-612648D02*
G01*
X-721817Y-612648D01*
X-715518Y-611936D01*
X-710031Y-610006D01*
X-705154Y-606958D01*
X-701040Y-602843D01*
X-697992Y-597966D01*
X-696061Y-592480D01*
X-695350Y-586181D01*
X-695350Y-429818D01*
X-696061Y-423519D01*
X-697992Y-418033D01*
X-701040Y-413156D01*
X-705154Y-409041D01*
X-710031Y-405993D01*
X-715518Y-404063D01*
X-721817Y-403352D01*
X-878179Y-403352D01*
X-884478Y-404063D01*
X-889965Y-405993D01*
X-894842Y-409041D01*
X-898956Y-413156D01*
X-902004Y-418033D01*
X-903935Y-423519D01*
X-904646Y-429818D01*
X-904646Y-586181D01*
X-903935Y-592480D01*
X-902004Y-597966D01*
X-898956Y-602843D01*
X-894842Y-606958D01*
X-889965Y-610006D01*
X-884478Y-611936D01*
G37*
G36*
X721817Y-612648D02*
G01*
X878179Y-612648D01*
X884478Y-611936D01*
X889965Y-610006D01*
X894842Y-606958D01*
X898956Y-602843D01*
X902004Y-597966D01*
X903935Y-592480D01*
X904646Y-586181D01*
X904646Y-429818D01*
X903935Y-423519D01*
X902004Y-418033D01*
X898956Y-413156D01*
X894842Y-409041D01*
X889965Y-405993D01*
X884478Y-404063D01*
X878179Y-403352D01*
X721817Y-403352D01*
X715518Y-404063D01*
X710031Y-405993D01*
X705154Y-409041D01*
X701040Y-413156D01*
X697992Y-418033D01*
X696061Y-423519D01*
X695350Y-429818D01*
X695350Y-586181D01*
X696061Y-592480D01*
X697992Y-597966D01*
X701040Y-602843D01*
X705154Y-606958D01*
X710031Y-610006D01*
X715518Y-611936D01*
G37*
G36*
X-77622Y-423875D02*
G01*
X21590Y-423875D01*
X32308Y-423062D01*
X42316Y-420624D01*
X51866Y-416661D01*
X63855Y-409397D01*
X67360Y-408787D01*
X141782Y-408787D01*
X146405Y-408584D01*
X150825Y-408025D01*
X155143Y-407060D01*
X159410Y-405739D01*
X163474Y-404012D01*
X167436Y-401980D01*
X171196Y-399592D01*
X174701Y-396900D01*
X178155Y-393750D01*
X285800Y-286105D01*
X288950Y-282651D01*
X291642Y-279146D01*
X294030Y-275386D01*
X296062Y-271424D01*
X297789Y-267360D01*
X299110Y-263093D01*
X300075Y-258775D01*
X300634Y-254355D01*
X300837Y-249732D01*
X300837Y249732D01*
X300634Y254355D01*
X300075Y258775D01*
X299110Y263093D01*
X297789Y267360D01*
X296062Y271424D01*
X294030Y275386D01*
X291642Y279146D01*
X288950Y282651D01*
X285800Y286105D01*
X178155Y393750D01*
X174701Y396900D01*
X171196Y399592D01*
X167436Y401980D01*
X163474Y404012D01*
X159410Y405739D01*
X155143Y407060D01*
X150825Y408025D01*
X146405Y408584D01*
X141782Y408787D01*
X67360Y408787D01*
X63855Y409397D01*
X51866Y416661D01*
X42316Y420624D01*
X32308Y423062D01*
X21590Y423875D01*
X-77622Y423875D01*
X-88341Y423062D01*
X-98399Y420624D01*
X-107950Y416661D01*
X-116738Y411276D01*
X-124612Y404571D01*
X-131318Y396697D01*
X-136702Y387908D01*
X-140665Y378358D01*
X-143103Y368300D01*
X-143916Y357987D01*
X-143103Y347675D01*
X-140665Y337616D01*
X-136702Y328066D01*
X-131318Y319278D01*
X-124612Y311404D01*
X-116738Y304698D01*
X-107950Y299313D01*
X-98399Y295351D01*
X-88341Y292912D01*
X-77622Y292100D01*
X21590Y292100D01*
X32308Y292912D01*
X42316Y295351D01*
X51866Y299262D01*
X61772Y305460D01*
X64312Y306578D01*
X67106Y306984D01*
X116687Y306984D01*
X120599Y306222D01*
X123850Y303987D01*
X196037Y231800D01*
X198272Y228549D01*
X199034Y224637D01*
X199034Y-224637D01*
X198272Y-228549D01*
X196037Y-231800D01*
X123850Y-303987D01*
X120599Y-306222D01*
X116687Y-306984D01*
X67106Y-306984D01*
X64312Y-306578D01*
X61772Y-305460D01*
X51866Y-299262D01*
X45262Y-296519D01*
X41960Y-294335D01*
X39776Y-291033D01*
X38963Y-287172D01*
X39776Y-283260D01*
X41960Y-279958D01*
X85902Y-236067D01*
X89052Y-232613D01*
X91744Y-229108D01*
X94132Y-225348D01*
X96164Y-221386D01*
X97891Y-217322D01*
X99212Y-213055D01*
X100177Y-208737D01*
X100736Y-204317D01*
X100939Y-199694D01*
X100939Y-117906D01*
X101549Y-114401D01*
X103378Y-111302D01*
X107340Y-106680D01*
X113131Y-97180D01*
X117398Y-86918D01*
X119989Y-76098D01*
X120853Y-65024D01*
X119989Y-53949D01*
X117398Y-43129D01*
X113131Y-32867D01*
X107340Y-23368D01*
X100126Y-14884D01*
X91694Y-7721D01*
X89052Y-4267D01*
X88138Y0D01*
X89052Y4267D01*
X91694Y7721D01*
X100126Y14884D01*
X107340Y23368D01*
X113131Y32867D01*
X117398Y43129D01*
X119989Y53949D01*
X120853Y65024D01*
X119989Y76098D01*
X117398Y86918D01*
X113131Y97180D01*
X107340Y106680D01*
X100126Y115163D01*
X91643Y122377D01*
X82143Y128168D01*
X71882Y132435D01*
X61061Y135026D01*
X49987Y135890D01*
X38912Y135026D01*
X28092Y132435D01*
X17830Y128168D01*
X8331Y122377D01*
X-152Y115163D01*
X-10007Y103479D01*
X-13004Y101803D01*
X-16408Y101193D01*
X-21132Y101193D01*
X-21132Y78638D01*
X-21793Y75031D01*
X-23672Y71932D01*
X-26568Y69646D01*
X-30022Y68529D01*
X-33680Y68732D01*
X-38912Y70002D01*
X-49987Y70866D01*
X-61061Y70002D01*
X-66294Y68732D01*
X-69951Y68529D01*
X-73456Y69646D01*
X-76301Y71932D01*
X-78181Y75031D01*
X-78841Y78638D01*
X-78841Y101193D01*
X-114503Y101193D01*
X-113131Y97891D01*
X-107340Y88392D01*
X-100126Y79908D01*
X-91694Y72745D01*
X-89052Y69291D01*
X-88138Y65024D01*
X-89052Y60756D01*
X-91694Y57302D01*
X-100126Y50139D01*
X-107340Y41656D01*
X-113131Y32156D01*
X-117398Y21894D01*
X-119989Y11074D01*
X-120853Y0D01*
X-119989Y-11074D01*
X-117398Y-21894D01*
X-113131Y-32156D01*
X-107340Y-41656D01*
X-100126Y-50139D01*
X-91694Y-57302D01*
X-89052Y-60756D01*
X-88138Y-65024D01*
X-89052Y-69291D01*
X-91694Y-72745D01*
X-100126Y-79908D01*
X-107340Y-88392D01*
X-113131Y-97891D01*
X-117398Y-108153D01*
X-119989Y-118973D01*
X-120853Y-130048D01*
X-119989Y-141122D01*
X-117398Y-151942D01*
X-113131Y-162204D01*
X-107340Y-171704D01*
X-96469Y-184353D01*
X-95402Y-188315D01*
X-96012Y-192379D01*
X-98196Y-195884D01*
X-101549Y-198221D01*
X-105562Y-199034D01*
X-705713Y-199034D01*
X-709015Y-198475D01*
X-711911Y-196951D01*
X-714197Y-194513D01*
X-716991Y-190296D01*
X-726033Y-180035D01*
X-736295Y-170992D01*
X-747674Y-163372D01*
X-759968Y-157327D01*
X-772922Y-152958D01*
X-786333Y-150266D01*
X-799998Y-149352D01*
X-813663Y-150266D01*
X-827074Y-152958D01*
X-840028Y-157327D01*
X-852322Y-163372D01*
X-863701Y-170992D01*
X-873963Y-180035D01*
X-883005Y-190296D01*
X-890625Y-201676D01*
X-896670Y-213969D01*
X-901039Y-226923D01*
X-903732Y-240334D01*
X-904646Y-254000D01*
X-903732Y-267665D01*
X-901039Y-281076D01*
X-896670Y-294030D01*
X-890625Y-306324D01*
X-883005Y-317703D01*
X-873963Y-327964D01*
X-863701Y-337007D01*
X-852322Y-344627D01*
X-840028Y-350672D01*
X-827074Y-355041D01*
X-813663Y-357733D01*
X-799998Y-358648D01*
X-786333Y-357733D01*
X-772922Y-355041D01*
X-759968Y-350672D01*
X-747674Y-344627D01*
X-736295Y-337007D01*
X-726033Y-327964D01*
X-716991Y-317703D01*
X-708863Y-305409D01*
X-706577Y-302971D01*
X-703630Y-301396D01*
X-700379Y-300837D01*
X-137617Y-300837D01*
X-133858Y-301548D01*
X-130606Y-303631D01*
X-128371Y-306730D01*
X-127457Y-310489D01*
X-128016Y-314248D01*
X-129895Y-317601D01*
X-131318Y-319278D01*
X-136702Y-328066D01*
X-140665Y-337616D01*
X-143103Y-347675D01*
X-143916Y-357987D01*
X-143103Y-368300D01*
X-140665Y-378358D01*
X-136702Y-387908D01*
X-131318Y-396697D01*
X-124612Y-404571D01*
X-116738Y-411276D01*
X-107950Y-416661D01*
X-98399Y-420624D01*
X-88341Y-423062D01*
G37*
G36*
X799998Y-358648D02*
G01*
X813663Y-357733D01*
X827074Y-355041D01*
X840028Y-350672D01*
X852322Y-344627D01*
X863701Y-337007D01*
X873963Y-327964D01*
X883005Y-317703D01*
X890625Y-306324D01*
X896670Y-294030D01*
X901039Y-281076D01*
X903732Y-267665D01*
X904646Y-254000D01*
X903732Y-240334D01*
X901039Y-226923D01*
X896670Y-213969D01*
X890625Y-201676D01*
X883005Y-190296D01*
X873963Y-180035D01*
X863701Y-170992D01*
X852322Y-163372D01*
X840028Y-157327D01*
X827074Y-152958D01*
X813663Y-150266D01*
X799998Y-149352D01*
X786333Y-150266D01*
X772922Y-152958D01*
X759968Y-157327D01*
X747674Y-163372D01*
X736295Y-170992D01*
X726033Y-180035D01*
X716991Y-190296D01*
X709371Y-201676D01*
X703326Y-213969D01*
X698957Y-226923D01*
X696264Y-240334D01*
X695350Y-254000D01*
X696264Y-267665D01*
X698957Y-281076D01*
X703326Y-294030D01*
X709371Y-306324D01*
X716991Y-317703D01*
X726033Y-327964D01*
X736295Y-337007D01*
X747674Y-344627D01*
X759968Y-350672D01*
X772922Y-355041D01*
X786333Y-357733D01*
G37*
G36*
X845718Y553720D02*
G01*
X893876Y553720D01*
X890625Y560324D01*
X883005Y571703D01*
X873963Y581964D01*
X863701Y591007D01*
X852322Y598627D01*
X845718Y601878D01*
G37*
G36*
X706120Y553720D02*
G01*
X754278Y553720D01*
X754278Y601878D01*
X747674Y598627D01*
X736295Y591007D01*
X726033Y581964D01*
X716991Y571703D01*
X709371Y560324D01*
G37*
G36*
X845718Y414121D02*
G01*
X852322Y417372D01*
X863701Y424992D01*
X873963Y434035D01*
X883005Y444296D01*
X890625Y455676D01*
X893876Y462280D01*
X845718Y462280D01*
G37*
G36*
X799998Y-104648D02*
G01*
X813663Y-103733D01*
X827074Y-101041D01*
X840028Y-96672D01*
X852322Y-90627D01*
X863701Y-83007D01*
X873963Y-73964D01*
X883005Y-63703D01*
X890625Y-52324D01*
X896670Y-40030D01*
X901039Y-27076D01*
X903732Y-13665D01*
X904646Y0D01*
X903732Y13665D01*
X901039Y27076D01*
X896670Y40030D01*
X890625Y52324D01*
X883005Y63703D01*
X873963Y73964D01*
X863701Y83007D01*
X852322Y90627D01*
X840028Y96672D01*
X827074Y101041D01*
X813663Y103733D01*
X799998Y104648D01*
X786333Y103733D01*
X772922Y101041D01*
X759968Y96672D01*
X747674Y90627D01*
X736295Y83007D01*
X726033Y73964D01*
X716991Y63703D01*
X709371Y52324D01*
X703326Y40030D01*
X698957Y27076D01*
X696264Y13665D01*
X695350Y0D01*
X696264Y-13665D01*
X698957Y-27076D01*
X703326Y-40030D01*
X709371Y-52324D01*
X716991Y-63703D01*
X726033Y-73964D01*
X736295Y-83007D01*
X747674Y-90627D01*
X759968Y-96672D01*
X772922Y-101041D01*
X786333Y-103733D01*
G37*
G36*
X-799998Y-104648D02*
G01*
X-786333Y-103733D01*
X-772922Y-101041D01*
X-759968Y-96672D01*
X-747674Y-90627D01*
X-736295Y-83007D01*
X-726033Y-73964D01*
X-716991Y-63703D01*
X-709371Y-52324D01*
X-703326Y-40030D01*
X-698957Y-27076D01*
X-696264Y-13665D01*
X-695350Y0D01*
X-696264Y13665D01*
X-698957Y27076D01*
X-703326Y40030D01*
X-709371Y52324D01*
X-716991Y63703D01*
X-726033Y73964D01*
X-736295Y83007D01*
X-747674Y90627D01*
X-759968Y96672D01*
X-772922Y101041D01*
X-786333Y103733D01*
X-799998Y104648D01*
X-813663Y103733D01*
X-827074Y101041D01*
X-840028Y96672D01*
X-852322Y90627D01*
X-863701Y83007D01*
X-873963Y73964D01*
X-883005Y63703D01*
X-890625Y52324D01*
X-896670Y40030D01*
X-901039Y27076D01*
X-903732Y13665D01*
X-904646Y0D01*
X-903732Y-13665D01*
X-901039Y-27076D01*
X-896670Y-40030D01*
X-890625Y-52324D01*
X-883005Y-63703D01*
X-873963Y-73964D01*
X-863701Y-83007D01*
X-852322Y-90627D01*
X-840028Y-96672D01*
X-827074Y-101041D01*
X-813663Y-103733D01*
G37*
G36*
X754278Y414121D02*
G01*
X754278Y462280D01*
X706120Y462280D01*
X709371Y455676D01*
X716991Y444296D01*
X726033Y434035D01*
X736295Y424992D01*
X747674Y417372D01*
G37*
G36*
X-799998Y403352D02*
G01*
X-786333Y404266D01*
X-772922Y406958D01*
X-759968Y411327D01*
X-747674Y417372D01*
X-736295Y424992D01*
X-726033Y434035D01*
X-716991Y444296D01*
X-709371Y455676D01*
X-703326Y467969D01*
X-698957Y480923D01*
X-696264Y494334D01*
X-695350Y508000D01*
X-696264Y521665D01*
X-698957Y535076D01*
X-703326Y548030D01*
X-709371Y560324D01*
X-716991Y571703D01*
X-726033Y581964D01*
X-736295Y591007D01*
X-747674Y598627D01*
X-759968Y604672D01*
X-772922Y609041D01*
X-786333Y611733D01*
X-799998Y612648D01*
X-813663Y611733D01*
X-827074Y609041D01*
X-840028Y604672D01*
X-852322Y598627D01*
X-863701Y591007D01*
X-873963Y581964D01*
X-883005Y571703D01*
X-890625Y560324D01*
X-896670Y548030D01*
X-901039Y535076D01*
X-903732Y521665D01*
X-904646Y508000D01*
X-903732Y494334D01*
X-901039Y480923D01*
X-896670Y467969D01*
X-890625Y455676D01*
X-883005Y444296D01*
X-873963Y434035D01*
X-863701Y424992D01*
X-852322Y417372D01*
X-840028Y411327D01*
X-827074Y406958D01*
X-813663Y404266D01*
G37*
G36*
X-114503Y158902D02*
G01*
X-78841Y158902D01*
X-78841Y194564D01*
X-82143Y193192D01*
X-91643Y187401D01*
X-100126Y180187D01*
X-107340Y171704D01*
X-113131Y162204D01*
G37*
G36*
X-21132Y158902D02*
G01*
X14528Y158902D01*
X13157Y162204D01*
X7366Y171704D01*
X152Y180187D01*
X-8331Y187401D01*
X-17830Y193192D01*
X-21132Y194564D01*
G37*
G36*
X-10566Y-2005888D02*
G01*
X20574Y-2005888D01*
X51663Y-2003958D01*
X82550Y-2000148D01*
X113182Y-1994407D01*
X143408Y-1986788D01*
X173075Y-1977339D01*
X202082Y-1966061D01*
X230378Y-1953056D01*
X257810Y-1938274D01*
X284276Y-1921865D01*
X309676Y-1903831D01*
X333959Y-1884273D01*
X356920Y-1863293D01*
X378612Y-1840890D01*
X398830Y-1817217D01*
X417576Y-1792325D01*
X434746Y-1766366D01*
X450291Y-1739341D01*
X464108Y-1711452D01*
X476199Y-1682750D01*
X486511Y-1653336D01*
X494995Y-1623364D01*
X501599Y-1592935D01*
X506272Y-1562150D01*
X509117Y-1531112D01*
X509981Y-1500022D01*
X509117Y-1468882D01*
X506272Y-1437843D01*
X501599Y-1407058D01*
X494995Y-1376629D01*
X486511Y-1346657D01*
X476199Y-1317244D01*
X464108Y-1288542D01*
X450291Y-1260652D01*
X434746Y-1233627D01*
X417576Y-1207668D01*
X398830Y-1182776D01*
X378612Y-1159103D01*
X356920Y-1136700D01*
X333959Y-1115720D01*
X309676Y-1096162D01*
X284276Y-1078128D01*
X257810Y-1061720D01*
X230378Y-1046937D01*
X202082Y-1033932D01*
X173075Y-1022654D01*
X143408Y-1013206D01*
X113182Y-1005586D01*
X82550Y-999845D01*
X51663Y-996035D01*
X20574Y-994105D01*
X-10566Y-994105D01*
X-41656Y-996035D01*
X-72593Y-999845D01*
X-103174Y-1005586D01*
X-133400Y-1013206D01*
X-163068Y-1022654D01*
X-192125Y-1033932D01*
X-220370Y-1046937D01*
X-247802Y-1061720D01*
X-274269Y-1078128D01*
X-299720Y-1096162D01*
X-323951Y-1115720D01*
X-346964Y-1136700D01*
X-368604Y-1159103D01*
X-388823Y-1182776D01*
X-407568Y-1207668D01*
X-424738Y-1233627D01*
X-440283Y-1260652D01*
X-454101Y-1288542D01*
X-466191Y-1317244D01*
X-476504Y-1346657D01*
X-484987Y-1376629D01*
X-491591Y-1407058D01*
X-496316Y-1437843D01*
X-499109Y-1468882D01*
X-499973Y-1499971D01*
X-499109Y-1531112D01*
X-496316Y-1562150D01*
X-491591Y-1592935D01*
X-484987Y-1623364D01*
X-476504Y-1653336D01*
X-466191Y-1682750D01*
X-454101Y-1711452D01*
X-440283Y-1739341D01*
X-424738Y-1766366D01*
X-407568Y-1792325D01*
X-388823Y-1817217D01*
X-368604Y-1840890D01*
X-346964Y-1863293D01*
X-323951Y-1884273D01*
X-299720Y-1903831D01*
X-274269Y-1921865D01*
X-247802Y-1938274D01*
X-220370Y-1953056D01*
X-192125Y-1966061D01*
X-163068Y-1977339D01*
X-133400Y-1986788D01*
X-103174Y-1994407D01*
X-72593Y-2000148D01*
X-41656Y-2003958D01*
G37*
G36*
X-845718Y160121D02*
G01*
X-845718Y208279D01*
X-893876Y208279D01*
X-890625Y201676D01*
X-883005Y190296D01*
X-873963Y180035D01*
X-863701Y170992D01*
X-852322Y163372D01*
G37*
G36*
X-754278Y160121D02*
G01*
X-747674Y163372D01*
X-736295Y170992D01*
X-726033Y180035D01*
X-716991Y190296D01*
X-709371Y201676D01*
X-706120Y208279D01*
X-754278Y208279D01*
G37*
G36*
X845718Y160121D02*
G01*
X852322Y163372D01*
X863701Y170992D01*
X873963Y180035D01*
X883005Y190296D01*
X890625Y201676D01*
X893876Y208279D01*
X845718Y208279D01*
G37*
G36*
X-754278Y299720D02*
G01*
X-706120Y299720D01*
X-709371Y306324D01*
X-716991Y317703D01*
X-726033Y327964D01*
X-736295Y337007D01*
X-747674Y344627D01*
X-754278Y347878D01*
G37*
G36*
X706120Y299720D02*
G01*
X754278Y299720D01*
X754278Y347878D01*
X747674Y344627D01*
X736295Y337007D01*
X726033Y327964D01*
X716991Y317703D01*
X709371Y306324D01*
G37*
G36*
X-893876Y299720D02*
G01*
X-845718Y299720D01*
X-845718Y347878D01*
X-852322Y344627D01*
X-863701Y337007D01*
X-873963Y327964D01*
X-883005Y317703D01*
X-890625Y306324D01*
G37*
G36*
X845718Y299720D02*
G01*
X893876Y299720D01*
X890625Y306324D01*
X883005Y317703D01*
X873963Y327964D01*
X863701Y337007D01*
X852322Y344627D01*
X845718Y347878D01*
G37*
G36*
X754278Y160121D02*
G01*
X754278Y208279D01*
X706120Y208279D01*
X709371Y201676D01*
X716991Y190296D01*
X726033Y180035D01*
X736295Y170992D01*
X747674Y163372D01*
G37*

%LPD*%
D10*
X-27939Y-357886D02*
G01*
X141986Y-357886D01*
X249936Y-249936D01*
X249936Y249936D01*
X141986Y357886D01*
X-27939Y357886D01*
X50037Y-65023D02*
G01*
X50037Y-199897D01*
X0Y-249936D01*
X-796036Y-249936D01*
X-800100Y-254000D01*
D11*
G01*
X-799998Y508000D03*
G01*
X-799998Y254000D03*
G01*
X-799998Y0D03*
G01*
X-799998Y-254000D03*
D12*
G01*
X-799998Y-508000D03*
D11*
G01*
X799998Y508000D03*
G01*
X799998Y254000D03*
G01*
X799998Y0D03*
G01*
X799998Y-254000D03*
D12*
G01*
X799998Y-508000D03*
D13*
G01*
X-49987Y-130047D03*
G01*
X49987Y-65023D03*
G01*
X-49987Y0D03*
G01*
X49987Y65023D03*
G01*
X-49987Y130047D03*
D14*
G01*
X-28016Y-357886D03*
G01*
X-28016Y357886D03*
D15*
G01*
X0Y-799998D03*
G01*
X299999Y-799998D03*
G01*
X-299999Y-799998D03*
G01*
X-499998Y-99999D03*
G01*
X-299999Y-99999D03*
G01*
X399999Y-99999D03*
G01*
X599998Y-99999D03*
G01*
X-599998Y-799998D03*
G01*
X599998Y-799998D03*
G01*
X-599998Y799998D03*
G01*
X-299999Y799998D03*
G01*
X0Y799998D03*
G01*
X299999Y799998D03*
G01*
X599998Y799998D03*
G01*
X0Y-599998D03*
G01*
X299999Y-599998D03*
G01*
X-299999Y-599998D03*
M02*
