M48
METRIC,LZ,000.000
;FILE_FORMAT=3:3
;TYPE=PLATED
;Layer: PTH_Through_Via
;EasyEDA v6.5.20, 2023-08-22 18:50:07
;a67cddfb3fce44daa9051d46cbbcc19f,10
;Gerber Generator version 0.2
;Holesize 1 = 0.305 mm
T01C0.305
;Holesize 2 = 0.306 mm
T02C0.306
%
G05
G90
T01
X-011250Y-013500
T02
X-012928Y007427
X-010428Y007427
X-010428Y004928
X-010428Y002427
X-007928Y007427
X-007928Y004928
X-007928Y002427
X-007928Y-002573
X-005428Y007427
X-005428Y004928
X-005428Y-000072
X-005428Y-002573
X-002928Y009928
X-002928Y007427
X-000428Y007427
X-000428Y-002573
X002072Y007427
X002072Y-002573
X004571Y009928
X004571Y007427
X004571Y004928
X007072Y007427
X007072Y-000072
X-011228Y-009475
X-006228Y-009475
X-003728Y-006975
X-003728Y-009475
X-001228Y-009475
X001272Y-009475
X003772Y-006975
X003772Y-009475
X006272Y-006975
X008772Y-004475
X008772Y-006975
M30
