G04 Layer: BottomLayer*
G04 EasyEDA v6.5.20, 2023-08-22 18:50:07*
G04 a67cddfb3fce44daa9051d46cbbcc19f,10*
G04 Gerber Generator version 0.2*
G04 Scale: 100 percent, Rotated: No, Reflected: No *
G04 Dimensions in millimeters *
G04 leading zeros omitted , absolute positions ,4 integer and 5 decimal *
%FSLAX45Y45*%
%MOMM*%

%ADD10C,1.5748*%
%ADD11R,1.5748X1.5748*%
%ADD12O,2.0999958X1.1999976*%
%ADD13C,0.6096*%
%ADD14C,0.6100*%
%ADD15C,0.0185*%

%LPD*%
G36*
X-304Y-2074062D02*
G01*
X-33680Y-2073097D01*
X-66954Y-2070150D01*
X-99974Y-2065274D01*
X-132689Y-2058517D01*
X-164947Y-2049881D01*
X-196646Y-2039366D01*
X-227634Y-2027021D01*
X-257911Y-2012848D01*
X-287274Y-1996998D01*
X-315722Y-1979472D01*
X-343052Y-1960270D01*
X-369214Y-1939543D01*
X-394157Y-1917344D01*
X-417779Y-1893722D01*
X-439978Y-1868779D01*
X-460654Y-1842566D01*
X-479806Y-1815185D01*
X-497332Y-1786788D01*
X-513130Y-1757375D01*
X-527253Y-1727098D01*
X-539546Y-1696059D01*
X-550062Y-1664360D01*
X-558647Y-1632102D01*
X-565404Y-1599387D01*
X-570230Y-1566367D01*
X-573125Y-1533093D01*
X-574090Y-1499870D01*
X-575056Y-1493418D01*
X-577342Y-1487881D01*
X-580390Y-1483563D01*
X-583742Y-1480108D01*
X-588518Y-1476806D01*
X-594106Y-1474673D01*
X-600252Y-1473962D01*
X-1363980Y-1473962D01*
X-1367891Y-1473200D01*
X-1371142Y-1470964D01*
X-1373378Y-1467713D01*
X-1374140Y-1463802D01*
X-1374140Y963930D01*
X-1373378Y967790D01*
X-1371142Y971092D01*
X-1367840Y973328D01*
X-1363980Y974090D01*
X-600557Y973836D01*
X-594055Y974598D01*
X-588518Y976731D01*
X-583387Y980236D01*
X-580339Y983284D01*
X-577697Y986891D01*
X-575208Y992428D01*
X-574040Y999896D01*
X-574090Y1500428D01*
X-573074Y1533652D01*
X-570179Y1566926D01*
X-565302Y1599996D01*
X-558546Y1632661D01*
X-549859Y1664919D01*
X-539343Y1696618D01*
X-526999Y1727657D01*
X-512876Y1757883D01*
X-497027Y1787296D01*
X-479450Y1815693D01*
X-460298Y1843024D01*
X-439572Y1869236D01*
X-417372Y1894179D01*
X-393750Y1917750D01*
X-368757Y1939950D01*
X-342595Y1960625D01*
X-315214Y1979777D01*
X-286766Y1997303D01*
X-257403Y2013153D01*
X-227126Y2027224D01*
X-196088Y2039569D01*
X-164338Y2050034D01*
X-132080Y2058670D01*
X-99415Y2065375D01*
X-66344Y2070201D01*
X-33070Y2073097D01*
X304Y2074062D01*
X33680Y2073097D01*
X66954Y2070150D01*
X99974Y2065274D01*
X132689Y2058517D01*
X164947Y2049881D01*
X196646Y2039366D01*
X227634Y2027021D01*
X257911Y2012848D01*
X287274Y1996998D01*
X315722Y1979472D01*
X343052Y1960321D01*
X369214Y1939594D01*
X394157Y1917344D01*
X417779Y1893722D01*
X439978Y1868779D01*
X460654Y1842566D01*
X479806Y1815185D01*
X497332Y1786788D01*
X513130Y1757375D01*
X527253Y1727098D01*
X539546Y1696059D01*
X550062Y1664360D01*
X558647Y1632102D01*
X565404Y1599387D01*
X570230Y1566367D01*
X573125Y1533093D01*
X574090Y1499514D01*
X574090Y1000506D01*
X574903Y994003D01*
X576986Y988466D01*
X580542Y983335D01*
X583590Y980287D01*
X587146Y977646D01*
X592683Y975156D01*
X600151Y973937D01*
X963930Y974090D01*
X967790Y973328D01*
X971092Y971092D01*
X973328Y967790D01*
X974090Y963930D01*
X974090Y347827D01*
X973328Y343916D01*
X971092Y340664D01*
X967841Y338429D01*
X963930Y337667D01*
X960018Y338429D01*
X956767Y340664D01*
X949960Y347421D01*
X940155Y354736D01*
X929436Y360629D01*
X917956Y364896D01*
X905967Y367487D01*
X893368Y368401D01*
X804113Y368401D01*
X791514Y367487D01*
X779526Y364896D01*
X768045Y360629D01*
X757326Y354736D01*
X747522Y347421D01*
X738835Y338734D01*
X731469Y328930D01*
X725627Y318160D01*
X721360Y306679D01*
X718718Y294741D01*
X717854Y282498D01*
X718718Y270256D01*
X721360Y258317D01*
X725627Y246837D01*
X731469Y236067D01*
X738835Y226263D01*
X747522Y217576D01*
X757326Y210261D01*
X768045Y204368D01*
X779526Y200101D01*
X791514Y197510D01*
X804113Y196596D01*
X893368Y196596D01*
X905967Y197510D01*
X917956Y200101D01*
X929436Y204368D01*
X940155Y210261D01*
X949960Y217576D01*
X956767Y224383D01*
X960018Y226567D01*
X963930Y227329D01*
X967841Y226567D01*
X971092Y224383D01*
X973328Y221081D01*
X974090Y217170D01*
X974090Y-217170D01*
X973328Y-221081D01*
X971092Y-224383D01*
X967841Y-226567D01*
X963930Y-227329D01*
X960018Y-226567D01*
X956767Y-224383D01*
X949960Y-217576D01*
X940155Y-210261D01*
X929436Y-204368D01*
X917956Y-200101D01*
X905967Y-197510D01*
X893368Y-196596D01*
X804113Y-196596D01*
X791514Y-197510D01*
X779526Y-200101D01*
X768045Y-204368D01*
X757326Y-210261D01*
X747522Y-217576D01*
X738835Y-226263D01*
X731469Y-236067D01*
X725627Y-246837D01*
X721360Y-258317D01*
X718718Y-270256D01*
X717854Y-282498D01*
X718718Y-294741D01*
X721360Y-306679D01*
X725627Y-318160D01*
X731469Y-328930D01*
X738835Y-338734D01*
X747522Y-347421D01*
X757326Y-354736D01*
X768045Y-360629D01*
X779526Y-364896D01*
X791514Y-367487D01*
X804113Y-368401D01*
X893368Y-368401D01*
X905967Y-367487D01*
X917956Y-364896D01*
X929436Y-360629D01*
X940155Y-354736D01*
X949960Y-347421D01*
X956767Y-340664D01*
X960018Y-338429D01*
X963930Y-337667D01*
X967841Y-338429D01*
X971092Y-340664D01*
X973328Y-343916D01*
X974090Y-347827D01*
X974090Y-963930D01*
X973328Y-967841D01*
X971092Y-971143D01*
X967841Y-973328D01*
X963930Y-974090D01*
X600608Y-974242D01*
X594106Y-975004D01*
X588568Y-977137D01*
X583438Y-980643D01*
X580390Y-983691D01*
X577748Y-987298D01*
X575259Y-992835D01*
X574090Y-1000302D01*
X574090Y-1499463D01*
X573074Y-1533652D01*
X570179Y-1566926D01*
X565302Y-1599996D01*
X558546Y-1632661D01*
X549859Y-1664919D01*
X539343Y-1696618D01*
X526999Y-1727657D01*
X512876Y-1757883D01*
X497027Y-1787296D01*
X479450Y-1815693D01*
X460298Y-1843024D01*
X439572Y-1869236D01*
X417372Y-1894179D01*
X393750Y-1917750D01*
X368757Y-1939950D01*
X342595Y-1960625D01*
X315214Y-1979777D01*
X286766Y-1997303D01*
X257403Y-2013153D01*
X227126Y-2027224D01*
X196088Y-2039569D01*
X164338Y-2050034D01*
X132080Y-2058670D01*
X99415Y-2065375D01*
X66344Y-2070201D01*
X33070Y-2073097D01*
G37*

%LPC*%
G36*
X-10566Y994105D02*
G01*
X20574Y994105D01*
X51663Y996035D01*
X82550Y999845D01*
X113182Y1005586D01*
X143408Y1013206D01*
X173075Y1022654D01*
X202082Y1033932D01*
X230378Y1046937D01*
X257810Y1061720D01*
X284276Y1078128D01*
X309676Y1096162D01*
X333959Y1115720D01*
X356920Y1136700D01*
X378612Y1159103D01*
X398830Y1182776D01*
X417576Y1207668D01*
X434746Y1233627D01*
X450291Y1260652D01*
X464108Y1288542D01*
X476199Y1317244D01*
X486511Y1346657D01*
X494995Y1376629D01*
X501599Y1407058D01*
X506272Y1437843D01*
X509117Y1468882D01*
X509981Y1499971D01*
X509117Y1531112D01*
X506272Y1562150D01*
X501599Y1592935D01*
X494995Y1623364D01*
X486511Y1653336D01*
X476199Y1682750D01*
X464108Y1711452D01*
X450291Y1739341D01*
X434746Y1766366D01*
X417576Y1792325D01*
X398830Y1817217D01*
X378612Y1840890D01*
X356920Y1863293D01*
X333959Y1884273D01*
X309676Y1903831D01*
X284276Y1921865D01*
X257810Y1938274D01*
X230378Y1953056D01*
X202082Y1966061D01*
X173075Y1977339D01*
X143408Y1986788D01*
X113182Y1994407D01*
X82550Y2000148D01*
X51663Y2003958D01*
X20574Y2005888D01*
X-10566Y2005888D01*
X-41656Y2003958D01*
X-72593Y2000148D01*
X-103174Y1994407D01*
X-133400Y1986788D01*
X-163068Y1977339D01*
X-192125Y1966061D01*
X-220370Y1953056D01*
X-247802Y1938274D01*
X-274269Y1921865D01*
X-299720Y1903831D01*
X-323951Y1884273D01*
X-346964Y1863293D01*
X-368604Y1840890D01*
X-388823Y1817217D01*
X-407568Y1792325D01*
X-424738Y1766366D01*
X-440283Y1739341D01*
X-454101Y1711452D01*
X-466191Y1682750D01*
X-476504Y1653336D01*
X-484987Y1623364D01*
X-491591Y1592935D01*
X-496316Y1562150D01*
X-499109Y1531112D01*
X-499973Y1500022D01*
X-499109Y1468882D01*
X-496316Y1437843D01*
X-491591Y1407058D01*
X-484987Y1376629D01*
X-476504Y1346657D01*
X-466191Y1317244D01*
X-454101Y1288542D01*
X-440283Y1260652D01*
X-424738Y1233627D01*
X-407568Y1207668D01*
X-388823Y1182776D01*
X-368604Y1159103D01*
X-346964Y1136700D01*
X-323951Y1115720D01*
X-299720Y1096162D01*
X-274269Y1078128D01*
X-247802Y1061720D01*
X-220370Y1046937D01*
X-192125Y1033932D01*
X-163068Y1022654D01*
X-133400Y1013206D01*
X-103174Y1005586D01*
X-72593Y999845D01*
X-41656Y996035D01*
G37*
G36*
X-1278178Y-520649D02*
G01*
X-1121816Y-520649D01*
X-1115517Y-519938D01*
X-1110030Y-518007D01*
X-1105154Y-514959D01*
X-1101039Y-510844D01*
X-1097991Y-505968D01*
X-1096060Y-500481D01*
X-1095349Y-494182D01*
X-1095349Y-337820D01*
X-1096060Y-331520D01*
X-1097991Y-326034D01*
X-1101039Y-321157D01*
X-1105154Y-317042D01*
X-1110030Y-313994D01*
X-1115517Y-312064D01*
X-1121816Y-311353D01*
X-1278178Y-311353D01*
X-1284478Y-312064D01*
X-1289964Y-313994D01*
X-1294841Y-317042D01*
X-1298956Y-321157D01*
X-1302004Y-326034D01*
X-1303934Y-331520D01*
X-1304645Y-337820D01*
X-1304645Y-494182D01*
X-1303934Y-500481D01*
X-1302004Y-505968D01*
X-1298956Y-510844D01*
X-1294841Y-514959D01*
X-1289964Y-518007D01*
X-1284478Y-519938D01*
G37*
G36*
X-276352Y-520649D02*
G01*
X-120040Y-520649D01*
X-113690Y-519938D01*
X-108254Y-518007D01*
X-103327Y-514959D01*
X-99263Y-510844D01*
X-96164Y-505968D01*
X-94284Y-500481D01*
X-93573Y-494182D01*
X-93573Y-337820D01*
X-94284Y-331520D01*
X-96164Y-326034D01*
X-99263Y-321157D01*
X-103327Y-317042D01*
X-108254Y-313944D01*
X-113690Y-312064D01*
X-120040Y-311353D01*
X-276352Y-311353D01*
X-282702Y-312064D01*
X-288137Y-313944D01*
X-293065Y-317042D01*
X-297129Y-321157D01*
X-300228Y-326034D01*
X-302158Y-331520D01*
X-302869Y-337820D01*
X-302869Y-494182D01*
X-302158Y-500481D01*
X-300228Y-505968D01*
X-297129Y-510844D01*
X-293065Y-514959D01*
X-288137Y-518007D01*
X-282702Y-519938D01*
G37*
G36*
X-1293876Y645718D02*
G01*
X-1245717Y645718D01*
X-1245717Y693877D01*
X-1252321Y690626D01*
X-1263700Y683006D01*
X-1273962Y673963D01*
X-1283004Y663702D01*
X-1290624Y652322D01*
G37*
G36*
X-1199997Y-266649D02*
G01*
X-1186332Y-265734D01*
X-1172921Y-263042D01*
X-1159967Y-258673D01*
X-1147673Y-252628D01*
X-1136294Y-245008D01*
X-1126032Y-235966D01*
X-1116990Y-225704D01*
X-1109370Y-214325D01*
X-1103325Y-202031D01*
X-1098956Y-189077D01*
X-1096264Y-175666D01*
X-1095349Y-162001D01*
X-1096264Y-148336D01*
X-1098956Y-134924D01*
X-1103325Y-121970D01*
X-1109370Y-109677D01*
X-1116990Y-98298D01*
X-1126032Y-88036D01*
X-1136294Y-78994D01*
X-1147673Y-71374D01*
X-1159967Y-65328D01*
X-1172921Y-60960D01*
X-1186332Y-58267D01*
X-1199997Y-57353D01*
X-1213662Y-58267D01*
X-1227074Y-60960D01*
X-1240028Y-65328D01*
X-1252321Y-71374D01*
X-1263700Y-78994D01*
X-1273962Y-88036D01*
X-1283004Y-98298D01*
X-1290624Y-109677D01*
X-1296670Y-121970D01*
X-1301038Y-134924D01*
X-1303731Y-148336D01*
X-1304645Y-162001D01*
X-1303731Y-175666D01*
X-1301038Y-189077D01*
X-1296670Y-202031D01*
X-1290624Y-214325D01*
X-1283004Y-225704D01*
X-1273962Y-235966D01*
X-1263700Y-245008D01*
X-1252321Y-252628D01*
X-1240028Y-258673D01*
X-1227074Y-263042D01*
X-1213662Y-265734D01*
G37*
G36*
X-198221Y-266598D02*
G01*
X-184556Y-265734D01*
X-171094Y-263042D01*
X-158140Y-258673D01*
X-145897Y-252577D01*
X-134518Y-245008D01*
X-124206Y-235966D01*
X-115214Y-225704D01*
X-107594Y-214325D01*
X-101549Y-202031D01*
X-97129Y-189077D01*
X-94488Y-175666D01*
X-93573Y-162001D01*
X-94488Y-148336D01*
X-97129Y-134924D01*
X-101549Y-121970D01*
X-107594Y-109677D01*
X-115214Y-98298D01*
X-124206Y-87985D01*
X-134518Y-78994D01*
X-145897Y-71374D01*
X-158140Y-65328D01*
X-171094Y-60909D01*
X-184556Y-58267D01*
X-198221Y-57353D01*
X-211836Y-58267D01*
X-225298Y-60909D01*
X-238252Y-65328D01*
X-250494Y-71374D01*
X-261874Y-78994D01*
X-272186Y-87985D01*
X-281228Y-98298D01*
X-288798Y-109677D01*
X-294843Y-121970D01*
X-299262Y-134924D01*
X-301904Y-148336D01*
X-302818Y-162001D01*
X-301904Y-175666D01*
X-299262Y-189077D01*
X-294843Y-202031D01*
X-288798Y-214325D01*
X-281228Y-225704D01*
X-272186Y-235966D01*
X-261874Y-245008D01*
X-250494Y-252577D01*
X-238252Y-258673D01*
X-225298Y-263042D01*
X-211836Y-265734D01*
G37*
G36*
X613765Y-253390D02*
G01*
X623011Y-252577D01*
X632002Y-250139D01*
X640435Y-246227D01*
X648055Y-240893D01*
X654608Y-234289D01*
X659942Y-226669D01*
X663905Y-218236D01*
X666292Y-209245D01*
X667105Y-199999D01*
X666292Y-190754D01*
X663905Y-181762D01*
X659942Y-173329D01*
X654608Y-165709D01*
X648055Y-159105D01*
X640435Y-153771D01*
X632002Y-149860D01*
X623011Y-147421D01*
X613765Y-146608D01*
X604469Y-147421D01*
X595477Y-149860D01*
X587044Y-153771D01*
X579424Y-159105D01*
X572871Y-165709D01*
X567537Y-173329D01*
X563575Y-181762D01*
X561187Y-190754D01*
X560374Y-199999D01*
X561187Y-209245D01*
X563575Y-218236D01*
X567537Y-226669D01*
X572871Y-234289D01*
X579424Y-240893D01*
X587044Y-246227D01*
X595477Y-250139D01*
X604469Y-252577D01*
G37*
G36*
X-1154277Y645718D02*
G01*
X-1106119Y645718D01*
X-1109370Y652322D01*
X-1116990Y663702D01*
X-1126032Y673963D01*
X-1136294Y683006D01*
X-1147673Y690626D01*
X-1154277Y693877D01*
G37*
G36*
X-1199997Y-12649D02*
G01*
X-1186332Y-11734D01*
X-1172921Y-9042D01*
X-1159967Y-4673D01*
X-1147673Y1371D01*
X-1136294Y8991D01*
X-1126032Y18034D01*
X-1116990Y28295D01*
X-1109370Y39674D01*
X-1103325Y51968D01*
X-1098956Y64922D01*
X-1096264Y78333D01*
X-1095349Y91998D01*
X-1096264Y105664D01*
X-1098956Y119075D01*
X-1103325Y132029D01*
X-1109370Y144322D01*
X-1116990Y155702D01*
X-1126032Y165963D01*
X-1136294Y175006D01*
X-1147673Y182626D01*
X-1159967Y188671D01*
X-1172921Y193040D01*
X-1186332Y195732D01*
X-1199997Y196646D01*
X-1213662Y195732D01*
X-1227074Y193040D01*
X-1240028Y188671D01*
X-1252321Y182626D01*
X-1263700Y175006D01*
X-1273962Y165963D01*
X-1283004Y155702D01*
X-1290624Y144322D01*
X-1296670Y132029D01*
X-1301038Y119075D01*
X-1303731Y105664D01*
X-1304645Y91998D01*
X-1303731Y78333D01*
X-1301038Y64922D01*
X-1296670Y51968D01*
X-1290624Y39674D01*
X-1283004Y28295D01*
X-1273962Y18034D01*
X-1263700Y8991D01*
X-1252321Y1371D01*
X-1240028Y-4673D01*
X-1227074Y-9042D01*
X-1213662Y-11734D01*
G37*
G36*
X-198221Y-12598D02*
G01*
X-184556Y-11734D01*
X-171094Y-9042D01*
X-158140Y-4673D01*
X-145897Y1422D01*
X-134518Y8991D01*
X-124206Y18034D01*
X-115214Y28295D01*
X-107594Y39674D01*
X-101549Y51968D01*
X-97129Y64922D01*
X-94488Y78333D01*
X-93573Y91998D01*
X-94488Y105664D01*
X-97129Y119075D01*
X-101549Y132029D01*
X-107594Y144322D01*
X-115214Y155702D01*
X-124206Y166014D01*
X-134518Y175006D01*
X-145897Y182626D01*
X-158140Y188671D01*
X-171094Y193090D01*
X-184556Y195732D01*
X-198221Y196646D01*
X-211836Y195732D01*
X-225298Y193090D01*
X-238252Y188671D01*
X-250494Y182626D01*
X-261874Y175006D01*
X-272186Y166014D01*
X-281228Y155702D01*
X-288798Y144322D01*
X-294843Y132029D01*
X-299262Y119075D01*
X-301904Y105664D01*
X-302818Y91998D01*
X-301904Y78333D01*
X-299262Y64922D01*
X-294843Y51968D01*
X-288798Y39674D01*
X-281228Y28295D01*
X-272186Y18034D01*
X-261874Y8991D01*
X-250494Y1422D01*
X-238252Y-4673D01*
X-225298Y-9042D01*
X-211836Y-11734D01*
G37*
G36*
X613765Y146608D02*
G01*
X623011Y147421D01*
X632002Y149860D01*
X640435Y153771D01*
X648055Y159105D01*
X654608Y165709D01*
X659942Y173329D01*
X663905Y181762D01*
X666292Y190754D01*
X667105Y199999D01*
X666292Y209245D01*
X663905Y218236D01*
X659942Y226669D01*
X654608Y234289D01*
X648055Y240893D01*
X640435Y246227D01*
X632002Y250139D01*
X623011Y252577D01*
X613765Y253390D01*
X604469Y252577D01*
X595477Y250139D01*
X587044Y246227D01*
X579424Y240893D01*
X572871Y234289D01*
X567537Y226669D01*
X563575Y218236D01*
X561187Y209245D01*
X560374Y199999D01*
X561187Y190754D01*
X563575Y181762D01*
X567537Y173329D01*
X572871Y165709D01*
X579424Y159105D01*
X587044Y153771D01*
X595477Y149860D01*
X604469Y147421D01*
G37*
G36*
X-1154277Y506120D02*
G01*
X-1147673Y509371D01*
X-1136294Y516991D01*
X-1126032Y526034D01*
X-1116990Y536295D01*
X-1109370Y547674D01*
X-1106119Y554278D01*
X-1154277Y554278D01*
G37*
G36*
X-1245717Y252120D02*
G01*
X-1245717Y300278D01*
X-1293876Y300278D01*
X-1290624Y293674D01*
X-1283004Y282295D01*
X-1273962Y272034D01*
X-1263700Y262991D01*
X-1252321Y255371D01*
G37*
G36*
X-1154277Y252120D02*
G01*
X-1147673Y255371D01*
X-1136294Y262991D01*
X-1126032Y272034D01*
X-1116990Y282295D01*
X-1109370Y293674D01*
X-1106119Y300278D01*
X-1154277Y300278D01*
G37*
G36*
X-10566Y-2005888D02*
G01*
X20574Y-2005888D01*
X51663Y-2003958D01*
X82550Y-2000148D01*
X113182Y-1994407D01*
X143408Y-1986788D01*
X173075Y-1977339D01*
X202082Y-1966061D01*
X230378Y-1953056D01*
X257810Y-1938274D01*
X284276Y-1921865D01*
X309676Y-1903831D01*
X333959Y-1884273D01*
X356920Y-1863293D01*
X378612Y-1840890D01*
X398830Y-1817217D01*
X417576Y-1792325D01*
X434746Y-1766366D01*
X450291Y-1739341D01*
X464108Y-1711452D01*
X476199Y-1682750D01*
X486511Y-1653336D01*
X494995Y-1623364D01*
X501599Y-1592935D01*
X506272Y-1562150D01*
X509117Y-1531112D01*
X509981Y-1500022D01*
X509117Y-1468882D01*
X506272Y-1437843D01*
X501599Y-1407058D01*
X494995Y-1376629D01*
X486511Y-1346657D01*
X476199Y-1317244D01*
X464108Y-1288542D01*
X450291Y-1260652D01*
X434746Y-1233627D01*
X417576Y-1207668D01*
X398830Y-1182776D01*
X378612Y-1159103D01*
X356920Y-1136700D01*
X333959Y-1115720D01*
X309676Y-1096162D01*
X284276Y-1078128D01*
X257810Y-1061720D01*
X230378Y-1046937D01*
X202082Y-1033932D01*
X173075Y-1022654D01*
X143408Y-1013206D01*
X113182Y-1005586D01*
X82550Y-999845D01*
X51663Y-996035D01*
X20574Y-994105D01*
X-10566Y-994105D01*
X-41656Y-996035D01*
X-72593Y-999845D01*
X-103174Y-1005586D01*
X-133400Y-1013206D01*
X-163068Y-1022654D01*
X-192125Y-1033932D01*
X-220370Y-1046937D01*
X-247802Y-1061720D01*
X-274269Y-1078128D01*
X-299720Y-1096162D01*
X-323951Y-1115720D01*
X-346964Y-1136700D01*
X-368604Y-1159103D01*
X-388823Y-1182776D01*
X-407568Y-1207668D01*
X-424738Y-1233627D01*
X-440283Y-1260652D01*
X-454101Y-1288542D01*
X-466191Y-1317244D01*
X-476504Y-1346657D01*
X-484987Y-1376629D01*
X-491591Y-1407058D01*
X-496316Y-1437843D01*
X-499109Y-1468882D01*
X-499973Y-1499971D01*
X-499109Y-1531112D01*
X-496316Y-1562150D01*
X-491591Y-1592935D01*
X-484987Y-1623364D01*
X-476504Y-1653336D01*
X-466191Y-1682750D01*
X-454101Y-1711452D01*
X-440283Y-1739341D01*
X-424738Y-1766366D01*
X-407568Y-1792325D01*
X-388823Y-1817217D01*
X-368604Y-1840890D01*
X-346964Y-1863293D01*
X-323951Y-1884273D01*
X-299720Y-1903831D01*
X-274269Y-1921865D01*
X-247802Y-1938274D01*
X-220370Y-1953056D01*
X-192125Y-1966061D01*
X-163068Y-1977339D01*
X-133400Y-1986788D01*
X-103174Y-1994407D01*
X-72593Y-2000148D01*
X-41656Y-2003958D01*
G37*
G36*
X-152501Y252171D02*
G01*
X-145897Y255422D01*
X-134518Y262991D01*
X-124206Y272034D01*
X-115214Y282295D01*
X-107594Y293674D01*
X-104343Y300278D01*
X-152501Y300278D01*
G37*
G36*
X-1245717Y506120D02*
G01*
X-1245717Y554278D01*
X-1293876Y554278D01*
X-1290624Y547674D01*
X-1283004Y536295D01*
X-1273962Y526034D01*
X-1263700Y516991D01*
X-1252321Y509371D01*
G37*
G36*
X-292049Y391718D02*
G01*
X-243941Y391718D01*
X-243941Y439877D01*
X-250494Y436626D01*
X-261874Y429006D01*
X-272186Y420014D01*
X-281228Y409701D01*
X-288798Y398322D01*
G37*
G36*
X-1154277Y391718D02*
G01*
X-1106119Y391718D01*
X-1109370Y398322D01*
X-1116990Y409701D01*
X-1126032Y419963D01*
X-1136294Y429006D01*
X-1147673Y436626D01*
X-1154277Y439877D01*
G37*
G36*
X-152501Y391718D02*
G01*
X-104343Y391718D01*
X-107594Y398322D01*
X-115214Y409701D01*
X-124206Y420014D01*
X-134518Y429006D01*
X-145897Y436626D01*
X-152501Y439877D01*
G37*
G36*
X-1293876Y391718D02*
G01*
X-1245717Y391718D01*
X-1245717Y439877D01*
X-1252321Y436626D01*
X-1263700Y429006D01*
X-1273962Y419963D01*
X-1283004Y409701D01*
X-1290624Y398322D01*
G37*
G36*
X-198221Y495401D02*
G01*
X-184556Y496265D01*
X-171094Y498957D01*
X-158140Y503326D01*
X-145897Y509422D01*
X-134518Y516991D01*
X-124206Y526034D01*
X-115214Y536295D01*
X-107594Y547674D01*
X-101549Y559968D01*
X-97129Y572922D01*
X-94488Y586333D01*
X-93573Y599998D01*
X-94488Y613664D01*
X-97129Y627075D01*
X-101549Y640029D01*
X-107594Y652322D01*
X-115214Y663702D01*
X-124206Y674014D01*
X-134518Y683006D01*
X-145897Y690626D01*
X-158140Y696671D01*
X-171094Y701090D01*
X-184556Y703732D01*
X-198221Y704646D01*
X-211836Y703732D01*
X-225298Y701090D01*
X-238252Y696671D01*
X-250494Y690626D01*
X-261874Y683006D01*
X-272186Y674014D01*
X-281228Y663702D01*
X-288798Y652322D01*
X-294843Y640029D01*
X-299262Y627075D01*
X-301904Y613664D01*
X-302818Y599998D01*
X-301904Y586333D01*
X-299262Y572922D01*
X-294843Y559968D01*
X-288798Y547674D01*
X-281228Y536295D01*
X-272186Y526034D01*
X-261874Y516991D01*
X-250494Y509422D01*
X-238252Y503326D01*
X-225298Y498957D01*
X-211836Y496265D01*
G37*
G36*
X-243941Y252171D02*
G01*
X-243941Y300278D01*
X-292049Y300278D01*
X-288798Y293674D01*
X-281228Y282295D01*
X-272186Y272034D01*
X-261874Y262991D01*
X-250494Y255422D01*
G37*

%LPD*%
D10*
G01*
X-198196Y599998D03*
G01*
X-198196Y345998D03*
G01*
X-198196Y91998D03*
G01*
X-198196Y-162001D03*
D11*
G01*
X-198196Y-416001D03*
D10*
G01*
X-1199997Y599998D03*
G01*
X-1199997Y345998D03*
G01*
X-1199997Y91998D03*
G01*
X-1199997Y-162001D03*
D11*
G01*
X-1199997Y-416001D03*
D12*
G01*
X848740Y282498D03*
G01*
X848740Y-282524D03*
D13*
G01*
X-1124991Y-1350010D03*
D14*
G01*
X-1292834Y742746D03*
G01*
X-1042847Y742746D03*
G01*
X-1042847Y492760D03*
G01*
X-1042847Y242747D03*
G01*
X-792835Y742746D03*
G01*
X-792835Y492760D03*
G01*
X-792835Y242747D03*
G01*
X-792835Y-257251D03*
G01*
X-542848Y742746D03*
G01*
X-542848Y492760D03*
G01*
X-542848Y-7238D03*
G01*
X-542848Y-257251D03*
G01*
X-292836Y992759D03*
G01*
X-292836Y742746D03*
G01*
X-42849Y742746D03*
G01*
X-42849Y-257251D03*
G01*
X207162Y742746D03*
G01*
X207162Y-257251D03*
G01*
X457149Y992759D03*
G01*
X457149Y742746D03*
G01*
X457149Y492760D03*
G01*
X707161Y742746D03*
G01*
X707161Y-7238D03*
G01*
X-1122781Y-947470D03*
G01*
X-622782Y-947470D03*
G01*
X-372795Y-697458D03*
G01*
X-372795Y-947470D03*
G01*
X-122783Y-947470D03*
G01*
X127203Y-947470D03*
G01*
X377215Y-697458D03*
G01*
X377215Y-947470D03*
G01*
X627202Y-697458D03*
G01*
X877214Y-447471D03*
G01*
X877214Y-697458D03*
M02*
