G04 Layer: TopSilkscreenLayer*
G04 EasyEDA v6.5.20, 2023-08-22 18:50:07*
G04 a67cddfb3fce44daa9051d46cbbcc19f,10*
G04 Gerber Generator version 0.2*
G04 Scale: 100 percent, Rotated: No, Reflected: No *
G04 Dimensions in millimeters *
G04 leading zeros omitted , absolute positions ,4 integer and 5 decimal *
%FSLAX45Y45*%
%MOMM*%

%ADD10C,0.2032*%
%ADD11C,0.1524*%
%ADD12C,0.2030*%
%ADD13C,0.2540*%
%ADD14C,0.5000*%
%ADD15C,0.0138*%

%LPD*%
D10*
X-29999Y-379153D02*
G01*
X6322Y-474657D01*
X42644Y-379153D02*
G01*
X6322Y-474657D01*
X72616Y-379153D02*
G01*
X72616Y-474657D01*
X72616Y-379153D02*
G01*
X113510Y-379153D01*
X127226Y-383725D01*
X131798Y-388297D01*
X136370Y-397187D01*
X136370Y-406331D01*
X131798Y-415475D01*
X127226Y-420047D01*
X113510Y-424619D01*
X72616Y-424619D02*
G01*
X113510Y-424619D01*
X127226Y-429191D01*
X131798Y-433509D01*
X136370Y-442653D01*
X136370Y-456369D01*
X131798Y-465513D01*
X127226Y-470085D01*
X113510Y-474657D01*
X72616Y-474657D01*
X166342Y-379153D02*
G01*
X166342Y-447225D01*
X170914Y-460941D01*
X180058Y-470085D01*
X193520Y-474657D01*
X202664Y-474657D01*
X216380Y-470085D01*
X225524Y-460941D01*
X230096Y-447225D01*
X230096Y-379153D01*
X323568Y-392615D02*
G01*
X314424Y-383725D01*
X300962Y-379153D01*
X282674Y-379153D01*
X269212Y-383725D01*
X260068Y-392615D01*
X260068Y-401759D01*
X264640Y-410903D01*
X269212Y-415475D01*
X278102Y-420047D01*
X305534Y-429191D01*
X314424Y-433509D01*
X318996Y-438081D01*
X323568Y-447225D01*
X323568Y-460941D01*
X314424Y-470085D01*
X300962Y-474657D01*
X282674Y-474657D01*
X269212Y-470085D01*
X260068Y-460941D01*
X-29999Y-125153D02*
G01*
X-29999Y-220657D01*
X-29999Y-125153D02*
G01*
X1750Y-125153D01*
X15466Y-129725D01*
X24610Y-138615D01*
X29182Y-147759D01*
X33754Y-161475D01*
X33754Y-184081D01*
X29182Y-197797D01*
X24610Y-206941D01*
X15466Y-216085D01*
X1750Y-220657D01*
X-29999Y-220657D01*
X63726Y-179509D02*
G01*
X145514Y-179509D01*
X-29999Y128846D02*
G01*
X-29999Y33342D01*
X-29999Y128846D02*
G01*
X1750Y128846D01*
X15466Y124274D01*
X24610Y115384D01*
X29182Y106240D01*
X33754Y92524D01*
X33754Y69918D01*
X29182Y56202D01*
X24610Y47058D01*
X15466Y37914D01*
X1750Y33342D01*
X-29999Y33342D01*
X104620Y115384D02*
G01*
X104620Y33342D01*
X63726Y74490D02*
G01*
X145514Y74490D01*
X38072Y360291D02*
G01*
X33754Y369181D01*
X24610Y378325D01*
X15466Y382897D01*
X-2821Y382897D01*
X-11711Y378325D01*
X-20855Y369181D01*
X-25427Y360291D01*
X-29999Y346575D01*
X-29999Y323715D01*
X-25427Y310253D01*
X-20855Y301109D01*
X-11711Y291965D01*
X-2821Y287393D01*
X15466Y287393D01*
X24610Y291965D01*
X33754Y301109D01*
X38072Y310253D01*
X38072Y323715D01*
X15466Y323715D02*
G01*
X38072Y323715D01*
X68298Y382897D02*
G01*
X68298Y287393D01*
X68298Y382897D02*
G01*
X131798Y287393D01*
X131798Y382897D02*
G01*
X131798Y287393D01*
X161770Y382897D02*
G01*
X161770Y287393D01*
X161770Y382897D02*
G01*
X193520Y382897D01*
X207236Y378325D01*
X216380Y369181D01*
X220952Y360291D01*
X225524Y346575D01*
X225524Y323715D01*
X220952Y310253D01*
X216380Y301109D01*
X207236Y291965D01*
X193520Y287393D01*
X161770Y287393D01*
X33754Y623384D02*
G01*
X24610Y632274D01*
X10894Y636846D01*
X-7393Y636846D01*
X-20855Y632274D01*
X-29999Y623384D01*
X-29999Y614240D01*
X-25427Y605096D01*
X-20855Y600524D01*
X-11711Y595952D01*
X15466Y586808D01*
X24610Y582490D01*
X29182Y577918D01*
X33754Y568774D01*
X33754Y555058D01*
X24610Y545914D01*
X10894Y541342D01*
X-7393Y541342D01*
X-20855Y545914D01*
X-29999Y555058D01*
X63726Y636846D02*
G01*
X63726Y541342D01*
X127226Y636846D02*
G01*
X127226Y541342D01*
X63726Y591380D02*
G01*
X127226Y591380D01*
X157198Y636846D02*
G01*
X157198Y541342D01*
X187170Y636846D02*
G01*
X187170Y541342D01*
X187170Y636846D02*
G01*
X246352Y636846D01*
X187170Y591380D02*
G01*
X223746Y591380D01*
X187170Y541342D02*
G01*
X246352Y541342D01*
X276324Y636846D02*
G01*
X276324Y541342D01*
X276324Y541342D02*
G01*
X330934Y541342D01*
X360906Y636846D02*
G01*
X360906Y541342D01*
X360906Y636846D02*
G01*
X392656Y636846D01*
X406372Y632274D01*
X415516Y623384D01*
X420088Y614240D01*
X424660Y600524D01*
X424660Y577918D01*
X420088Y564202D01*
X415516Y555058D01*
X406372Y545914D01*
X392656Y541342D01*
X360906Y541342D01*
X-1020955Y-355163D02*
G01*
X-970917Y-355163D01*
X-998095Y-391485D01*
X-984633Y-391485D01*
X-975489Y-396057D01*
X-970917Y-400629D01*
X-966345Y-414091D01*
X-966345Y-423235D01*
X-970917Y-436951D01*
X-980061Y-446095D01*
X-993523Y-450667D01*
X-1007239Y-450667D01*
X-1020955Y-446095D01*
X-1025527Y-441523D01*
X-1030099Y-432379D01*
X-931801Y-427807D02*
G01*
X-936373Y-432379D01*
X-931801Y-436951D01*
X-927229Y-432379D01*
X-931801Y-427807D01*
X-888113Y-355163D02*
G01*
X-838075Y-355163D01*
X-865507Y-391485D01*
X-851791Y-391485D01*
X-842647Y-396057D01*
X-838075Y-400629D01*
X-833757Y-414091D01*
X-833757Y-423235D01*
X-838075Y-436951D01*
X-847219Y-446095D01*
X-860935Y-450667D01*
X-874651Y-450667D01*
X-888113Y-446095D01*
X-892685Y-441523D01*
X-897257Y-432379D01*
X-803531Y-355163D02*
G01*
X-767209Y-450667D01*
X-730887Y-355163D02*
G01*
X-767209Y-450667D01*
X-1030074Y-101150D02*
G01*
X-993752Y-196654D01*
X-957176Y-101150D02*
G01*
X-993752Y-196654D01*
X-927204Y-101150D02*
G01*
X-927204Y-196654D01*
X-927204Y-101150D02*
G01*
X-886310Y-101150D01*
X-872848Y-105722D01*
X-868276Y-110294D01*
X-863704Y-119184D01*
X-863704Y-128328D01*
X-868276Y-137472D01*
X-872848Y-142044D01*
X-886310Y-146616D01*
X-927204Y-146616D02*
G01*
X-886310Y-146616D01*
X-872848Y-151188D01*
X-868276Y-155506D01*
X-863704Y-164650D01*
X-863704Y-178366D01*
X-868276Y-187510D01*
X-872848Y-192082D01*
X-886310Y-196654D01*
X-927204Y-196654D01*
X-833732Y-101150D02*
G01*
X-833732Y-169222D01*
X-829160Y-182938D01*
X-820016Y-192082D01*
X-806300Y-196654D01*
X-797156Y-196654D01*
X-783694Y-192082D01*
X-774550Y-182938D01*
X-769978Y-169222D01*
X-769978Y-101150D01*
X-676252Y-114612D02*
G01*
X-685396Y-105722D01*
X-699112Y-101150D01*
X-717400Y-101150D01*
X-730862Y-105722D01*
X-740006Y-114612D01*
X-740006Y-123756D01*
X-735434Y-132900D01*
X-730862Y-137472D01*
X-721718Y-142044D01*
X-694540Y-151188D01*
X-685396Y-155506D01*
X-680824Y-160078D01*
X-676252Y-169222D01*
X-676252Y-182938D01*
X-685396Y-192082D01*
X-699112Y-196654D01*
X-717400Y-196654D01*
X-730862Y-192082D01*
X-740006Y-182938D01*
X-1030074Y152849D02*
G01*
X-1030074Y57345D01*
X-1000102Y152849D02*
G01*
X-1000102Y57345D01*
X-1000102Y152849D02*
G01*
X-968098Y152849D01*
X-954636Y148277D01*
X-945492Y139387D01*
X-940920Y130243D01*
X-936348Y116527D01*
X-936348Y93921D01*
X-940920Y80205D01*
X-945492Y71061D01*
X-954636Y61917D01*
X-968098Y57345D01*
X-1000102Y57345D01*
X-961931Y384289D02*
G01*
X-966249Y393179D01*
X-975393Y402323D01*
X-984537Y406895D01*
X-1002825Y406895D01*
X-1011715Y402323D01*
X-1020859Y393179D01*
X-1025431Y384289D01*
X-1030003Y370573D01*
X-1030003Y347713D01*
X-1025431Y334251D01*
X-1020859Y325107D01*
X-1011715Y315963D01*
X-1002825Y311391D01*
X-984537Y311391D01*
X-975393Y315963D01*
X-966249Y325107D01*
X-961931Y334251D01*
X-961931Y347713D01*
X-984537Y347713D02*
G01*
X-961931Y347713D01*
X-931705Y406895D02*
G01*
X-931705Y311391D01*
X-931705Y406895D02*
G01*
X-868205Y311391D01*
X-868205Y406895D02*
G01*
X-868205Y311391D01*
X-838233Y406895D02*
G01*
X-838233Y311391D01*
X-838233Y406895D02*
G01*
X-806483Y406895D01*
X-792767Y402323D01*
X-783623Y393179D01*
X-779051Y384289D01*
X-774479Y370573D01*
X-774479Y347713D01*
X-779051Y334251D01*
X-783623Y325107D01*
X-792767Y315963D01*
X-806483Y311391D01*
X-838233Y311391D01*
X-961931Y638289D02*
G01*
X-966249Y647179D01*
X-975393Y656323D01*
X-984537Y660895D01*
X-1002825Y660895D01*
X-1011715Y656323D01*
X-1020859Y647179D01*
X-1025431Y638289D01*
X-1030003Y624573D01*
X-1030003Y601713D01*
X-1025431Y588251D01*
X-1020859Y579107D01*
X-1011715Y569963D01*
X-1002825Y565391D01*
X-984537Y565391D01*
X-975393Y569963D01*
X-966249Y579107D01*
X-961931Y588251D01*
X-961931Y601713D01*
X-984537Y601713D02*
G01*
X-961931Y601713D01*
X-931705Y660895D02*
G01*
X-931705Y565391D01*
X-931705Y660895D02*
G01*
X-868205Y565391D01*
X-868205Y660895D02*
G01*
X-868205Y565391D01*
X-838233Y660895D02*
G01*
X-838233Y565391D01*
X-838233Y660895D02*
G01*
X-806483Y660895D01*
X-792767Y656323D01*
X-783623Y647179D01*
X-779051Y638289D01*
X-774479Y624573D01*
X-774479Y601713D01*
X-779051Y588251D01*
X-783623Y579107D01*
X-792767Y569963D01*
X-806483Y565391D01*
X-838233Y565391D01*
X469897Y-819510D02*
G01*
X525523Y-948796D01*
X580895Y-819510D02*
G01*
X525523Y-948796D01*
X641855Y-791824D02*
G01*
X660143Y-782680D01*
X688083Y-754994D01*
X688083Y-948796D01*
X758187Y-902822D02*
G01*
X749043Y-911966D01*
X758187Y-921110D01*
X767331Y-911966D01*
X758187Y-902822D01*
X883663Y-754994D02*
G01*
X855977Y-764138D01*
X837689Y-791824D01*
X828291Y-838052D01*
X828291Y-865738D01*
X837689Y-911966D01*
X855977Y-939652D01*
X883663Y-948796D01*
X902205Y-948796D01*
X929891Y-939652D01*
X948433Y-911966D01*
X957577Y-865738D01*
X957577Y-838052D01*
X948433Y-791824D01*
X929891Y-764138D01*
X902205Y-754994D01*
X883663Y-754994D01*
D11*
X217952Y-690666D02*
G01*
X212618Y-680252D01*
X202458Y-669838D01*
X192044Y-664758D01*
X171216Y-664758D01*
X160802Y-669838D01*
X150388Y-680252D01*
X145308Y-690666D01*
X139974Y-706160D01*
X139974Y-732322D01*
X145308Y-747816D01*
X150388Y-758230D01*
X160802Y-768644D01*
X171216Y-773724D01*
X192044Y-773724D01*
X202458Y-768644D01*
X212618Y-758230D01*
X217952Y-747816D01*
X252242Y-685332D02*
G01*
X262656Y-680252D01*
X278150Y-664758D01*
X278150Y-773724D01*
X-469993Y-864682D02*
G01*
X-469993Y-942660D01*
X-464913Y-958154D01*
X-454499Y-968568D01*
X-438751Y-973648D01*
X-428337Y-973648D01*
X-412843Y-968568D01*
X-402429Y-958154D01*
X-397349Y-942660D01*
X-397349Y-864682D01*
X-363059Y-885510D02*
G01*
X-352645Y-880176D01*
X-336897Y-864682D01*
X-336897Y-973648D01*
X-1309291Y-922134D02*
G01*
X-1319705Y-927214D01*
X-1330119Y-937628D01*
X-1335453Y-948042D01*
X-1335453Y-968870D01*
X-1330119Y-979284D01*
X-1319705Y-989698D01*
X-1309291Y-994778D01*
X-1293797Y-1000112D01*
X-1267889Y-1000112D01*
X-1252141Y-994778D01*
X-1241727Y-989698D01*
X-1231313Y-979284D01*
X-1226233Y-968870D01*
X-1226233Y-948042D01*
X-1231313Y-937628D01*
X-1241727Y-927214D01*
X-1252141Y-922134D01*
X-1309291Y-882510D02*
G01*
X-1314625Y-882510D01*
X-1325039Y-877430D01*
X-1330119Y-872096D01*
X-1335453Y-861936D01*
X-1335453Y-841108D01*
X-1330119Y-830694D01*
X-1325039Y-825360D01*
X-1314625Y-820280D01*
X-1304211Y-820280D01*
X-1293797Y-825360D01*
X-1278303Y-835774D01*
X-1226233Y-887844D01*
X-1226233Y-814946D01*
X-222808Y892845D02*
G01*
X-222808Y820201D01*
X-227380Y806485D01*
X-231952Y801913D01*
X-240842Y797341D01*
X-249986Y797341D01*
X-259130Y801913D01*
X-263702Y806485D01*
X-268274Y820201D01*
X-268274Y829345D01*
X-192836Y874811D02*
G01*
X-183692Y879383D01*
X-169976Y892845D01*
X-169976Y797341D01*
X-1224480Y892837D02*
G01*
X-1224480Y820193D01*
X-1229052Y806477D01*
X-1233624Y801905D01*
X-1242768Y797333D01*
X-1251912Y797333D01*
X-1260802Y801905D01*
X-1265374Y806477D01*
X-1269946Y820193D01*
X-1269946Y829337D01*
X-1189936Y870231D02*
G01*
X-1189936Y874803D01*
X-1185364Y883693D01*
X-1180792Y888265D01*
X-1171902Y892837D01*
X-1153614Y892837D01*
X-1144470Y888265D01*
X-1139898Y883693D01*
X-1135326Y874803D01*
X-1135326Y865659D01*
X-1139898Y856515D01*
X-1149042Y842799D01*
X-1194508Y797333D01*
X-1131008Y797333D01*
X600024Y600963D02*
G01*
X600024Y532637D01*
X604596Y519176D01*
X613740Y510031D01*
X627202Y505460D01*
X636346Y505460D01*
X650062Y510031D01*
X659206Y519176D01*
X663524Y532637D01*
X663524Y600963D01*
X757250Y587247D02*
G01*
X748106Y596392D01*
X734644Y600963D01*
X716356Y600963D01*
X702640Y596392D01*
X693750Y587247D01*
X693750Y578104D01*
X698068Y569213D01*
X702640Y564642D01*
X711784Y560070D01*
X739216Y550926D01*
X748106Y546354D01*
X752678Y541781D01*
X757250Y532637D01*
X757250Y519176D01*
X748106Y510031D01*
X734644Y505460D01*
X716356Y505460D01*
X702640Y510031D01*
X693750Y519176D01*
X787222Y600963D02*
G01*
X787222Y505460D01*
X787222Y600963D02*
G01*
X828116Y600963D01*
X841832Y596392D01*
X846404Y591820D01*
X850976Y582676D01*
X850976Y573531D01*
X846404Y564642D01*
X841832Y560070D01*
X828116Y555497D01*
X787222Y555497D02*
G01*
X828116Y555497D01*
X841832Y550926D01*
X846404Y546354D01*
X850976Y537210D01*
X850976Y523747D01*
X846404Y514604D01*
X841832Y510031D01*
X828116Y505460D01*
X787222Y505460D01*
X880948Y582676D02*
G01*
X890092Y587247D01*
X903554Y600963D01*
X903554Y505460D01*
X-281119Y-820359D02*
G01*
X-140119Y-820359D01*
X-140119Y-639638D02*
G01*
X-281119Y-639638D01*
X-296359Y-654878D02*
G01*
X-296359Y-805119D01*
X81119Y-820359D02*
G01*
X-59880Y-820359D01*
X-59880Y-639638D02*
G01*
X81119Y-639638D01*
X96359Y-654878D02*
G01*
X96359Y-805119D01*
X-497377Y-1187140D02*
G01*
X-1162618Y-1187140D01*
X-1162618Y-892860D01*
X-497377Y-892860D01*
X-497377Y-1187140D01*
X-1370357Y-1068877D02*
G01*
X-1370357Y-1209878D01*
X-1189636Y-1209878D02*
G01*
X-1189636Y-1068877D01*
X-1204876Y-1053637D02*
G01*
X-1355117Y-1053637D01*
X-1370357Y-1431117D02*
G01*
X-1370357Y-1290116D01*
X-1189636Y-1290116D02*
G01*
X-1189636Y-1431117D01*
X-1204876Y-1446357D02*
G01*
X-1355117Y-1446357D01*
D10*
X-325198Y-352491D02*
G01*
X-325198Y-542991D01*
X-71198Y-542991D01*
X-71198Y727008D01*
X-325198Y727008D01*
D12*
X-325198Y727008D02*
G01*
X-325198Y-352491D01*
D10*
X-1326997Y-352498D02*
G01*
X-1326997Y-542998D01*
X-1072997Y-542998D01*
X-1072997Y727001D01*
X-1326997Y727001D01*
D12*
X-1326997Y727001D02*
G01*
X-1326997Y-352498D01*
D13*
X1101239Y-267512D02*
G01*
X1166240Y-267512D01*
X1166240Y259996D01*
X1101239Y259996D01*
X1078743Y399999D02*
G01*
X1133741Y454997D01*
X1166240Y422498D01*
X1101239Y357497D01*
X1101239Y-357497D01*
X1078743Y-399999D02*
G01*
X1133741Y-454997D01*
X1166240Y-422498D01*
X1101239Y-357497D01*
X1078743Y-399999D02*
G01*
X696856Y-399999D01*
X1078743Y399999D02*
G01*
X696856Y399999D01*
X1078743Y-399999D02*
G01*
X1078743Y399999D01*
D11*
G75*
G01*
X-281120Y-639638D02*
G03*
X-296360Y-654878I0J-15240D01*
G75*
G01*
X-296360Y-805119D02*
G03*
X-281120Y-820359I15240J0D01*
G75*
G01*
X81120Y-639638D02*
G02*
X96360Y-654878I0J-15240D01*
G75*
G01*
X96360Y-805119D02*
G02*
X81120Y-820359I-15240J0D01*
G75*
G01*
X-1189637Y-1068878D02*
G03*
X-1204877Y-1053638I-15240J0D01*
G75*
G01*
X-1355118Y-1053638D02*
G03*
X-1370358Y-1068878I0J-15240D01*
G75*
G01*
X-1189637Y-1431117D02*
G02*
X-1204877Y-1446357I-15240J0D01*
G75*
G01*
X-1355118Y-1446357D02*
G02*
X-1370358Y-1431117I0J15240D01*
D14*
G75*
G01
X499999Y-1499997D02*
G03X499999Y-1499997I-499999J0D01*
G75*
G01
X499999Y1499997D02*
G03X499999Y1499997I-499999J0D01*
D13*
G75*
G01
X508178Y-199009D02*
G03X508178Y-199009I-24181J0D01*
M02*
