G04 Layer: BottomSilkscreenLayer*
G04 EasyEDA v6.5.20, 2023-08-22 18:50:07*
G04 a67cddfb3fce44daa9051d46cbbcc19f,10*
G04 Gerber Generator version 0.2*
G04 Scale: 100 percent, Rotated: No, Reflected: No *
G04 Dimensions in millimeters *
G04 leading zeros omitted , absolute positions ,4 integer and 5 decimal *
%FSLAX45Y45*%
%MOMM*%

%ADD10C,0.2032*%
%ADD11C,0.5000*%

%LPD*%
D10*
X324586Y-376765D02*
G01*
X288264Y-472269D01*
X251942Y-376765D02*
G01*
X288264Y-472269D01*
X221970Y-376765D02*
G01*
X221970Y-472269D01*
X221970Y-376765D02*
G01*
X181076Y-376765D01*
X167360Y-381337D01*
X162788Y-385909D01*
X158216Y-394799D01*
X158216Y-403943D01*
X162788Y-413087D01*
X167360Y-417659D01*
X181076Y-422231D01*
X221970Y-422231D02*
G01*
X181076Y-422231D01*
X167360Y-426803D01*
X162788Y-431121D01*
X158216Y-440265D01*
X158216Y-453981D01*
X162788Y-463125D01*
X167360Y-467697D01*
X181076Y-472269D01*
X221970Y-472269D01*
X128244Y-376765D02*
G01*
X128244Y-444837D01*
X123672Y-458553D01*
X114528Y-467697D01*
X101066Y-472269D01*
X91922Y-472269D01*
X78206Y-467697D01*
X69062Y-458553D01*
X64490Y-444837D01*
X64490Y-376765D01*
X-28981Y-390227D02*
G01*
X-19837Y-381337D01*
X-6375Y-376765D01*
X11912Y-376765D01*
X25374Y-381337D01*
X34518Y-390227D01*
X34518Y-399371D01*
X29946Y-408515D01*
X25374Y-413087D01*
X16484Y-417659D01*
X-10947Y-426803D01*
X-19837Y-431121D01*
X-24409Y-435693D01*
X-28981Y-444837D01*
X-28981Y-458553D01*
X-19837Y-467697D01*
X-6375Y-472269D01*
X11912Y-472269D01*
X25374Y-467697D01*
X34518Y-458553D01*
X-725512Y-354675D02*
G01*
X-775512Y-354675D01*
X-748240Y-391038D01*
X-761875Y-391038D01*
X-770968Y-395584D01*
X-775512Y-400131D01*
X-780059Y-413765D01*
X-780059Y-422856D01*
X-775512Y-436493D01*
X-766422Y-445584D01*
X-752784Y-450131D01*
X-739150Y-450131D01*
X-725512Y-445584D01*
X-720968Y-441037D01*
X-716422Y-431947D01*
X-814603Y-427403D02*
G01*
X-810059Y-431947D01*
X-814603Y-436493D01*
X-819150Y-431947D01*
X-814603Y-427403D01*
X-858240Y-354675D02*
G01*
X-908240Y-354675D01*
X-880968Y-391038D01*
X-894603Y-391038D01*
X-903693Y-395584D01*
X-908240Y-400131D01*
X-912784Y-413765D01*
X-912784Y-422856D01*
X-908240Y-436493D01*
X-899149Y-445584D01*
X-885512Y-450131D01*
X-871875Y-450131D01*
X-858240Y-445584D01*
X-853694Y-441037D01*
X-849149Y-431947D01*
X-942784Y-354675D02*
G01*
X-979149Y-450131D01*
X-1015512Y-354675D02*
G01*
X-979149Y-450131D01*
X-674540Y-102743D02*
G01*
X-710862Y-198246D01*
X-747438Y-102743D02*
G01*
X-710862Y-198246D01*
X-777410Y-102743D02*
G01*
X-777410Y-198246D01*
X-777410Y-102743D02*
G01*
X-818304Y-102743D01*
X-831766Y-107314D01*
X-836338Y-111887D01*
X-840910Y-120777D01*
X-840910Y-129920D01*
X-836338Y-139064D01*
X-831766Y-143637D01*
X-818304Y-148209D01*
X-777410Y-148209D02*
G01*
X-818304Y-148209D01*
X-831766Y-152780D01*
X-836338Y-157098D01*
X-840910Y-166243D01*
X-840910Y-179959D01*
X-836338Y-189103D01*
X-831766Y-193675D01*
X-818304Y-198246D01*
X-777410Y-198246D01*
X-870882Y-102743D02*
G01*
X-870882Y-170814D01*
X-875454Y-184530D01*
X-884598Y-193675D01*
X-898314Y-198246D01*
X-907458Y-198246D01*
X-920920Y-193675D01*
X-930064Y-184530D01*
X-934636Y-170814D01*
X-934636Y-102743D01*
X-1028362Y-116204D02*
G01*
X-1019218Y-107314D01*
X-1005502Y-102743D01*
X-987214Y-102743D01*
X-973752Y-107314D01*
X-964608Y-116204D01*
X-964608Y-125348D01*
X-969180Y-134493D01*
X-973752Y-139064D01*
X-982896Y-143637D01*
X-1010074Y-152780D01*
X-1019218Y-157098D01*
X-1023790Y-161670D01*
X-1028362Y-170814D01*
X-1028362Y-184530D01*
X-1019218Y-193675D01*
X-1005502Y-198246D01*
X-987214Y-198246D01*
X-973752Y-193675D01*
X-964608Y-184530D01*
X-928938Y152057D02*
G01*
X-928938Y56553D01*
X-958910Y152057D02*
G01*
X-958910Y56553D01*
X-958910Y152057D02*
G01*
X-990914Y152057D01*
X-1004376Y147485D01*
X-1013520Y138595D01*
X-1018092Y129451D01*
X-1022664Y115735D01*
X-1022664Y93129D01*
X-1018092Y79413D01*
X-1013520Y70269D01*
X-1004376Y61125D01*
X-990914Y56553D01*
X-958910Y56553D01*
X-838083Y383895D02*
G01*
X-833765Y392785D01*
X-824621Y401929D01*
X-815477Y406501D01*
X-797189Y406501D01*
X-788299Y401929D01*
X-779155Y392785D01*
X-774583Y383895D01*
X-770011Y370179D01*
X-770011Y347319D01*
X-774583Y333857D01*
X-779155Y324713D01*
X-788299Y315569D01*
X-797189Y310997D01*
X-815477Y310997D01*
X-824621Y315569D01*
X-833765Y324713D01*
X-838083Y333857D01*
X-838083Y347319D01*
X-815477Y347319D02*
G01*
X-838083Y347319D01*
X-868309Y406501D02*
G01*
X-868309Y310997D01*
X-868309Y406501D02*
G01*
X-931809Y310997D01*
X-931809Y406501D02*
G01*
X-931809Y310997D01*
X-961781Y406501D02*
G01*
X-961781Y310997D01*
X-961781Y406501D02*
G01*
X-993531Y406501D01*
X-1007247Y401929D01*
X-1016391Y392785D01*
X-1020963Y383895D01*
X-1025535Y370179D01*
X-1025535Y347319D01*
X-1020963Y333857D01*
X-1016391Y324713D01*
X-1007247Y315569D01*
X-993531Y310997D01*
X-961781Y310997D01*
X-838083Y638294D02*
G01*
X-833765Y647184D01*
X-824621Y656328D01*
X-815477Y660900D01*
X-797189Y660900D01*
X-788299Y656328D01*
X-779155Y647184D01*
X-774583Y638294D01*
X-770011Y624578D01*
X-770011Y601718D01*
X-774583Y588256D01*
X-779155Y579112D01*
X-788299Y569968D01*
X-797189Y565396D01*
X-815477Y565396D01*
X-824621Y569968D01*
X-833765Y579112D01*
X-838083Y588256D01*
X-838083Y601718D01*
X-815477Y601718D02*
G01*
X-838083Y601718D01*
X-868309Y660900D02*
G01*
X-868309Y565396D01*
X-868309Y660900D02*
G01*
X-931809Y565396D01*
X-931809Y660900D02*
G01*
X-931809Y565396D01*
X-961781Y660900D02*
G01*
X-961781Y565396D01*
X-961781Y660900D02*
G01*
X-993531Y660900D01*
X-1007247Y656328D01*
X-1016391Y647184D01*
X-1020963Y638294D01*
X-1025535Y624578D01*
X-1025535Y601718D01*
X-1020963Y588256D01*
X-1016391Y579112D01*
X-1007247Y569968D01*
X-993531Y565396D01*
X-961781Y565396D01*
X356232Y627369D02*
G01*
X365376Y636259D01*
X379092Y640831D01*
X397380Y640831D01*
X410842Y636259D01*
X419986Y627369D01*
X419986Y618225D01*
X415414Y609081D01*
X410842Y604509D01*
X401698Y599937D01*
X374520Y590793D01*
X365376Y586475D01*
X360804Y581903D01*
X356232Y572759D01*
X356232Y559043D01*
X365376Y549899D01*
X379092Y545327D01*
X397380Y545327D01*
X410842Y549899D01*
X419986Y559043D01*
X326260Y640831D02*
G01*
X326260Y545327D01*
X262760Y640831D02*
G01*
X262760Y545327D01*
X326260Y595365D02*
G01*
X262760Y595365D01*
X232788Y640831D02*
G01*
X232788Y545327D01*
X202816Y640831D02*
G01*
X202816Y545327D01*
X202816Y640831D02*
G01*
X143634Y640831D01*
X202816Y595365D02*
G01*
X166240Y595365D01*
X202816Y545327D02*
G01*
X143634Y545327D01*
X113662Y640831D02*
G01*
X113662Y545327D01*
X113662Y545327D02*
G01*
X59052Y545327D01*
X29080Y640831D02*
G01*
X29080Y545327D01*
X29080Y640831D02*
G01*
X-2669Y640831D01*
X-16385Y636259D01*
X-25529Y627369D01*
X-30101Y618225D01*
X-34673Y604509D01*
X-34673Y581903D01*
X-30101Y568187D01*
X-25529Y559043D01*
X-16385Y549899D01*
X-2669Y545327D01*
X29080Y545327D01*
X161114Y363877D02*
G01*
X165432Y372767D01*
X174576Y381911D01*
X183720Y386483D01*
X202008Y386483D01*
X210898Y381911D01*
X220042Y372767D01*
X224614Y363877D01*
X229186Y350161D01*
X229186Y327301D01*
X224614Y313839D01*
X220042Y304695D01*
X210898Y295551D01*
X202008Y290979D01*
X183720Y290979D01*
X174576Y295551D01*
X165432Y304695D01*
X161114Y313839D01*
X161114Y327301D01*
X183720Y327301D02*
G01*
X161114Y327301D01*
X130888Y386483D02*
G01*
X130888Y290979D01*
X130888Y386483D02*
G01*
X67388Y290979D01*
X67388Y386483D02*
G01*
X67388Y290979D01*
X37416Y386483D02*
G01*
X37416Y290979D01*
X37416Y386483D02*
G01*
X5666Y386483D01*
X-8049Y381911D01*
X-17193Y372767D01*
X-21765Y363877D01*
X-26337Y350161D01*
X-26337Y327301D01*
X-21765Y313839D01*
X-17193Y304695D01*
X-8049Y295551D01*
X5666Y290979D01*
X37416Y290979D01*
X165587Y132034D02*
G01*
X165587Y36530D01*
X165587Y132034D02*
G01*
X133837Y132034D01*
X120121Y127462D01*
X110977Y118572D01*
X106405Y109428D01*
X101833Y95712D01*
X101833Y73106D01*
X106405Y59390D01*
X110977Y50246D01*
X120121Y41102D01*
X133837Y36530D01*
X165587Y36530D01*
X30967Y118572D02*
G01*
X30967Y36530D01*
X71861Y77678D02*
G01*
X-9926Y77678D01*
X165587Y-121965D02*
G01*
X165587Y-217469D01*
X165587Y-121965D02*
G01*
X133837Y-121965D01*
X120121Y-126537D01*
X110977Y-135427D01*
X106405Y-144571D01*
X101833Y-158287D01*
X101833Y-180893D01*
X106405Y-194609D01*
X110977Y-203753D01*
X120121Y-212897D01*
X133837Y-217469D01*
X165587Y-217469D01*
X71861Y-176321D02*
G01*
X-9926Y-176321D01*
D11*
G75*
G01
X499999Y1499997D02*
G03X499999Y1499997I-499999J0D01*
G75*
G01
X499999Y-1499997D02*
G03X499999Y-1499997I-499999J0D01*
M02*
