G04 Layer: TopLayer*
G04 EasyEDA v6.5.20, 2023-08-22 18:50:07*
G04 a67cddfb3fce44daa9051d46cbbcc19f,10*
G04 Gerber Generator version 0.2*
G04 Scale: 100 percent, Rotated: No, Reflected: No *
G04 Dimensions in millimeters *
G04 leading zeros omitted , absolute positions ,4 integer and 5 decimal *
%FSLAX45Y45*%
%MOMM*%

%AMMACRO1*21,1,$1,$2,0,0,$3*%
%ADD10C,1.0000*%
%ADD11C,0.4000*%
%ADD12C,0.5000*%
%ADD13MACRO1,1.35X1.41X-90.0000*%
%ADD14R,1.1000X2.5000*%
%ADD15MACRO1,3.6X2.34X0.0000*%
%ADD16MACRO1,1.35X1.41X0.0000*%
%ADD17R,1.3500X1.4100*%
%ADD18R,1.3500X0.4000*%
%ADD19R,1.6000X1.8000*%
%ADD20C,1.5748*%
%ADD21R,1.5748X1.5748*%
%ADD22O,2.0999958X1.1999976*%
%ADD23C,0.6096*%
%ADD24C,0.6100*%
%ADD25C,0.0121*%

%LPD*%
G36*
X-1363116Y-487781D02*
G01*
X-1367282Y-487273D01*
X-1370838Y-485140D01*
X-1373276Y-481736D01*
X-1374140Y-477621D01*
X-1374140Y963930D01*
X-1373378Y967790D01*
X-1371142Y971092D01*
X-1367840Y973328D01*
X-1363980Y974090D01*
X-600557Y973836D01*
X-594055Y974598D01*
X-588518Y976731D01*
X-583387Y980236D01*
X-580339Y983284D01*
X-577697Y986891D01*
X-575208Y992428D01*
X-574040Y999896D01*
X-574090Y1500428D01*
X-573074Y1533652D01*
X-570179Y1566926D01*
X-565302Y1599996D01*
X-558546Y1632661D01*
X-549859Y1664919D01*
X-539343Y1696618D01*
X-526999Y1727657D01*
X-512876Y1757883D01*
X-497027Y1787296D01*
X-479450Y1815693D01*
X-460298Y1843024D01*
X-439572Y1869236D01*
X-417372Y1894179D01*
X-393750Y1917750D01*
X-368757Y1939950D01*
X-342595Y1960625D01*
X-315214Y1979777D01*
X-286766Y1997303D01*
X-257403Y2013153D01*
X-227126Y2027224D01*
X-196088Y2039569D01*
X-164338Y2050034D01*
X-132080Y2058670D01*
X-99415Y2065375D01*
X-66344Y2070201D01*
X-33070Y2073097D01*
X304Y2074062D01*
X33680Y2073097D01*
X66954Y2070150D01*
X99974Y2065274D01*
X132689Y2058517D01*
X164947Y2049881D01*
X196646Y2039366D01*
X227634Y2027021D01*
X257911Y2012848D01*
X287274Y1996998D01*
X315722Y1979472D01*
X343052Y1960321D01*
X369214Y1939594D01*
X394157Y1917344D01*
X417779Y1893722D01*
X439978Y1868779D01*
X460654Y1842566D01*
X479806Y1815185D01*
X497332Y1786788D01*
X513130Y1757375D01*
X527253Y1727098D01*
X539546Y1696059D01*
X550062Y1664360D01*
X558647Y1632102D01*
X565404Y1599387D01*
X570230Y1566367D01*
X573125Y1533093D01*
X574090Y1499514D01*
X574090Y1000506D01*
X574903Y994003D01*
X576986Y988466D01*
X580542Y983335D01*
X583590Y980287D01*
X587146Y977646D01*
X592683Y975156D01*
X600151Y973937D01*
X963930Y974090D01*
X967790Y973328D01*
X971092Y971092D01*
X973328Y967790D01*
X974090Y963930D01*
X974090Y347827D01*
X973328Y343916D01*
X971092Y340664D01*
X967841Y338429D01*
X963930Y337667D01*
X960018Y338429D01*
X956767Y340664D01*
X949960Y347421D01*
X940155Y354736D01*
X929436Y360629D01*
X917956Y364896D01*
X905967Y367487D01*
X893368Y368401D01*
X828954Y368401D01*
X824433Y369468D01*
X817829Y372770D01*
X809650Y375056D01*
X800760Y375920D01*
X709828Y375920D01*
X705916Y376682D01*
X702614Y378866D01*
X700430Y382168D01*
X699668Y386080D01*
X699668Y419404D01*
X698957Y425754D01*
X697026Y431190D01*
X693928Y436118D01*
X689864Y440182D01*
X684936Y443280D01*
X679500Y445211D01*
X673150Y445922D01*
X514299Y445922D01*
X508000Y445211D01*
X502513Y443280D01*
X497636Y440182D01*
X493522Y436118D01*
X490474Y431190D01*
X488543Y425754D01*
X487832Y419404D01*
X487832Y391058D01*
X487070Y387146D01*
X484835Y383844D01*
X481584Y381660D01*
X477672Y380898D01*
X295300Y380847D01*
X291388Y381609D01*
X288086Y383844D01*
X36169Y635812D01*
X32715Y638962D01*
X29209Y641654D01*
X25450Y644042D01*
X21488Y646074D01*
X17424Y647801D01*
X13157Y649122D01*
X8839Y650087D01*
X4419Y650646D01*
X-203Y650849D01*
X-101193Y650849D01*
X-104444Y651408D01*
X-107340Y652932D01*
X-109626Y655370D01*
X-115214Y663702D01*
X-124206Y674014D01*
X-134518Y683006D01*
X-145897Y690626D01*
X-158140Y696671D01*
X-171094Y701090D01*
X-184556Y703732D01*
X-198221Y704646D01*
X-211836Y703732D01*
X-225298Y701090D01*
X-238252Y696671D01*
X-250494Y690626D01*
X-261874Y683006D01*
X-272186Y674014D01*
X-281228Y663702D01*
X-288798Y652322D01*
X-294843Y640029D01*
X-299262Y627075D01*
X-301904Y613664D01*
X-302818Y599998D01*
X-301904Y586333D01*
X-299262Y572922D01*
X-294843Y559968D01*
X-288798Y547674D01*
X-281228Y536295D01*
X-272186Y526034D01*
X-261874Y516991D01*
X-250494Y509422D01*
X-238252Y503326D01*
X-225298Y498957D01*
X-211836Y496265D01*
X-198221Y495401D01*
X-184556Y496265D01*
X-171094Y498957D01*
X-158140Y503326D01*
X-145897Y509422D01*
X-134518Y516991D01*
X-124206Y526034D01*
X-115214Y536295D01*
X-109728Y544525D01*
X-107442Y546963D01*
X-104546Y548487D01*
X-101244Y549046D01*
X-25298Y549046D01*
X-21386Y548284D01*
X-18135Y546049D01*
X233832Y294081D01*
X237286Y290931D01*
X240792Y288239D01*
X244551Y285851D01*
X248513Y283819D01*
X252577Y282092D01*
X256844Y280771D01*
X261162Y279806D01*
X265582Y279247D01*
X270256Y279044D01*
X477672Y279095D01*
X481584Y278282D01*
X484835Y276098D01*
X487070Y272796D01*
X487832Y268935D01*
X487832Y240588D01*
X488543Y234238D01*
X490474Y228803D01*
X493522Y223875D01*
X497636Y219811D01*
X502513Y216712D01*
X508000Y214782D01*
X514299Y214071D01*
X550519Y214071D01*
X554583Y213207D01*
X557987Y210820D01*
X560120Y207213D01*
X560628Y203047D01*
X560374Y199999D01*
X561187Y190754D01*
X563575Y181762D01*
X567537Y173329D01*
X572871Y165709D01*
X579424Y159105D01*
X586994Y153822D01*
X589991Y150571D01*
X591312Y146354D01*
X644652Y146354D01*
X644652Y153263D01*
X645668Y156108D01*
X647496Y158546D01*
X654608Y165709D01*
X659942Y173329D01*
X663905Y181762D01*
X666292Y190754D01*
X667105Y199999D01*
X666800Y203403D01*
X667207Y207264D01*
X669086Y210718D01*
X672084Y213207D01*
X675792Y214375D01*
X679500Y214782D01*
X684936Y216712D01*
X689864Y219811D01*
X693928Y223875D01*
X697026Y228803D01*
X698957Y234238D01*
X699668Y240588D01*
X699668Y263499D01*
X700532Y267614D01*
X703021Y271068D01*
X706628Y273151D01*
X710844Y273608D01*
X714857Y272338D01*
X718007Y269494D01*
X719734Y265684D01*
X721360Y258317D01*
X725627Y246837D01*
X731469Y236067D01*
X738835Y226263D01*
X747522Y217576D01*
X757326Y210261D01*
X768045Y204368D01*
X779526Y200101D01*
X791108Y197612D01*
X794258Y196291D01*
X796848Y194056D01*
X798525Y191058D01*
X799084Y187655D01*
X799084Y-187655D01*
X798525Y-191058D01*
X796848Y-194056D01*
X794258Y-196291D01*
X791108Y-197612D01*
X779526Y-200101D01*
X768045Y-204368D01*
X757326Y-210261D01*
X747522Y-217576D01*
X738835Y-226263D01*
X731469Y-236067D01*
X725627Y-246837D01*
X721360Y-258317D01*
X719734Y-265684D01*
X718007Y-269494D01*
X714857Y-272338D01*
X710844Y-273608D01*
X706628Y-273151D01*
X703021Y-271068D01*
X700532Y-267614D01*
X699668Y-263499D01*
X699668Y-240588D01*
X698957Y-234238D01*
X697026Y-228803D01*
X693928Y-223875D01*
X689864Y-219811D01*
X684936Y-216712D01*
X679500Y-214782D01*
X675792Y-214375D01*
X672084Y-213207D01*
X669086Y-210718D01*
X667207Y-207264D01*
X666800Y-203403D01*
X667105Y-199999D01*
X666292Y-190754D01*
X663905Y-181762D01*
X659942Y-173329D01*
X654608Y-165709D01*
X647496Y-158546D01*
X645668Y-156108D01*
X644652Y-153263D01*
X644652Y-110591D01*
X643940Y-104241D01*
X642772Y-100838D01*
X642162Y-97485D01*
X642772Y-94132D01*
X643940Y-90728D01*
X644652Y-84429D01*
X644652Y-45567D01*
X643940Y-39268D01*
X642772Y-35864D01*
X642162Y-32512D01*
X642772Y-29159D01*
X643940Y-25755D01*
X644652Y-19456D01*
X644652Y19405D01*
X643940Y25755D01*
X642772Y29159D01*
X642162Y32512D01*
X642772Y35864D01*
X643940Y39268D01*
X644652Y45567D01*
X644652Y84429D01*
X643940Y90728D01*
X642772Y94132D01*
X642162Y97485D01*
X642772Y100838D01*
X643940Y104241D01*
X644652Y110591D01*
X644652Y113639D01*
X588111Y113639D01*
X584911Y111607D01*
X581152Y110896D01*
X521309Y110947D01*
X517601Y111658D01*
X514400Y113639D01*
X454609Y113639D01*
X451408Y111658D01*
X447649Y110947D01*
X168249Y110947D01*
X164388Y111709D01*
X161086Y113893D01*
X21285Y253644D01*
X14224Y258978D01*
X6654Y262737D01*
X-1473Y265023D01*
X-10363Y265887D01*
X-107187Y265887D01*
X-111455Y266801D01*
X-114909Y269443D01*
X-116992Y273304D01*
X-117246Y277622D01*
X-115620Y281686D01*
X-107594Y293725D01*
X-104343Y300278D01*
X-152501Y300278D01*
X-152501Y276047D01*
X-153263Y272135D01*
X-155448Y268833D01*
X-158750Y266649D01*
X-162661Y265887D01*
X-233781Y265887D01*
X-237642Y266649D01*
X-240944Y268833D01*
X-243128Y272135D01*
X-243941Y276047D01*
X-243941Y300278D01*
X-292049Y300278D01*
X-288798Y293725D01*
X-280771Y281686D01*
X-279196Y277622D01*
X-279450Y273304D01*
X-281482Y269443D01*
X-284937Y266801D01*
X-289204Y265887D01*
X-581660Y265836D01*
X-590397Y264617D01*
X-598424Y261924D01*
X-605790Y257810D01*
X-612698Y252069D01*
X-723950Y140817D01*
X-727252Y138633D01*
X-731113Y137871D01*
X-1099870Y137871D01*
X-1103579Y138531D01*
X-1106728Y140512D01*
X-1116990Y155702D01*
X-1126032Y165963D01*
X-1136294Y175006D01*
X-1147673Y182626D01*
X-1159967Y188671D01*
X-1172921Y193040D01*
X-1186332Y195732D01*
X-1199997Y196646D01*
X-1213662Y195732D01*
X-1227074Y193040D01*
X-1240028Y188671D01*
X-1252321Y182626D01*
X-1263700Y175006D01*
X-1273962Y165963D01*
X-1283004Y155702D01*
X-1290624Y144322D01*
X-1296670Y132029D01*
X-1301038Y119075D01*
X-1303731Y105664D01*
X-1304645Y91998D01*
X-1303731Y78333D01*
X-1301038Y64922D01*
X-1296670Y51968D01*
X-1290624Y39674D01*
X-1283004Y28295D01*
X-1273962Y18034D01*
X-1263700Y8991D01*
X-1252321Y1371D01*
X-1240028Y-4673D01*
X-1227074Y-9042D01*
X-1213662Y-11734D01*
X-1199997Y-12649D01*
X-1186332Y-11734D01*
X-1172921Y-9042D01*
X-1159967Y-4673D01*
X-1147673Y1371D01*
X-1136294Y8991D01*
X-1126032Y18034D01*
X-1116990Y28295D01*
X-1106779Y43383D01*
X-1103630Y45364D01*
X-1099921Y46024D01*
X-706120Y46075D01*
X-697382Y47294D01*
X-689356Y49987D01*
X-681990Y54102D01*
X-675081Y59842D01*
X-563829Y171094D01*
X-560527Y173278D01*
X-556666Y174040D01*
X-287528Y174040D01*
X-283768Y173329D01*
X-280517Y171246D01*
X-278282Y168097D01*
X-277368Y164338D01*
X-277926Y160528D01*
X-279908Y157175D01*
X-281228Y155702D01*
X-288798Y144322D01*
X-294843Y132029D01*
X-299262Y119075D01*
X-301904Y105664D01*
X-302818Y91998D01*
X-301904Y78333D01*
X-299262Y64922D01*
X-294843Y51968D01*
X-288798Y39674D01*
X-281228Y28295D01*
X-272186Y18034D01*
X-261874Y8991D01*
X-250494Y1422D01*
X-238252Y-4673D01*
X-225298Y-9042D01*
X-211836Y-11734D01*
X-198221Y-12598D01*
X-184556Y-11734D01*
X-166624Y-8280D01*
X-162966Y-9093D01*
X-159918Y-11226D01*
X-143306Y-27838D01*
X-141122Y-31089D01*
X-140309Y-35001D01*
X-141122Y-38912D01*
X-143306Y-42164D01*
X-159867Y-58775D01*
X-162966Y-60858D01*
X-166624Y-61722D01*
X-184556Y-58267D01*
X-198221Y-57353D01*
X-211836Y-58267D01*
X-225298Y-60909D01*
X-238252Y-65328D01*
X-250494Y-71374D01*
X-261874Y-78994D01*
X-272186Y-87985D01*
X-281228Y-98298D01*
X-288798Y-109677D01*
X-294843Y-121970D01*
X-299262Y-134924D01*
X-301904Y-148336D01*
X-302818Y-162001D01*
X-301904Y-175666D01*
X-299262Y-189077D01*
X-294843Y-202031D01*
X-288798Y-214325D01*
X-281228Y-225704D01*
X-272186Y-235966D01*
X-261874Y-245008D01*
X-250494Y-252577D01*
X-238252Y-258673D01*
X-225298Y-263042D01*
X-211836Y-265734D01*
X-198221Y-266598D01*
X-184556Y-265734D01*
X-171094Y-263042D01*
X-158140Y-258673D01*
X-145897Y-252577D01*
X-134518Y-245008D01*
X-124206Y-235966D01*
X-115214Y-225704D01*
X-107594Y-214325D01*
X-101549Y-202031D01*
X-97129Y-189077D01*
X-94488Y-175666D01*
X-93573Y-162001D01*
X-94488Y-148336D01*
X-97942Y-130454D01*
X-97078Y-126796D01*
X-94945Y-123698D01*
X-85140Y-113893D01*
X-81838Y-111658D01*
X-77978Y-110896D01*
X357174Y-110896D01*
X361035Y-111658D01*
X364337Y-113893D01*
X366572Y-117195D01*
X367334Y-121056D01*
X366572Y-124968D01*
X364337Y-128270D01*
X155448Y-337159D01*
X152146Y-339394D01*
X148234Y-340156D01*
X-84226Y-340156D01*
X-87731Y-339496D01*
X-90830Y-337718D01*
X-93065Y-334924D01*
X-96164Y-326034D01*
X-99263Y-321157D01*
X-103327Y-317042D01*
X-108254Y-313944D01*
X-113690Y-312064D01*
X-120040Y-311353D01*
X-276352Y-311353D01*
X-282702Y-312064D01*
X-288137Y-313944D01*
X-293065Y-317042D01*
X-297129Y-321157D01*
X-300228Y-326034D01*
X-303326Y-334924D01*
X-305562Y-337718D01*
X-308660Y-339496D01*
X-312166Y-340156D01*
X-910285Y-340156D01*
X-914196Y-339394D01*
X-917498Y-337159D01*
X-1092860Y-161798D01*
X-1094943Y-158800D01*
X-1095806Y-155244D01*
X-1096264Y-148336D01*
X-1098956Y-134924D01*
X-1103325Y-121970D01*
X-1109370Y-109677D01*
X-1116990Y-98298D01*
X-1126032Y-88036D01*
X-1136294Y-78994D01*
X-1147673Y-71374D01*
X-1159967Y-65328D01*
X-1172921Y-60960D01*
X-1186332Y-58267D01*
X-1199997Y-57353D01*
X-1213662Y-58267D01*
X-1227074Y-60960D01*
X-1240028Y-65328D01*
X-1252321Y-71374D01*
X-1263700Y-78994D01*
X-1273962Y-88036D01*
X-1283004Y-98298D01*
X-1290624Y-109677D01*
X-1296670Y-121970D01*
X-1301038Y-134924D01*
X-1303731Y-148336D01*
X-1304645Y-162001D01*
X-1303731Y-175666D01*
X-1301038Y-189077D01*
X-1296670Y-202031D01*
X-1290624Y-214325D01*
X-1283004Y-225704D01*
X-1273962Y-235966D01*
X-1263700Y-245008D01*
X-1252321Y-252628D01*
X-1240028Y-258673D01*
X-1227074Y-263042D01*
X-1213662Y-265734D01*
X-1206703Y-266192D01*
X-1203198Y-267055D01*
X-1200200Y-269138D01*
X-1175359Y-294030D01*
X-1173124Y-297281D01*
X-1172362Y-301193D01*
X-1173124Y-305104D01*
X-1175359Y-308356D01*
X-1178610Y-310591D01*
X-1182522Y-311353D01*
X-1278178Y-311353D01*
X-1284478Y-312064D01*
X-1289964Y-313994D01*
X-1294841Y-317042D01*
X-1298956Y-321157D01*
X-1302004Y-326034D01*
X-1303934Y-331520D01*
X-1304645Y-337820D01*
X-1304645Y-409092D01*
X-1305407Y-412953D01*
X-1307642Y-416255D01*
X-1335532Y-444246D01*
X-1342593Y-453085D01*
X-1347216Y-460705D01*
X-1351686Y-471119D01*
X-1354124Y-480059D01*
X-1355953Y-483870D01*
X-1359103Y-486562D01*
G37*

%LPC*%
G36*
X-152501Y391718D02*
G01*
X-104343Y391718D01*
X-107594Y398322D01*
X-115214Y409701D01*
X-124206Y420014D01*
X-134518Y429006D01*
X-145897Y436626D01*
X-152501Y439877D01*
G37*
G36*
X-1293876Y391718D02*
G01*
X-1245717Y391718D01*
X-1245717Y439877D01*
X-1252321Y436626D01*
X-1263700Y429006D01*
X-1273962Y419963D01*
X-1283004Y409701D01*
X-1290624Y398322D01*
G37*
G36*
X-1154277Y506120D02*
G01*
X-1147673Y509371D01*
X-1136294Y516991D01*
X-1126032Y526034D01*
X-1116990Y536295D01*
X-1109370Y547674D01*
X-1106119Y554278D01*
X-1154277Y554278D01*
G37*
G36*
X-10566Y994105D02*
G01*
X20574Y994105D01*
X51663Y996035D01*
X82550Y999845D01*
X113182Y1005586D01*
X143408Y1013206D01*
X173075Y1022654D01*
X202082Y1033932D01*
X230378Y1046937D01*
X257810Y1061720D01*
X284276Y1078128D01*
X309676Y1096162D01*
X333959Y1115720D01*
X356920Y1136700D01*
X378612Y1159103D01*
X398830Y1182776D01*
X417576Y1207668D01*
X434746Y1233627D01*
X450291Y1260652D01*
X464108Y1288542D01*
X476199Y1317244D01*
X486511Y1346657D01*
X494995Y1376629D01*
X501599Y1407058D01*
X506272Y1437843D01*
X509117Y1468882D01*
X509981Y1499971D01*
X509117Y1531112D01*
X506272Y1562150D01*
X501599Y1592935D01*
X494995Y1623364D01*
X486511Y1653336D01*
X476199Y1682750D01*
X464108Y1711452D01*
X450291Y1739341D01*
X434746Y1766366D01*
X417576Y1792325D01*
X398830Y1817217D01*
X378612Y1840890D01*
X356920Y1863293D01*
X333959Y1884273D01*
X309676Y1903831D01*
X284276Y1921865D01*
X257810Y1938274D01*
X230378Y1953056D01*
X202082Y1966061D01*
X173075Y1977339D01*
X143408Y1986788D01*
X113182Y1994407D01*
X82550Y2000148D01*
X51663Y2003958D01*
X20574Y2005888D01*
X-10566Y2005888D01*
X-41656Y2003958D01*
X-72593Y2000148D01*
X-103174Y1994407D01*
X-133400Y1986788D01*
X-163068Y1977339D01*
X-192125Y1966061D01*
X-220370Y1953056D01*
X-247802Y1938274D01*
X-274269Y1921865D01*
X-299720Y1903831D01*
X-323951Y1884273D01*
X-346964Y1863293D01*
X-368604Y1840890D01*
X-388823Y1817217D01*
X-407568Y1792325D01*
X-424738Y1766366D01*
X-440283Y1739341D01*
X-454101Y1711452D01*
X-466191Y1682750D01*
X-476504Y1653336D01*
X-484987Y1623364D01*
X-491591Y1592935D01*
X-496316Y1562150D01*
X-499109Y1531112D01*
X-499973Y1500022D01*
X-499109Y1468882D01*
X-496316Y1437843D01*
X-491591Y1407058D01*
X-484987Y1376629D01*
X-476504Y1346657D01*
X-466191Y1317244D01*
X-454101Y1288542D01*
X-440283Y1260652D01*
X-424738Y1233627D01*
X-407568Y1207668D01*
X-388823Y1182776D01*
X-368604Y1159103D01*
X-346964Y1136700D01*
X-323951Y1115720D01*
X-299720Y1096162D01*
X-274269Y1078128D01*
X-247802Y1061720D01*
X-220370Y1046937D01*
X-192125Y1033932D01*
X-163068Y1022654D01*
X-133400Y1013206D01*
X-103174Y1005586D01*
X-72593Y999845D01*
X-41656Y996035D01*
G37*
G36*
X-1154277Y645718D02*
G01*
X-1106119Y645718D01*
X-1109370Y652322D01*
X-1116990Y663702D01*
X-1126032Y673963D01*
X-1136294Y683006D01*
X-1147673Y690626D01*
X-1154277Y693877D01*
G37*
G36*
X-292049Y391718D02*
G01*
X-243941Y391718D01*
X-243941Y439877D01*
X-250494Y436626D01*
X-261874Y429006D01*
X-272186Y420014D01*
X-281228Y409701D01*
X-288798Y398322D01*
G37*
G36*
X-1245717Y506120D02*
G01*
X-1245717Y554278D01*
X-1293876Y554278D01*
X-1290624Y547674D01*
X-1283004Y536295D01*
X-1273962Y526034D01*
X-1263700Y516991D01*
X-1252321Y509371D01*
G37*
G36*
X-1154277Y391718D02*
G01*
X-1106119Y391718D01*
X-1109370Y398322D01*
X-1116990Y409701D01*
X-1126032Y419963D01*
X-1136294Y429006D01*
X-1147673Y436626D01*
X-1154277Y439877D01*
G37*
G36*
X-1154277Y252120D02*
G01*
X-1147673Y255371D01*
X-1136294Y262991D01*
X-1126032Y272034D01*
X-1116990Y282295D01*
X-1109370Y293674D01*
X-1106119Y300278D01*
X-1154277Y300278D01*
G37*
G36*
X-1245717Y252120D02*
G01*
X-1245717Y300278D01*
X-1293876Y300278D01*
X-1290624Y293674D01*
X-1283004Y282295D01*
X-1273962Y272034D01*
X-1263700Y262991D01*
X-1252321Y255371D01*
G37*
G36*
X457809Y146354D02*
G01*
X511149Y146354D01*
X511149Y175920D01*
X484327Y175920D01*
X477977Y175209D01*
X472541Y173278D01*
X467614Y170180D01*
X463550Y166116D01*
X460451Y161188D01*
X458520Y155752D01*
X457809Y149402D01*
G37*
G36*
X-1293876Y645718D02*
G01*
X-1245717Y645718D01*
X-1245717Y693877D01*
X-1252321Y690626D01*
X-1263700Y683006D01*
X-1273962Y673963D01*
X-1283004Y663702D01*
X-1290624Y652322D01*
G37*

%LPD*%
G36*
X-1363980Y-1473962D02*
G01*
X-1367891Y-1473200D01*
X-1371142Y-1470964D01*
X-1373378Y-1467713D01*
X-1374140Y-1463802D01*
X-1374140Y-1452473D01*
X-1373225Y-1448308D01*
X-1370736Y-1444853D01*
X-1366977Y-1442770D01*
X-1362760Y-1442364D01*
X-1353261Y-1445717D01*
X-1346911Y-1446428D01*
X-1320088Y-1446428D01*
X-1320088Y-1391615D01*
X-1363980Y-1391615D01*
X-1367891Y-1390802D01*
X-1371142Y-1388618D01*
X-1373378Y-1385316D01*
X-1374140Y-1381455D01*
X-1374140Y-1318564D01*
X-1373378Y-1314653D01*
X-1371142Y-1311351D01*
X-1367891Y-1309166D01*
X-1363980Y-1308404D01*
X-1320088Y-1308404D01*
X-1320088Y-1256588D01*
X-1319326Y-1252677D01*
X-1317142Y-1249375D01*
X-1313840Y-1247190D01*
X-1309928Y-1246428D01*
X-1250035Y-1246428D01*
X-1246174Y-1247190D01*
X-1242872Y-1249375D01*
X-1240688Y-1252677D01*
X-1239875Y-1256588D01*
X-1239875Y-1308404D01*
X-1186586Y-1308404D01*
X-1186586Y-1280058D01*
X-1187297Y-1273759D01*
X-1189228Y-1268272D01*
X-1192276Y-1263396D01*
X-1196390Y-1259281D01*
X-1200454Y-1255776D01*
X-1202029Y-1252016D01*
X-1202029Y-1247952D01*
X-1200454Y-1244193D01*
X-1196390Y-1240688D01*
X-1192276Y-1236624D01*
X-1188618Y-1230782D01*
X-1186332Y-1228242D01*
X-1183386Y-1226566D01*
X-1180033Y-1226007D01*
X-1046073Y-1226007D01*
X-1042162Y-1226769D01*
X-1038860Y-1229004D01*
X-1036675Y-1232306D01*
X-1035913Y-1236167D01*
X-1035913Y-1443431D01*
X-1035202Y-1449730D01*
X-1033271Y-1455216D01*
X-1031290Y-1458417D01*
X-1029817Y-1462430D01*
X-1030173Y-1466748D01*
X-1032256Y-1470507D01*
X-1035659Y-1473047D01*
X-1039876Y-1473962D01*
G37*

%LPC*%
G36*
X-1239875Y-1446428D02*
G01*
X-1213053Y-1446428D01*
X-1206754Y-1445717D01*
X-1201267Y-1443786D01*
X-1196390Y-1440688D01*
X-1192276Y-1436624D01*
X-1189228Y-1431696D01*
X-1187297Y-1426260D01*
X-1186586Y-1419910D01*
X-1186586Y-1391615D01*
X-1239875Y-1391615D01*
G37*

%LPD*%
G36*
X-304Y-2074062D02*
G01*
X-33680Y-2073097D01*
X-66954Y-2070150D01*
X-99974Y-2065274D01*
X-132689Y-2058517D01*
X-164947Y-2049881D01*
X-196646Y-2039366D01*
X-227634Y-2027021D01*
X-257911Y-2012848D01*
X-287274Y-1996998D01*
X-315722Y-1979472D01*
X-343052Y-1960270D01*
X-369214Y-1939543D01*
X-394157Y-1917344D01*
X-417779Y-1893722D01*
X-439978Y-1868779D01*
X-460654Y-1842566D01*
X-479806Y-1815185D01*
X-497332Y-1786788D01*
X-513130Y-1757375D01*
X-527253Y-1727098D01*
X-539546Y-1696059D01*
X-550062Y-1664360D01*
X-558647Y-1632102D01*
X-565404Y-1599387D01*
X-570230Y-1566367D01*
X-573125Y-1533093D01*
X-574090Y-1499870D01*
X-575056Y-1493418D01*
X-577342Y-1487881D01*
X-580390Y-1483563D01*
X-583742Y-1480108D01*
X-588518Y-1476806D01*
X-594106Y-1474673D01*
X-600252Y-1473962D01*
X-620115Y-1473962D01*
X-624332Y-1473047D01*
X-627786Y-1470507D01*
X-629818Y-1466748D01*
X-630174Y-1462430D01*
X-628700Y-1458417D01*
X-626719Y-1455216D01*
X-624789Y-1449730D01*
X-624078Y-1443431D01*
X-624078Y-1210564D01*
X-624789Y-1204264D01*
X-626719Y-1198778D01*
X-629818Y-1193901D01*
X-633882Y-1189786D01*
X-638810Y-1186738D01*
X-644245Y-1184808D01*
X-650544Y-1184097D01*
X-743915Y-1184097D01*
X-747826Y-1183335D01*
X-751128Y-1181100D01*
X-753313Y-1177798D01*
X-754075Y-1173937D01*
X-754075Y-875944D01*
X-753668Y-873099D01*
X-751738Y-869238D01*
X-749808Y-863752D01*
X-749096Y-857453D01*
X-749096Y-608584D01*
X-749808Y-602234D01*
X-751738Y-596798D01*
X-754786Y-591870D01*
X-758901Y-587806D01*
X-763778Y-584708D01*
X-769264Y-582828D01*
X-775563Y-582117D01*
X-884428Y-582117D01*
X-890727Y-582828D01*
X-896213Y-584708D01*
X-901090Y-587806D01*
X-905205Y-591870D01*
X-908303Y-596798D01*
X-910183Y-602234D01*
X-910894Y-608584D01*
X-910894Y-857453D01*
X-910183Y-863752D01*
X-908303Y-869238D01*
X-906322Y-873099D01*
X-905916Y-875944D01*
X-905916Y-977544D01*
X-906678Y-981405D01*
X-908862Y-984707D01*
X-995222Y-1071219D01*
X-998524Y-1073404D01*
X-1002436Y-1074216D01*
X-1179931Y-1074216D01*
X-1183284Y-1073607D01*
X-1186281Y-1071981D01*
X-1188567Y-1069390D01*
X-1192326Y-1063345D01*
X-1196390Y-1059281D01*
X-1199337Y-1057452D01*
X-1201877Y-1055166D01*
X-1203502Y-1052169D01*
X-1204112Y-1048816D01*
X-1204112Y-531672D01*
X-1203299Y-527761D01*
X-1200251Y-523646D01*
X-1197000Y-521411D01*
X-1193088Y-520649D01*
X-1140815Y-520649D01*
X-1137056Y-521360D01*
X-1133805Y-523443D01*
X-1131570Y-526592D01*
X-1130706Y-530352D01*
X-1131214Y-534162D01*
X-1132433Y-537616D01*
X-1134567Y-546150D01*
X-1134973Y-548589D01*
X-1135786Y-557428D01*
X-1135837Y-589991D01*
X-1136243Y-592785D01*
X-1138275Y-596798D01*
X-1140206Y-602234D01*
X-1140917Y-608584D01*
X-1140917Y-857453D01*
X-1140206Y-863752D01*
X-1138275Y-869238D01*
X-1135227Y-874115D01*
X-1131112Y-878230D01*
X-1126236Y-881278D01*
X-1120749Y-883208D01*
X-1114450Y-883919D01*
X-1005586Y-883919D01*
X-999236Y-883208D01*
X-993800Y-881278D01*
X-988872Y-878230D01*
X-984808Y-874115D01*
X-981710Y-869238D01*
X-979779Y-863752D01*
X-979068Y-857453D01*
X-979068Y-608584D01*
X-979779Y-602234D01*
X-981557Y-597204D01*
X-982116Y-593445D01*
X-981303Y-589788D01*
X-979169Y-586638D01*
X-887476Y-494944D01*
X-884174Y-492709D01*
X-880262Y-491947D01*
X-312166Y-491947D01*
X-308051Y-492810D01*
X-304647Y-495300D01*
X-302514Y-498906D01*
X-300177Y-506018D01*
X-297129Y-510844D01*
X-293065Y-514959D01*
X-288137Y-518007D01*
X-281533Y-520293D01*
X-277977Y-522478D01*
X-275539Y-525881D01*
X-274726Y-529945D01*
X-275285Y-629818D01*
X-276047Y-633730D01*
X-278333Y-637032D01*
X-286613Y-642315D01*
X-290728Y-646379D01*
X-293776Y-651306D01*
X-295706Y-656742D01*
X-296418Y-663092D01*
X-296418Y-796950D01*
X-295706Y-803249D01*
X-293776Y-808736D01*
X-290728Y-813612D01*
X-286613Y-817727D01*
X-281736Y-820775D01*
X-276250Y-822706D01*
X-269951Y-823417D01*
X-130048Y-823417D01*
X-123748Y-822706D01*
X-118313Y-820775D01*
X-113385Y-817727D01*
X-109321Y-813612D01*
X-105765Y-809548D01*
X-102057Y-807974D01*
X-97942Y-807974D01*
X-94234Y-809548D01*
X-90678Y-813612D01*
X-86614Y-817727D01*
X-81686Y-820775D01*
X-76250Y-822706D01*
X-69951Y-823417D01*
X-41605Y-823417D01*
X-41605Y-770077D01*
X-93421Y-770077D01*
X-97332Y-769315D01*
X-100634Y-767130D01*
X-102819Y-763828D01*
X-103581Y-759917D01*
X-103581Y-700074D01*
X-102819Y-696163D01*
X-100634Y-692861D01*
X-97332Y-690676D01*
X-93421Y-689914D01*
X-41605Y-689914D01*
X-41605Y-636574D01*
X-69951Y-636574D01*
X-76250Y-637286D01*
X-81686Y-639216D01*
X-86614Y-642315D01*
X-90678Y-646379D01*
X-94234Y-650443D01*
X-97942Y-652018D01*
X-102057Y-652018D01*
X-105765Y-650443D01*
X-109321Y-646379D01*
X-113385Y-642315D01*
X-118668Y-638962D01*
X-121259Y-636676D01*
X-122885Y-633679D01*
X-123444Y-630326D01*
X-122885Y-529996D01*
X-122224Y-526389D01*
X-120294Y-523240D01*
X-117398Y-521004D01*
X-108254Y-518007D01*
X-103327Y-514959D01*
X-99263Y-510844D01*
X-96215Y-506018D01*
X-93878Y-498906D01*
X-91744Y-495300D01*
X-88341Y-492810D01*
X-84226Y-491947D01*
X186537Y-491896D01*
X195376Y-491083D01*
X197815Y-490677D01*
X206451Y-488543D01*
X208788Y-487781D01*
X217017Y-484378D01*
X219202Y-483260D01*
X226821Y-478637D01*
X235661Y-471576D01*
X453390Y-253898D01*
X456692Y-251663D01*
X460603Y-250901D01*
X477672Y-250901D01*
X481584Y-251663D01*
X484835Y-253898D01*
X487070Y-257200D01*
X487832Y-261061D01*
X487832Y-419404D01*
X488543Y-425754D01*
X490474Y-431190D01*
X493522Y-436118D01*
X497636Y-440182D01*
X502513Y-443280D01*
X508000Y-445211D01*
X514299Y-445922D01*
X673150Y-445922D01*
X679500Y-445211D01*
X684936Y-443280D01*
X689864Y-440182D01*
X693928Y-436118D01*
X697026Y-431190D01*
X698957Y-425754D01*
X699668Y-419404D01*
X699668Y-386080D01*
X700430Y-382168D01*
X702614Y-378866D01*
X705916Y-376682D01*
X709828Y-375920D01*
X803046Y-375869D01*
X811885Y-374650D01*
X817727Y-372821D01*
X824433Y-369468D01*
X828954Y-368401D01*
X893368Y-368401D01*
X905967Y-367487D01*
X917956Y-364896D01*
X929436Y-360629D01*
X940155Y-354736D01*
X949960Y-347421D01*
X956767Y-340664D01*
X960018Y-338429D01*
X963930Y-337667D01*
X967841Y-338429D01*
X971092Y-340664D01*
X973328Y-343916D01*
X974090Y-347827D01*
X974090Y-963930D01*
X973328Y-967841D01*
X971092Y-971143D01*
X967841Y-973328D01*
X963930Y-974090D01*
X600608Y-974242D01*
X594106Y-975004D01*
X588568Y-977137D01*
X583438Y-980643D01*
X580390Y-983691D01*
X577748Y-987298D01*
X575259Y-992835D01*
X574090Y-1000302D01*
X574090Y-1499463D01*
X573074Y-1533652D01*
X570179Y-1566926D01*
X565302Y-1599996D01*
X558546Y-1632661D01*
X549859Y-1664919D01*
X539343Y-1696618D01*
X526999Y-1727657D01*
X512876Y-1757883D01*
X497027Y-1787296D01*
X479450Y-1815693D01*
X460298Y-1843024D01*
X439572Y-1869236D01*
X417372Y-1894179D01*
X393750Y-1917750D01*
X368757Y-1939950D01*
X342595Y-1960625D01*
X315214Y-1979777D01*
X286766Y-1997303D01*
X257403Y-2013153D01*
X227126Y-2027224D01*
X196088Y-2039569D01*
X164338Y-2050034D01*
X132080Y-2058670D01*
X99415Y-2065375D01*
X66344Y-2070201D01*
X33070Y-2073097D01*
G37*

%LPC*%
G36*
X-10566Y-2005888D02*
G01*
X20574Y-2005888D01*
X51663Y-2003958D01*
X82550Y-2000148D01*
X113182Y-1994407D01*
X143408Y-1986788D01*
X173075Y-1977339D01*
X202082Y-1966061D01*
X230378Y-1953056D01*
X257810Y-1938274D01*
X284276Y-1921865D01*
X309676Y-1903831D01*
X333959Y-1884273D01*
X356920Y-1863293D01*
X378612Y-1840890D01*
X398830Y-1817217D01*
X417576Y-1792325D01*
X434746Y-1766366D01*
X450291Y-1739341D01*
X464108Y-1711452D01*
X476199Y-1682750D01*
X486511Y-1653336D01*
X494995Y-1623364D01*
X501599Y-1592935D01*
X506272Y-1562150D01*
X509117Y-1531112D01*
X509981Y-1500022D01*
X509117Y-1468882D01*
X506272Y-1437843D01*
X501599Y-1407058D01*
X494995Y-1376629D01*
X486511Y-1346657D01*
X476199Y-1317244D01*
X464108Y-1288542D01*
X450291Y-1260652D01*
X434746Y-1233627D01*
X417576Y-1207668D01*
X398830Y-1182776D01*
X378612Y-1159103D01*
X356920Y-1136700D01*
X333959Y-1115720D01*
X309676Y-1096162D01*
X284276Y-1078128D01*
X257810Y-1061720D01*
X230378Y-1046937D01*
X202082Y-1033932D01*
X173075Y-1022654D01*
X143408Y-1013206D01*
X113182Y-1005586D01*
X82550Y-999845D01*
X51663Y-996035D01*
X20574Y-994105D01*
X-10566Y-994105D01*
X-41656Y-996035D01*
X-72593Y-999845D01*
X-103174Y-1005586D01*
X-133400Y-1013206D01*
X-163068Y-1022654D01*
X-192125Y-1033932D01*
X-220370Y-1046937D01*
X-247802Y-1061720D01*
X-274269Y-1078128D01*
X-299720Y-1096162D01*
X-323951Y-1115720D01*
X-346964Y-1136700D01*
X-368604Y-1159103D01*
X-388823Y-1182776D01*
X-407568Y-1207668D01*
X-424738Y-1233627D01*
X-440283Y-1260652D01*
X-454101Y-1288542D01*
X-466191Y-1317244D01*
X-476504Y-1346657D01*
X-484987Y-1376629D01*
X-491591Y-1407058D01*
X-496316Y-1437843D01*
X-499109Y-1468882D01*
X-499973Y-1499971D01*
X-499109Y-1531112D01*
X-496316Y-1562150D01*
X-491591Y-1592935D01*
X-484987Y-1623364D01*
X-476504Y-1653336D01*
X-466191Y-1682750D01*
X-454101Y-1711452D01*
X-440283Y-1739341D01*
X-424738Y-1766366D01*
X-407568Y-1792325D01*
X-388823Y-1817217D01*
X-368604Y-1840890D01*
X-346964Y-1863293D01*
X-323951Y-1884273D01*
X-299720Y-1903831D01*
X-274269Y-1921865D01*
X-247802Y-1938274D01*
X-220370Y-1953056D01*
X-192125Y-1966061D01*
X-163068Y-1977339D01*
X-133400Y-1986788D01*
X-103174Y-1994407D01*
X-72593Y-2000148D01*
X-41656Y-2003958D01*
G37*
G36*
X-566166Y-664159D02*
G01*
X-519074Y-664159D01*
X-519074Y-608584D01*
X-519785Y-602234D01*
X-521716Y-596798D01*
X-524814Y-591870D01*
X-528878Y-587806D01*
X-533806Y-584708D01*
X-539242Y-582828D01*
X-545592Y-582117D01*
X-566166Y-582117D01*
G37*
G36*
X-654405Y-883919D02*
G01*
X-633831Y-883919D01*
X-633831Y-801827D01*
X-680923Y-801827D01*
X-680923Y-857453D01*
X-680212Y-863752D01*
X-678281Y-869238D01*
X-675182Y-874115D01*
X-671118Y-878230D01*
X-666191Y-881278D01*
X-660755Y-883208D01*
G37*
G36*
X-566166Y-883919D02*
G01*
X-545592Y-883919D01*
X-539242Y-883208D01*
X-533806Y-881278D01*
X-528878Y-878230D01*
X-524814Y-874115D01*
X-521716Y-869238D01*
X-519785Y-863752D01*
X-519074Y-857453D01*
X-519074Y-801827D01*
X-566166Y-801827D01*
G37*
G36*
X-680923Y-664159D02*
G01*
X-633831Y-664159D01*
X-633831Y-582117D01*
X-654405Y-582117D01*
X-660755Y-582828D01*
X-666191Y-584708D01*
X-671118Y-587806D01*
X-675182Y-591870D01*
X-678281Y-596798D01*
X-680212Y-602234D01*
X-680923Y-608584D01*
G37*
G36*
X41605Y-689914D02*
G01*
X96418Y-689914D01*
X96418Y-663092D01*
X95707Y-656742D01*
X93776Y-651306D01*
X90728Y-646379D01*
X86614Y-642315D01*
X81737Y-639216D01*
X76250Y-637286D01*
X69951Y-636574D01*
X41605Y-636574D01*
G37*
G36*
X41605Y-823417D02*
G01*
X69951Y-823417D01*
X76250Y-822706D01*
X81737Y-820775D01*
X86614Y-817727D01*
X90728Y-813612D01*
X93776Y-808736D01*
X95707Y-803249D01*
X96418Y-796950D01*
X96418Y-770077D01*
X41605Y-770077D01*
G37*

%LPD*%
D10*
X500126Y-154939D02*
G01*
X445007Y-154939D01*
X183895Y-416052D01*
X-198120Y-416052D01*
D11*
X551179Y-130047D02*
G01*
X519937Y-130047D01*
X473202Y-176784D01*
X473202Y-203962D01*
D10*
X-830071Y-1326895D02*
G01*
X-830071Y-1240028D01*
X-919987Y-1150112D01*
X-1279905Y-1150112D01*
X-1279905Y-1150112D02*
G01*
X-966723Y-1150112D01*
X-830071Y-1013205D01*
X-1199997Y-161998D02*
G01*
X-945944Y-416052D01*
X-915923Y-416052D01*
X-1059942Y-733044D02*
G01*
X-1059942Y-560070D01*
X-915923Y-416052D01*
X-198120Y-416052D01*
X-198120Y-416052D02*
G01*
X-915923Y-416052D01*
X-829998Y-1327000D02*
G01*
X-829998Y-732995D01*
X-1199997Y-415998D02*
G01*
X-1279997Y-495998D01*
X-1279997Y-1149997D01*
X-199897Y-729995D02*
G01*
X-198196Y-416001D01*
D11*
X551179Y65023D02*
G01*
X145034Y65023D01*
X-9905Y219963D01*
X-579881Y219963D01*
X-707897Y91947D01*
X-1199895Y91947D01*
X848740Y-282524D02*
G01*
X801268Y-329996D01*
X593750Y-329996D01*
X848740Y282498D02*
G01*
X801243Y329996D01*
X593750Y329996D01*
D12*
X-198120Y599947D02*
G01*
X0Y599947D01*
X270002Y329945D01*
X593750Y329996D01*
X849995Y289999D02*
G01*
X849995Y-275028D01*
D10*
X519937Y160020D02*
G01*
X240029Y160020D01*
X53847Y345947D01*
X-198120Y345947D01*
D11*
X551230Y-64998D02*
G01*
X-101193Y-64998D01*
X-198196Y-162001D01*
X551230Y0D02*
G01*
X-106197Y0D01*
X-198196Y91998D01*
D10*
X-1199997Y346001D02*
G01*
X-198198Y346001D01*
X-1199997Y599998D02*
G01*
X-1199997Y345998D01*
D13*
G01*
X-200002Y-729998D03*
G01*
X2Y-729998D03*
D14*
G01*
X-599998Y-732993D03*
G01*
X-829995Y-732993D03*
G01*
X-1059992Y-732993D03*
D15*
G01*
X-829998Y-1327000D03*
D16*
G01*
X-1279997Y-1149995D03*
D17*
G01*
X-1280007Y-1350010D03*
D18*
G01*
X551230Y-129997D03*
G01*
X551230Y-64998D03*
G01*
X551230Y0D03*
G01*
X551230Y64998D03*
G01*
X551230Y129997D03*
D19*
G01*
X593750Y329996D03*
G01*
X593750Y-329996D03*
D20*
G01*
X-198196Y599998D03*
G01*
X-198196Y345998D03*
G01*
X-198196Y91998D03*
G01*
X-198196Y-162001D03*
D21*
G01*
X-198196Y-416001D03*
D20*
G01*
X-1199997Y599998D03*
G01*
X-1199997Y345998D03*
G01*
X-1199997Y91998D03*
G01*
X-1199997Y-162001D03*
D21*
G01*
X-1199997Y-416001D03*
D22*
G01*
X848740Y282498D03*
G01*
X848740Y-282524D03*
D23*
G01*
X-1124991Y-1350010D03*
D24*
G01*
X-1292834Y742746D03*
G01*
X-1042847Y742746D03*
G01*
X-1042847Y492760D03*
G01*
X-1042847Y242747D03*
G01*
X-792835Y742746D03*
G01*
X-792835Y492760D03*
G01*
X-792835Y242747D03*
G01*
X-792835Y-257251D03*
G01*
X-542848Y742746D03*
G01*
X-542848Y492760D03*
G01*
X-542848Y-7238D03*
G01*
X-542848Y-257251D03*
G01*
X-292836Y992759D03*
G01*
X-292836Y742746D03*
G01*
X-42849Y742746D03*
G01*
X-42849Y-257251D03*
G01*
X207162Y742746D03*
G01*
X207162Y-257251D03*
G01*
X457149Y992759D03*
G01*
X457149Y742746D03*
G01*
X457149Y492760D03*
G01*
X707161Y742746D03*
G01*
X707161Y-7238D03*
G01*
X-1122781Y-947470D03*
G01*
X-622782Y-947470D03*
G01*
X-372795Y-697458D03*
G01*
X-372795Y-947470D03*
G01*
X-122783Y-947470D03*
G01*
X127203Y-947470D03*
G01*
X377215Y-697458D03*
G01*
X377215Y-947470D03*
G01*
X627202Y-697458D03*
G01*
X877214Y-447471D03*
G01*
X877214Y-697458D03*
M02*
